<?xml version="1.0" encoding="UTF-8" standalone="no"?>
<!-- Created with Inkscape (http://www.inkscape.org/) -->

<svg
   xmlns:dc="http://purl.org/dc/elements/1.1/"
   xmlns:cc="http://creativecommons.org/ns#"
   xmlns:rdf="http://www.w3.org/1999/02/22-rdf-syntax-ns#"
   xmlns:svg="http://www.w3.org/2000/svg"
   xmlns="http://www.w3.org/2000/svg"
   xmlns:sodipodi="http://sodipodi.sourceforge.net/DTD/sodipodi-0.dtd"
   xmlns:inkscape="http://www.inkscape.org/namespaces/inkscape"
   width="84.836876mm"
   height="10.175294mm"
   viewBox="0 0 84.836874 10.175294"
   version="1.1"
   id="svg5499"
   inkscape:version="0.92.1 r15371"
   sodipodi:docname="PierreMarcLaforest.svg">
  <defs
     id="defs5493" />
  <sodipodi:namedview
     id="base"
     pagecolor="#ffffff"
     bordercolor="#666666"
     borderopacity="1.0"
     inkscape:pageopacity="0.0"
     inkscape:pageshadow="2"
     inkscape:zoom="2.1117634"
     inkscape:cx="313.64059"
     inkscape:cy="15.629612"
     inkscape:document-units="mm"
     inkscape:current-layer="flowRoot4513-7"
     showgrid="false"
     fit-margin-top="0"
     fit-margin-left="0"
     fit-margin-right="0"
     fit-margin-bottom="0"
     inkscape:window-width="1366"
     inkscape:window-height="706"
     inkscape:window-x="-8"
     inkscape:window-y="-8"
     inkscape:window-maximized="1" />
  <metadata
     id="metadata5496">
    <rdf:RDF>
      <cc:Work
         rdf:about="">
        <dc:format>image/svg+xml</dc:format>
        <dc:type
           rdf:resource="http://purl.org/dc/dcmitype/StillImage" />
        <dc:title></dc:title>
      </cc:Work>
    </rdf:RDF>
  </metadata>
  <g
     inkscape:label="Layer 1"
     inkscape:groupmode="layer"
     id="layer1"
     transform="translate(-106.92122,-118.35851)">
    <g
       aria-label="Pierre-Marc Laforest"
       transform="matrix(0.15763009,0,0,0.19788253,-47.548854,108.22088)"
       style="font-style:normal;font-weight:normal;font-size:40px;line-height:1.25;font-family:sans-serif;letter-spacing:0px;word-spacing:0px;display:inline;fill:#ffffff;fill-opacity:1;stroke:#000036;stroke-width:1.70995116;stroke-miterlimit:4;stroke-dasharray:none;stroke-opacity:1"
       id="flowRoot4513-7"
       inkscape:export-filename="C:\Users\PM\Documents\SitePm2\img\pierremarclaforest.png"
       inkscape:export-xdpi="25.41"
       inkscape:export-ydpi="25.41">
      <path
         d="m 1002.373,59.09331 q -1.8515,0 -4.10152,0.234375 -2.22656,0.210937 -4.42968,0.5625 0.5625,0.703125 0.32812,1.898437 -0.0234,0.140625 -0.32812,0.75 -0.28125,0.585938 -0.63282,1.289063 -0.35156,0.703125 -0.67968,1.3125 -0.32813,0.609375 -0.42188,0.75 -0.16406,0.304687 -0.375,0.773437 -0.1875,0.445313 -0.39844,0.984375 -0.21093,0.539063 -0.42187,1.125 -0.21094,0.5625 -0.42188,1.101563 -0.28125,0.726562 -0.46875,1.289062 -0.1875,0.539063 -0.32812,0.984375 -0.14063,0.421875 -0.25781,0.820313 -0.11719,0.398437 -0.21094,0.820312 0.84375,-0.328125 1.89844,-0.726562 1.07812,-0.421875 2.17968,-0.84375 1.10157,-0.445313 2.15625,-0.867188 1.05469,-0.445312 1.875,-0.796875 0.44532,-0.210937 1.00782,-0.46875 0.5625,-0.257812 1.125,-0.539062 0.5859,-0.28125 1.1719,-0.5625 0.6093,-0.304688 1.125,-0.585938 1.2656,-0.679687 2.6484,-1.59375 1.3828,-0.9375 2.6016,-1.992187 1.2187,-1.054688 2.0859,-2.132813 0.8672,-1.101562 1.0547,-2.0625 0.094,-0.492187 -1.0313,-0.796875 -1.664,-0.46875 -3.4921,-0.585937 -1.8047,-0.140625 -3.2579,-0.140625 z m 13.0313,1.828125 q -0.094,0.375 -0.4219,1.054687 -0.3047,0.65625 -0.75,1.429688 -0.4453,0.75 -0.9375,1.476562 -0.4922,0.703125 -0.914,1.171875 -1.0313,1.125 -2.6719,2.367188 -1.6406,1.242187 -3.7969,2.53125 -1.9922,1.195312 -4.1016,2.320312 -2.08589,1.101563 -4.10152,2.015625 -2.4375,1.125 -4.99218,2.132813 -2.55469,0.984375 -4.96875,1.710937 l -0.21094,1.125 q -0.0703,0.304688 -0.1875,0.984375 -0.0937,0.679688 -0.21094,1.570313 -0.11719,0.890625 -0.25781,1.898437 -0.14063,1.007813 -0.28125,1.96875 -0.11719,0.960938 -0.25781,1.78125 -0.11719,0.820313 -0.23438,1.335938 -0.23437,1.195312 -1.125,1.851562 -0.89062,0.679688 -2.15625,0.679688 -3.375,0 -1.10156,-11.414063 0.21094,-1.007812 0.46875,-2.039062 0.25781,-1.03125 0.60937,-2.203125 0.375,-1.195313 0.84375,-2.554688 0.46875,-1.359375 1.05469,-3.046875 0.49219,-1.40625 0.96094,-2.695312 0.49219,-1.289063 1.00781,-2.507813 0.53906,-1.242187 1.14844,-2.4375 0.63281,-1.195312 1.42969,-2.414062 -0.79688,0.210937 -1.64063,0.492187 -0.84375,0.257813 -1.75781,0.539063 -0.28125,0.117187 -0.5625,0.1875 -0.25781,0.07031 -0.5625,0.07031 -0.89063,0 -1.38281,-0.492187 -0.46875,-0.492188 -0.30469,-1.289063 0.1875,-0.960937 0.72656,-1.664062 0.53906,-0.726563 1.52344,-1.289063 1.00781,-0.5625 2.46094,-0.984375 1.45312,-0.445312 3.51562,-0.84375 1.17188,-0.234375 2.53125,-0.445312 1.35938,-0.234375 2.71875,-0.398438 1.38281,-0.1875 2.67188,-0.304687 1.28905,-0.117188 2.32035,-0.117188 1.2421,0 2.3906,0.02344 1.1484,0.02344 2.25,0.117187 1.125,0.09375 2.2031,0.257813 1.0781,0.164062 2.1563,0.445312 2.4609,0.632813 3.75,1.875 1.5937,1.453125 1.1484,3.726563 z"
         style="font-style:italic;font-variant:normal;font-weight:bold;font-stretch:normal;font-size:48px;font-family:'Segoe Script';-inkscape-font-specification:'Segoe Script Bold Italic';fill:#ffffff;fill-opacity:1;stroke:#000036;stroke-width:1.70995116;stroke-miterlimit:4;stroke-dasharray:none;stroke-opacity:1"
         id="path6056"
         inkscape:connector-curvature="0" />
      <path
         d="m 1031.7402,56.140185 q -0.047,0.257812 -0.3281,0.867187 -0.2812,0.585938 -0.6328,1.242188 -0.3281,0.632812 -0.6563,1.195312 -0.3281,0.539063 -0.4921,0.726563 -0.1641,0.210937 -0.5157,0.46875 -0.3515,0.257812 -0.7968,0.492187 -0.4219,0.210938 -0.8672,0.375 -0.4219,0.164063 -0.7266,0.164063 -0.3516,0 -0.7266,-0.28125 -0.375,-0.304688 -0.6562,-0.726563 -0.2813,-0.445312 -0.4453,-0.9375 -0.1641,-0.492187 -0.07,-0.914062 0.1406,-0.75 0.7265,-1.617188 0.6094,-0.890625 1.4532,-1.640625 0.8437,-0.773437 1.7812,-1.265625 0.9609,-0.515625 1.8047,-0.515625 0.2578,0 0.5156,0.1875 0.2578,0.164063 0.4219,0.492188 0.1875,0.304687 0.2578,0.75 0.07,0.421875 -0.047,0.9375 z m 6.2578,26.15625 q -4.9218,3.421875 -8.9765,5.296875 -4.0313,1.875 -7.0313,1.875 -1.7109,0 -2.9765,-0.375 -1.2657,-0.375 -1.9922,-1.265625 -0.7031,-0.914063 -0.8672,-2.414063 -0.1641,-1.523437 0.2812,-3.796875 0.1172,-0.585937 0.5157,-1.617187 0.4218,-1.03125 0.8672,-2.15625 0.4687,-1.125 0.8671,-2.15625 0.3985,-1.03125 0.5391,-1.640625 0.1406,-0.796875 0.2344,-1.3125 0.094,-0.539063 0.1875,-0.914063 0.094,-0.539062 0.3281,-1.054687 0.2578,-0.539063 0.75,-0.960938 0.4922,-0.421875 1.3125,-0.679687 0.8203,-0.28125 2.0625,-0.28125 0.3984,0 0.75,0.140625 0.3516,0.140625 0.5859,0.398437 0.2344,0.234375 0.3516,0.585938 0.1406,0.328125 0.047,0.75 -0.1875,0.890625 -0.7969,2.296875 -0.5859,1.382812 -1.2891,2.90625 -0.7031,1.5 -1.3359,2.929687 -0.6094,1.429688 -0.7969,2.390625 -0.375,1.851563 0.07,2.765625 0.4688,0.890625 2.086,0.890625 2.414,0 5.8359,-1.5 3.4453,-1.5 7.9219,-4.664062 0.2109,-0.164063 0.5156,-0.351563 0.3047,-0.210937 0.7266,-0.210937 0.1172,0 0.3515,0.04687 0.2344,0.02344 0.4454,0.140625 0.2109,0.117187 0.3281,0.375 0.1406,0.234375 0.047,0.632812 -0.047,0.234375 -0.1407,0.585938 -0.094,0.328125 -0.3047,0.726562 -0.1875,0.375 -0.5625,0.796875 -0.3515,0.421875 -0.9375,0.820313 z"
         style="font-style:italic;font-variant:normal;font-weight:bold;font-stretch:normal;font-size:48px;font-family:'Segoe Script';-inkscape-font-specification:'Segoe Script Bold Italic';fill:#ffffff;fill-opacity:1;stroke:#000036;stroke-width:1.70995116;stroke-miterlimit:4;stroke-dasharray:none;stroke-opacity:1"
         id="path6058"
         inkscape:connector-curvature="0" />
      <path
         d="m 1050.4434,69.31206 q 0.2109,-1.03125 -0.024,-1.453125 -0.2344,-0.421875 -0.6328,-0.421875 -0.3516,0 -0.9141,0.421875 -0.539,0.421875 -1.1953,1.148437 -0.6328,0.703125 -1.3359,1.664063 -0.7031,0.9375 -1.3594,1.992187 -0.6328,1.054688 -1.1484,2.179688 -0.5156,1.101562 -0.8203,2.132812 0.7734,-0.5625 1.4062,-1.007812 0.6563,-0.46875 1.2656,-0.984375 0.586,-0.492188 1.336,-1.195313 0.7734,-0.726562 1.4765,-1.5 0.7266,-0.773437 1.2657,-1.546875 0.539,-0.773437 0.6797,-1.429687 z m 17.6718,2.53125 q -0.023,0.1875 -0.2578,0.585937 -0.2109,0.398438 -0.6562,0.9375 -1.1953,1.453125 -2.9063,3.164063 -1.7109,1.710937 -3.7031,3.421875 -1.9922,1.6875 -4.1953,3.28125 -2.2031,1.570312 -4.3828,2.789062 -2.1797,1.21875 -4.2657,1.96875 -2.0625,0.726563 -3.7968,0.726563 -2.2032,0 -3.7266,-0.609375 -1.5,-0.609375 -2.3437,-1.757813 -0.8438,-1.171875 -1.0547,-2.835937 -0.211,-1.6875 0.2109,-3.820313 0.3281,-1.617187 0.9375,-3.421875 0.6094,-1.804687 1.6406,-3.65625 1.0313,-1.875 2.5078,-3.75 1.5,-1.898437 3.586,-3.65625 1.6172,-1.359375 3.3047,-2.0625 1.6875,-0.703125 3.0937,-0.703125 0.2578,0 0.6328,0.117188 0.375,0.09375 0.7266,0.28125 0.375,0.1875 0.6797,0.445312 0.3281,0.257813 0.5156,0.5625 0.5391,0.960938 0.75,1.828125 0.2109,0.84375 0,1.921875 -0.3516,1.6875 -1.1016,3.046875 -0.7265,1.359375 -1.7812,2.554688 -1.0313,1.171875 -2.3672,2.273437 -1.3125,1.101563 -2.8125,2.296875 -0.9141,0.726563 -2.25,1.59375 -1.3125,0.84375 -2.8359,1.851563 0.047,0.726562 0.2109,1.265625 0.1875,0.515625 0.5391,0.867187 0.3515,0.351563 0.914,0.539063 0.5625,0.164062 1.3828,0.164062 1.1016,0 2.4375,-0.375 1.336,-0.375 2.7188,-0.960937 1.1953,-0.515625 2.4141,-1.289063 1.2421,-0.796875 2.5312,-1.640625 0.7734,-0.515625 2.0391,-1.476562 1.2656,-0.984375 2.5781,-2.039063 0.8906,-0.703125 1.7578,-1.359375 0.8906,-0.679687 1.8984,-1.5 l 1.4766,-1.21875 q 1.5938,-1.101562 2.4375,-1.101562 0.4453,0 0.4922,0.257812 0.07,0.257813 0.023,0.492188 z"
         style="font-style:italic;font-variant:normal;font-weight:bold;font-stretch:normal;font-size:48px;font-family:'Segoe Script';-inkscape-font-specification:'Segoe Script Bold Italic';fill:#ffffff;fill-opacity:1;stroke:#000036;stroke-width:1.70995116;stroke-miterlimit:4;stroke-dasharray:none;stroke-opacity:1"
         id="path6060"
         inkscape:connector-curvature="0" />
      <path
         d="m 1087.0996,69.921435 q -0.1875,0.796875 -0.5625,1.335937 -0.375,0.539063 -0.8672,0.867188 -0.4687,0.304687 -1.0078,0.445312 -0.5391,0.117188 -1.0547,0.117188 -0.4219,0 -0.8203,-0.117188 -0.3984,-0.117187 -0.8437,-0.117187 -0.75,0 -1.9454,0.46875 -1.1718,0.445312 -2.4609,1.171875 -1.2891,0.726562 -2.5781,1.617187 -1.2656,0.890625 -2.25,1.757813 -0.5391,0.492187 -1.2656,1.195312 -0.7266,0.679688 -1.4063,1.429688 -0.6562,0.75 -1.1719,1.5 -0.5156,0.75 -0.6328,1.359375 -0.164,0.75 -0.2109,1.757812 -0.047,1.007813 -0.2813,2.132813 -0.07,0.398437 -0.164,0.75 -0.07,0.328125 -0.2344,0.65625 -0.094,0.28125 -0.4219,0.632812 -0.3047,0.328125 -0.75,0.632813 -0.4219,0.328125 -0.914,0.539062 -0.4922,0.210938 -0.961,0.210938 -0.7734,0 -1.1953,-0.5625 -0.4219,-0.5625 -0.5391,-1.570313 -0.1171,-1.007812 0,-2.367187 0.1407,-1.359375 0.4688,-2.929688 0,-0.09375 0.1172,-0.632812 0.1406,-0.539063 0.2578,-1.171875 0.1406,-0.632813 0.2812,-1.21875 0.1407,-0.585938 0.1875,-0.75 0.024,-0.09375 0.1407,-0.609375 0.1406,-0.515625 0.3515,-1.242188 0.211,-0.75 0.4453,-1.59375 0.2344,-0.867187 0.4454,-1.640625 0.2109,-0.773437 0.375,-1.359375 0.164,-0.609375 0.2343,-0.796875 0.024,-0.07031 0.1407,-0.46875 0.1171,-0.421875 0.2812,-0.960937 0.1641,-0.539063 0.375,-1.101563 0.2109,-0.5625 0.375,-0.9375 0.1641,-0.328125 0.5391,-0.773437 0.3984,-0.445313 0.9375,-0.84375 0.539,-0.421875 1.1484,-0.703125 0.6328,-0.304688 1.2656,-0.304688 0.75,0 1.1485,0.234375 0.4218,0.234375 0.6093,0.585938 0.211,0.328125 0.211,0.726562 0.023,0.375 -0.024,0.679688 -0.047,0.1875 -0.3281,0.84375 -0.2578,0.632812 -0.6562,1.40625 -0.4688,1.03125 -0.961,2.414062 -0.4922,1.359375 -0.8672,2.625 1.5938,-1.453125 3.3516,-2.929687 1.7813,-1.5 3.6094,-2.695313 1.8515,-1.21875 3.6562,-1.96875 1.8282,-0.773437 3.4922,-0.773437 0.8203,0 1.4063,0.28125 0.6093,0.257812 0.9843,0.703125 0.375,0.421875 0.5157,0.960937 0.1406,0.515625 0.023,1.054688 v 0.04687 z"
         style="font-style:italic;font-variant:normal;font-weight:bold;font-stretch:normal;font-size:48px;font-family:'Segoe Script';-inkscape-font-specification:'Segoe Script Bold Italic';fill:#ffffff;fill-opacity:1;stroke:#000036;stroke-width:1.70995116;stroke-miterlimit:4;stroke-dasharray:none;stroke-opacity:1"
         id="path6062"
         inkscape:connector-curvature="0" />
      <path
         d="m 1111.1699,71.702685 q -0.164,0.796875 -1.0781,1.359375 -0.8906,0.539062 -2.7188,0.9375 -0.8203,0.1875 -1.5703,0.398437 -0.75,0.1875 -1.5468,0.539063 -0.7735,0.351562 -1.6875,0.9375 -0.8907,0.585937 -2.0391,1.546875 -1.5,1.265625 -2.7656,2.695312 -1.2657,1.40625 -2.3438,3.023438 -1.0547,1.59375 -1.9453,3.421875 -0.8906,1.804687 -1.6172,3.867187 -0.1172,0.164063 -0.2344,0.28125 -0.094,0.117188 -0.164,0.1875 -0.07,0.09375 -0.1172,0.140625 -0.4922,0.445313 -1.0313,0.632813 -0.539,0.1875 -1.2421,0.1875 -0.9141,0 -1.336,-0.515625 -0.3984,-0.492188 -0.4922,-1.195313 -0.094,-0.679687 0,-1.40625 0.094,-0.726562 0.1875,-1.195312 0.1172,-0.492188 0.375,-1.429688 0.2813,-0.9375 0.586,-1.992187 0.3047,-1.078125 0.5859,-2.15625 0.3047,-1.101563 0.4688,-1.921875 0.1406,-0.609375 0.3046,-1.640625 0.1641,-1.03125 0.3516,-2.203125 0.2109,-1.171875 0.3984,-2.320313 0.211,-1.148437 0.375,-1.945312 0.1172,-0.632813 0.4688,-1.195313 0.375,-0.5625 0.8437,-0.960937 0.4922,-0.421875 1.0547,-0.65625 0.586,-0.257813 1.1485,-0.257813 0.6797,0 1.1484,0.257813 0.4922,0.257812 0.7734,0.679687 0.2813,0.421875 0.3516,0.960938 0.094,0.515625 -0.023,1.078125 -0.047,0.257812 -0.211,0.84375 -0.1406,0.5625 -0.3515,1.289062 -0.1875,0.703125 -0.4219,1.476563 -0.2344,0.773437 -0.4453,1.429687 -0.1875,0.632813 -0.3516,1.101563 -0.164,0.445312 -0.2344,0.539062 1.4766,-2.039062 3.0938,-3.75 1.6406,-1.734375 3.375,-2.953125 1.7578,-1.242187 3.5391,-1.921875 1.8046,-0.703125 3.5859,-0.703125 0.5391,0 1.125,0.140625 0.5859,0.117188 1.0312,0.421875 0.4688,0.304688 0.7032,0.773438 0.2343,0.46875 0.094,1.171875 z"
         style="font-style:italic;font-variant:normal;font-weight:bold;font-stretch:normal;font-size:48px;font-family:'Segoe Script';-inkscape-font-specification:'Segoe Script Bold Italic';fill:#ffffff;fill-opacity:1;stroke:#000036;stroke-width:1.70995116;stroke-miterlimit:4;stroke-dasharray:none;stroke-opacity:1"
         id="path6064"
         inkscape:connector-curvature="0" />
      <path
         d="m 1124.7637,68.890185 q 0.07,-0.375 -0.024,-0.609375 -0.094,-0.257813 -0.2578,-0.398438 -0.1406,-0.140625 -0.3047,-0.1875 -0.164,-0.07031 -0.2343,-0.07031 -1.0547,0 -2.1094,0.820312 -1.0313,0.796875 -1.9922,2.0625 -0.9609,1.265625 -1.8047,2.789063 -0.8203,1.523437 -1.4531,2.953125 1.6172,-1.078125 3.0234,-1.992188 1.4063,-0.914062 2.461,-1.78125 1.0781,-0.867187 1.7812,-1.734375 0.7031,-0.867187 0.9141,-1.851562 z m 9.5625,8.976562 q -0.1641,0.867188 -1.0782,1.96875 -0.8906,1.101563 -2.2734,2.296875 -1.5234,1.289063 -3.2578,2.414063 -1.7344,1.101562 -3.5391,1.921875 -1.7812,0.796875 -3.5625,1.265625 -1.7812,0.445312 -3.375,0.445312 -1.9687,0 -3.375,-0.609375 -1.4062,-0.632812 -2.25,-1.828125 -0.8203,-1.21875 -1.0312,-3.023437 -0.1875,-1.804688 0.2812,-4.148438 0.2813,-1.40625 0.8438,-2.859375 0.5625,-1.453125 1.3594,-2.882812 0.7968,-1.453125 1.8281,-2.789063 1.0547,-1.359375 2.2969,-2.554687 0.7734,-0.75 1.7343,-1.5 0.961,-0.773438 2.0625,-1.382813 1.1016,-0.609375 2.3672,-0.984375 1.2656,-0.398437 2.6485,-0.398437 1.125,0 1.9218,0.421875 0.7969,0.398437 1.2657,1.03125 0.4921,0.632812 0.6562,1.429687 0.1875,0.796875 0.023,1.570313 -0.375,1.828125 -1.4765,3.421875 -1.1016,1.570312 -2.7891,3.023437 -1.6875,1.429688 -3.9609,2.8125 -2.25,1.382813 -4.9219,2.835938 -0.1406,0.04687 -0.4219,0.210937 -0.2578,0.164063 -0.2812,0.210938 -0.07,0.46875 0.023,1.007812 0.1172,0.539063 0.4688,1.007813 0.3515,0.46875 0.9843,0.796875 0.6329,0.304687 1.5938,0.304687 1.4766,0 3.0469,-0.398437 1.5937,-0.421875 3.1875,-1.195313 1.6172,-0.773437 3.2109,-1.875 1.6172,-1.101562 3.1172,-2.484375 0.5859,-0.539062 1.0781,-0.773437 0.5156,-0.234375 0.9141,-0.234375 0.3984,0 0.6094,0.328125 0.2343,0.328125 0.07,1.195312 z"
         style="font-style:italic;font-variant:normal;font-weight:bold;font-stretch:normal;font-size:48px;font-family:'Segoe Script';-inkscape-font-specification:'Segoe Script Bold Italic';fill:#ffffff;fill-opacity:1;stroke:#000036;stroke-width:1.70995116;stroke-miterlimit:4;stroke-dasharray:none;stroke-opacity:1"
         id="path6066"
         inkscape:connector-curvature="0" />
      <path
         d="m 1159.1699,76.038622 q -0.2344,1.078125 -0.9609,1.640625 -0.7031,0.539063 -2.2031,0.539063 -0.2344,0 -0.6329,-0.09375 -0.375,-0.09375 -0.8203,-0.1875 -0.4218,-0.117188 -0.7968,-0.210938 -0.3516,-0.09375 -0.5157,-0.09375 -0.1406,0 -0.3984,0.02344 -0.2578,0.02344 -0.5859,0.04687 -0.3047,0.02344 -0.6329,0.04687 -0.3046,0.02344 -0.539,0.02344 -0.3047,0 -0.9375,-0.04687 -0.6328,-0.04687 -1.336,-0.09375 -0.6796,-0.04687 -1.289,-0.09375 -0.6094,-0.04687 -0.8672,-0.04687 -0.4219,0 -1.3125,0.04687 -0.8672,0.04687 -1.8281,0.09375 -0.961,0.04687 -1.8516,0.09375 -0.8906,0.04687 -1.3359,0.04687 -0.75,0 -1.3594,-0.07031 -0.5859,-0.09375 -0.9844,-0.304688 -0.3984,-0.210937 -0.5625,-0.585937 -0.164,-0.398438 -0.023,-1.03125 0.1172,-0.609375 0.5625,-1.03125 0.4453,-0.421875 1.0547,-0.703125 0.6328,-0.28125 1.3359,-0.445313 0.7266,-0.164062 1.3828,-0.234375 0.6563,-0.09375 1.1953,-0.117187 0.5391,-0.02344 0.7735,-0.02344 0.2812,0 0.7734,0.09375 0.4922,0.07031 0.8672,0.164063 1.6172,0 2.8359,-0.02344 1.2188,-0.02344 2.1328,-0.04687 0.9141,-0.04687 1.5938,-0.09375 0.7031,-0.07031 1.2656,-0.140625 1.0078,-0.140625 2.1094,-0.140625 0.3281,0 0.8203,0.140625 0.4922,0.140625 0.9844,0.351563 0.4922,0.1875 0.9375,0.421875 0.4687,0.210937 0.6797,0.375 0.1406,0.09375 0.2578,0.304687 0.1172,0.1875 0.164,0.445313 0.07,0.234375 0.07,0.492187 0,0.257813 -0.024,0.46875 z"
         style="font-style:italic;font-variant:normal;font-weight:bold;font-stretch:normal;font-size:48px;font-family:'Segoe Script';-inkscape-font-specification:'Segoe Script Bold Italic';fill:#ffffff;fill-opacity:1;stroke:#000036;stroke-width:1.70995116;stroke-miterlimit:4;stroke-dasharray:none;stroke-opacity:1"
         id="path6068"
         inkscape:connector-curvature="0" />
      <path
         d="m 1212.4668,54.68706 q -0.07,0.351562 -0.2109,0.539062 -0.1172,0.164063 -0.3047,0.375 -0.1875,0.210938 -0.4219,0.539063 -0.2344,0.328125 -0.5156,0.960937 -0.2578,0.65625 -0.4922,1.148438 -0.2344,0.492187 -0.4219,0.9375 -0.1641,0.445312 -0.3281,0.914062 -0.1406,0.445313 -0.2578,1.054688 -0.211,1.054687 -0.4688,2.085937 -0.2578,1.03125 -0.5859,2.15625 -0.3047,1.101563 -0.6797,2.320313 -0.375,1.195312 -0.8203,2.601562 -0.6328,1.992188 -1.3125,4.21875 -0.6797,2.226563 -1.1485,4.59375 -0.1171,0.632813 -0.3046,1.476563 -0.1641,0.84375 -0.3282,1.804687 -0.1406,0.960938 -0.2812,1.96875 -0.1406,0.984375 -0.211,1.921875 0.094,0.117188 0.1641,0.164063 0.07,0.02344 0.2109,0.140625 0.75,0.539062 1.0313,0.9375 0.3047,0.398437 0.1641,1.078125 -0.094,0.492187 -0.5157,1.03125 -0.3984,0.5625 -1.0078,1.03125 -0.5859,0.46875 -1.3125,0.773437 -0.7031,0.304688 -1.3828,0.304688 -1.3594,0 -2.0859,-0.84375 -0.7032,-0.84375 -0.961,-2.15625 -0.2343,-1.335938 -0.1172,-2.953125 0.1407,-1.640625 0.4688,-3.234375 l 0.1641,-0.820313 q 0.1171,-0.65625 0.5156,-1.992187 0.3984,-1.335938 0.9375,-3.046875 0.539,-1.710938 1.1719,-3.632813 0.6328,-1.921875 1.2656,-3.75 0.6562,-1.851562 1.2187,-3.445312 0.5625,-1.59375 0.961,-2.625 -0.3516,0.351562 -1.0078,1.03125 -0.6329,0.65625 -1.4297,1.476562 -0.7735,0.820313 -1.6407,1.734375 -0.8671,0.914063 -1.6875,1.804688 -0.8203,0.867187 -1.5703,1.640625 -0.7265,0.773437 -1.2187,1.3125 -1.1485,1.21875 -2.2031,2.414062 -1.0547,1.195313 -2.2032,2.460938 -0.07,0.07031 -0.2812,0.304687 -0.1875,0.234375 -0.4453,0.539063 -0.2344,0.28125 -0.4922,0.5625 -0.2344,0.28125 -0.3985,0.421875 -2.0859,2.203125 -4.1718,2.765625 -1.1953,-0.398438 -1.875,-0.867188 -0.6563,-0.46875 -1.0313,-1.007812 -0.375,-0.5625 -0.5859,-1.21875 -0.211,-0.65625 -0.5156,-1.382813 -0.3047,-0.796875 -0.5625,-1.453125 -0.2344,-0.65625 -0.3985,-1.171875 -0.3984,-1.101562 -0.7031,-2.320312 -0.2813,-1.21875 -0.4922,-2.484375 -0.1172,-1.054688 -0.2344,-1.804688 -0.094,-0.75 -0.164,-1.40625 -0.07,-0.65625 -0.1641,-1.335937 -0.07,-0.679688 -0.1406,-1.59375 -0.07,0.164062 -0.3516,0.796875 -0.2578,0.632812 -0.6562,1.570312 -0.3985,0.9375 -0.8907,2.085938 -0.4921,1.148437 -0.9843,2.34375 -0.4922,1.195312 -0.9844,2.34375 -0.4688,1.125 -0.8438,2.039062 -0.375,0.914063 -0.6328,1.523438 -0.2578,0.585937 -0.3047,0.703125 -0.8437,1.875 -1.1953,3.5625 -0.07,0.351562 -0.2343,1.101562 -0.1641,0.726563 -0.3516,1.570313 -0.1875,0.820312 -0.375,1.59375 -0.1641,0.773437 -0.2344,1.195312 -0.07,0.351563 -0.3984,0.867188 -0.3047,0.515625 -0.7735,0.984375 -0.4687,0.46875 -1.0312,0.820312 -0.5625,0.328125 -1.1016,0.328125 -0.7734,0 -1.3359,-0.07031 -0.5391,-0.07031 -0.9141,-0.28125 -0.3515,-0.210938 -0.5859,-0.609375 -0.2109,-0.398438 -0.3516,-1.03125 -0.047,-0.210938 -0.047,-0.445313 0,-0.257812 0.023,-0.632812 0.047,-0.375 0.1406,-0.914063 0.1172,-0.5625 0.2813,-1.40625 0.047,-0.257812 0.375,-1.03125 0.3515,-0.796875 0.8203,-1.898437 0.4922,-1.101563 1.0781,-2.367188 0.5859,-1.289062 1.1719,-2.507812 0.5859,-1.242188 1.1015,-2.320313 0.5157,-1.101562 0.8438,-1.78125 0.5625,-1.171875 1.1484,-2.4375 0.6094,-1.265625 1.1953,-2.554687 0.6094,-1.289063 1.1954,-2.554688 0.6093,-1.289062 1.125,-2.4375 0.375,-1.171875 0.6093,-1.710937 0.2813,-0.632813 0.6563,-1.335938 0.375,-0.726562 0.8203,-1.3125 0.4687,-0.609375 1.0312,-1.007812 0.5625,-0.398438 1.2188,-0.398438 1.8984,0 2.9531,0.421875 1.0547,0.421875 1.5703,1.3125 0.5157,0.867188 0.6328,2.25 0.1172,1.382813 0.1641,3.328125 0,0.539063 0.07,0.960938 0.094,0.398437 0.1875,0.890625 0.3047,2.4375 0.961,4.851562 0.6562,2.390625 1.6875,4.734375 0.7031,-0.492187 1.3593,-1.242187 0.6563,-0.773438 1.5,-1.875 0.7266,-0.960938 1.4297,-1.804688 0.7266,-0.867187 1.5938,-1.640625 0.3047,-0.28125 1.0078,-0.960937 0.7031,-0.703125 1.6172,-1.617188 0.9375,-0.9375 1.9687,-1.96875 1.0313,-1.03125 1.9219,-1.945312 0.9141,-0.9375 1.6172,-1.640625 0.7265,-0.726563 1.0078,-1.03125 0.3281,-0.304688 0.4922,-0.46875 0.1875,-0.1875 0.4453,-0.421875 0.3281,-0.375 1.0547,-1.148438 0.75,-0.773437 1.5703,-1.640625 0.8203,-0.867187 1.5703,-1.640625 0.75,-0.796875 1.125,-1.195312 0.4219,-0.492188 1.3359,-0.492188 0.4922,0 0.9844,0.304688 0.5156,0.28125 0.9141,0.703125 0.3984,0.421875 0.6094,0.890625 0.2343,0.46875 0.164,0.820312 z"
         style="font-style:italic;font-variant:normal;font-weight:bold;font-stretch:normal;font-size:48px;font-family:'Segoe Script';-inkscape-font-specification:'Segoe Script Bold Italic';fill:#ffffff;fill-opacity:1;stroke:#000036;stroke-width:1.70995116;stroke-miterlimit:4;stroke-dasharray:none;stroke-opacity:1"
         id="path6070"
         inkscape:connector-curvature="0" />
      <path
         d="m 1231.0527,68.022997 q 0.024,-0.07031 0.024,-0.257812 0,-0.210938 -0.024,-0.328125 -0.7968,0.09375 -1.8281,0.609375 -1.0078,0.492187 -2.2969,1.523437 -1.2656,1.03125 -2.8125,2.671875 -1.5468,1.617188 -3.3515,3.960938 -0.4688,0.632812 -1.0313,1.382812 -0.539,0.726563 -1.0547,1.570313 -0.4922,0.84375 -0.8906,1.804687 -0.3984,0.9375 -0.6094,1.992188 -0.094,0.398437 0.094,0.609375 0.1875,0.1875 0.4219,0.1875 0.539,0 1.5,-0.609375 0.9843,-0.632813 2.1796,-1.664063 1.2188,-1.03125 2.5313,-2.34375 1.3125,-1.335937 2.4609,-2.71875 1.1719,-1.40625 2.1094,-2.765625 0.9609,-1.382812 1.4297,-2.484375 0.1406,-0.351562 0.3281,-0.820312 0.1875,-0.46875 0.3516,-0.914063 0.1875,-0.46875 0.3047,-0.84375 0.1172,-0.375 0.164,-0.5625 z m 18.3282,2.953125 q -0.094,0.421875 -0.3282,0.890625 -0.2343,0.46875 -0.5625,0.9375 -0.3047,0.46875 -0.6797,0.9375 -0.375,0.46875 -0.75,0.867188 -1.7343,1.828125 -3.6093,3.445312 -1.875,1.59375 -3.7266,3 -1.0078,0.75 -2.0156,1.359375 -1.0078,0.609375 -1.9922,1.054688 -0.9844,0.445312 -1.875,0.679687 -0.8906,0.234375 -1.6172,0.234375 -0.8906,0 -1.5937,-0.5625 -0.7032,-0.5625 -1.1485,-1.40625 -0.4453,-0.867187 -0.6328,-1.851562 -0.1641,-0.984375 0.023,-1.828125 -0.375,0.421875 -1.0546,1.125 -0.6797,0.703125 -1.4063,1.429687 -0.7266,0.726563 -1.3594,1.335938 -0.6328,0.585937 -0.8906,0.84375 -0.9141,0.796875 -2.0625,1.640625 -1.1484,0.84375 -2.2734,1.523437 -1.1016,0.679688 -2.0391,1.125 -0.9141,0.421875 -1.3594,0.421875 -1.0312,0 -1.9218,-0.328125 -0.8907,-0.328125 -1.5235,-0.9375 -0.6094,-0.632812 -0.8672,-1.546875 -0.2578,-0.914062 -0.023,-2.085937 0.2344,-1.148438 0.8203,-2.507813 0.5859,-1.382812 1.4297,-2.859375 0.8437,-1.5 1.9219,-3.023437 1.0781,-1.523438 2.2734,-2.953125 1.1953,-1.453125 2.4609,-2.742188 1.2657,-1.289062 2.5313,-2.296875 2.2266,-1.78125 4.5,-2.625 2.2734,-0.84375 4.5234,-0.84375 0.586,0 0.9375,0.164063 0.375,0.164062 0.6094,0.445312 0.2344,0.257813 0.3516,0.609375 0.1406,0.351563 0.2343,0.703125 0.07,0.164063 0.2813,0.46875 0.2109,0.28125 0.4219,0.632813 0.2109,0.351562 0.3515,0.703125 0.1407,0.351562 0.094,0.632812 -0.094,0.492188 -0.3516,1.078125 -0.2578,0.5625 -0.5625,1.3125 -0.3047,0.75 -0.6328,1.710938 -0.3281,0.9375 -0.5859,2.179687 -0.1407,0.703125 -0.2344,1.640625 -0.07,0.9375 -0.023,1.757813 0.047,0.820312 0.2578,1.40625 0.2109,0.5625 0.6093,0.5625 0.4922,0 0.8907,-0.09375 0.3984,-0.117188 0.7968,-0.304688 0.3985,-0.210937 0.8204,-0.492187 0.4218,-0.28125 0.9375,-0.609375 1.664,-1.054688 3.3984,-2.4375 1.7578,-1.382813 3.5625,-2.835938 0.5156,-0.398437 1.0547,-0.890625 0.5625,-0.492187 1.125,-0.914062 0.5625,-0.421875 1.0781,-0.703125 0.5391,-0.28125 0.9609,-0.28125 0.6563,0 0.4454,1.101562 z"
         style="font-style:italic;font-variant:normal;font-weight:bold;font-stretch:normal;font-size:48px;font-family:'Segoe Script';-inkscape-font-specification:'Segoe Script Bold Italic';fill:#ffffff;fill-opacity:1;stroke:#000036;stroke-width:1.70995116;stroke-miterlimit:4;stroke-dasharray:none;stroke-opacity:1"
         id="path6072"
         inkscape:connector-curvature="0" />
      <path
         d="m 1269.0449,70.741747 q -0.047,0.210938 -0.2109,0.5625 -0.1641,0.351563 -0.4219,0.703125 -0.2578,0.351563 -0.6094,0.609375 -0.3281,0.257813 -0.7734,0.28125 -0.094,0 -0.3984,0 -0.2813,-0.02344 -0.6329,-0.04687 -0.3515,-0.02344 -0.6562,-0.02344 -0.3047,-0.02344 -0.4453,-0.02344 -3.961,0.210938 -7.336,2.8125 -0.7734,0.585938 -1.6171,1.382813 -0.8438,0.796875 -1.711,1.757812 -0.8672,0.9375 -1.6875,2.015625 -0.8203,1.078125 -1.5469,2.25 -0.5859,0.960938 -1.1718,1.992188 -0.586,1.007812 -1.0782,2.132812 -0.2812,0.609375 -0.4687,1.078125 -0.1641,0.445313 -0.4688,1.054688 -0.2109,0.375 -0.539,0.632812 -0.3281,0.28125 -0.75,0.445313 -0.3985,0.1875 -0.8438,0.28125 -0.4218,0.09375 -0.8203,0.117187 -1.5,0 -1.8047,-1.359375 -0.2812,-1.359375 0.2578,-4.054687 0.1172,-0.609375 0.2344,-1.148438 0.1406,-0.539062 0.2813,-1.078125 0.1406,-0.5625 0.3047,-1.148437 0.164,-0.609375 0.3984,-1.359375 0.3047,-1.101563 0.7734,-2.601563 0.4688,-1.523437 0.961,-3.070312 0.4922,-1.570313 1.0078,-3.023438 0.5156,-1.453125 0.9609,-2.460937 0.5156,-1.242188 1.3125,-1.945313 0.8203,-0.703125 2.1094,-0.703125 0.375,0 0.7266,0.210938 0.3515,0.1875 0.5859,0.46875 0.2578,0.28125 0.3984,0.609375 0.1641,0.328125 0.1172,0.585937 l -0.047,0.421875 q -0.1406,0.65625 -0.4453,1.546875 -0.2812,0.890625 -0.6797,1.898438 -0.3984,0.984375 -0.8203,2.015625 -0.4218,1.007812 -0.8437,1.945312 -0.3985,0.914063 -0.75,1.710938 -0.3281,0.773437 -0.5156,1.289062 1.1718,-1.734375 2.414,-3.328125 1.2656,-1.617187 2.625,-2.976562 1.3594,-1.382813 2.8125,-2.460938 1.4531,-1.078125 3.0235,-1.734375 1.2187,-0.515625 2.2031,-0.773437 1.0078,-0.28125 1.7578,-0.28125 0.8906,0 1.7812,0.1875 0.9141,0.1875 1.6172,0.5625 0.7266,0.351562 1.125,0.867187 0.4219,0.515625 0.3047,1.171875 z"
         style="font-style:italic;font-variant:normal;font-weight:bold;font-stretch:normal;font-size:48px;font-family:'Segoe Script';-inkscape-font-specification:'Segoe Script Bold Italic';fill:#ffffff;fill-opacity:1;stroke:#000036;stroke-width:1.70995116;stroke-miterlimit:4;stroke-dasharray:none;stroke-opacity:1"
         id="path6074"
         inkscape:connector-curvature="0" />
      <path
         d="m 1291.8027,79.671435 q -0.1172,0.515625 -0.3984,0.984375 -0.2578,0.46875 -0.7734,0.9375 -0.4454,0.421875 -0.9141,0.84375 -0.4453,0.398437 -0.9609,0.820312 -0.4922,0.398438 -1.1016,0.820313 -0.6094,0.421875 -1.3828,0.914062 -2.0156,1.265625 -3.7969,2.132813 -1.7578,0.867187 -3.4219,1.429687 -1.6406,0.539063 -3.1875,0.773438 -1.5468,0.234375 -3.0703,0.234375 -1.7109,0 -2.9531,-0.632813 -1.2188,-0.632812 -1.9453,-1.710937 -0.7266,-1.078125 -0.9375,-2.507813 -0.1875,-1.453125 0.1406,-3.046875 0.3047,-1.570312 1.0313,-3.257812 0.75,-1.710938 1.8046,-3.398438 1.0547,-1.710937 2.3672,-3.351562 1.336,-1.640625 2.8594,-3.117188 0.6094,-0.609375 1.4531,-1.289062 0.8672,-0.679688 1.8282,-1.242188 0.9843,-0.585937 1.9921,-0.960937 1.0313,-0.375 1.9454,-0.375 0.6562,0 1.1718,0.304687 0.5157,0.304688 0.9141,0.796875 0.4219,0.492188 0.6797,1.125 0.2578,0.609375 0.3984,1.265625 0.1641,0.65625 0.1875,1.289063 0.024,0.609375 -0.07,1.078125 -0.094,0.375 -0.3281,0.9375 -0.2344,0.5625 -0.6094,1.101562 -0.375,0.515625 -0.8672,0.890625 -0.4922,0.351563 -1.1015,0.351563 -0.5391,0 -0.8438,-0.1875 -0.3047,-0.1875 -0.4922,-0.539063 -0.164,-0.375 -0.2344,-0.890625 -0.07,-0.539062 -0.1406,-1.21875 -0.07,-0.609375 -0.2578,-0.796875 -0.1875,-0.210937 -0.4687,-0.328125 -0.5391,0.234375 -1.2891,0.867188 -0.75,0.632812 -1.5703,1.546875 -0.8203,0.914062 -1.6641,2.0625 -0.8437,1.148437 -1.5703,2.414062 -0.7031,1.265625 -1.2656,2.601563 -0.5391,1.3125 -0.7969,2.578125 -0.094,0.515625 0,1.078125 0.094,0.539062 0.3516,1.007812 0.2812,0.46875 0.75,0.773438 0.4687,0.304687 1.1484,0.304687 6.4922,0 13.0781,-4.640625 2.1797,-1.523437 3.6094,-1.523437 0.4219,0 0.5859,0.257812 0.1641,0.257813 0.1172,0.492188 z"
         style="font-style:italic;font-variant:normal;font-weight:bold;font-stretch:normal;font-size:48px;font-family:'Segoe Script';-inkscape-font-specification:'Segoe Script Bold Italic';fill:#ffffff;fill-opacity:1;stroke:#000036;stroke-width:1.70995116;stroke-miterlimit:4;stroke-dasharray:none;stroke-opacity:1"
         id="path6076"
         inkscape:connector-curvature="0" />
      <path
         d="m 1340.3184,86.726122 q -0.3282,0.351563 -0.75,0.609375 -0.4219,0.257813 -0.8907,0.445313 -0.4453,0.164062 -0.8906,0.257812 -0.4453,0.07031 -0.7969,0.07031 h -3.539 q -1.0782,0 -2.4375,0.1875 -1.336,0.1875 -2.7188,0.46875 -1.3828,0.28125 -2.789,0.632812 -1.3829,0.351563 -2.6016,0.65625 -2.0156,0.539063 -3.75,0.9375 -1.7109,0.398438 -2.9063,0.398438 -1.0312,0 -1.7109,-0.28125 -0.6797,-0.257813 -1.0547,-0.726563 -0.3515,-0.445312 -0.4453,-1.03125 -0.094,-0.585937 0.023,-1.21875 0.2344,-1.171875 0.8438,-2.859375 0.6328,-1.710937 1.3828,-3.539062 0.1875,-0.492188 0.7031,-1.898438 0.5391,-1.429687 1.2188,-3.304687 0.7031,-1.875 1.4765,-4.007813 0.7735,-2.132812 1.4532,-4.054687 0.7031,-1.921875 1.1953,-3.421875 0.5156,-1.523438 0.7265,-2.15625 0.3516,-1.148438 0.6094,-2.179688 0.2578,-1.03125 0.5391,-1.875 0.2812,-0.867187 0.5859,-1.546875 0.3281,-0.679687 0.8203,-1.148437 0.4922,-0.492188 1.1719,-0.726563 0.6797,-0.257812 1.6641,-0.257812 0.8906,0 1.3828,0.304687 0.5156,0.304688 0.7265,0.796875 0.2344,0.492188 0.2344,1.125 0.024,0.609375 -0.1172,1.242188 -0.047,0.234375 -0.3515,1.101562 -0.3047,0.84375 -0.7969,2.109375 -0.4922,1.242188 -1.1016,2.789063 -0.5859,1.523437 -1.2187,3.117187 -0.6094,1.59375 -1.1953,3.117188 -0.5625,1.523437 -1.0313,2.742187 -0.3984,1.125 -0.9609,2.4375 -0.5625,1.3125 -1.0547,2.648438 -0.3516,0.984375 -0.7266,1.992187 -0.375,0.984375 -0.7031,1.875 -0.3281,0.890625 -0.5625,1.640625 -0.2109,0.726563 -0.3047,1.195313 -0.047,0.257812 -0.047,0.492187 0,0.210938 0.1407,0.210938 0.4922,0 1.3125,-0.140625 0.8203,-0.164063 1.8047,-0.398438 0.9843,-0.234375 2.039,-0.515625 1.0547,-0.28125 1.9453,-0.539062 0.2344,-0.04687 0.8438,-0.164063 0.6094,-0.140625 1.4297,-0.304687 0.8203,-0.164063 1.7343,-0.328125 0.9141,-0.164063 1.711,-0.304688 0.8203,-0.140625 1.4297,-0.210937 0.6328,-0.09375 0.8672,-0.09375 0.3281,0 1.2187,-0.117188 0.8906,-0.117187 2.0625,-0.117187 1.875,0 2.625,0.46875 0.7734,0.445312 0.5391,1.59375 -0.094,0.46875 -0.3516,0.960937 -0.2344,0.46875 -0.6562,0.84375 z"
         style="font-style:italic;font-variant:normal;font-weight:bold;font-stretch:normal;font-size:48px;font-family:'Segoe Script';-inkscape-font-specification:'Segoe Script Bold Italic';fill:#ffffff;fill-opacity:1;stroke:#000036;stroke-width:1.70995116;stroke-miterlimit:4;stroke-dasharray:none;stroke-opacity:1"
         id="path6078"
         inkscape:connector-curvature="0" />
      <path
         d="m 1362.3027,71.327685 q 0.047,-0.210938 0,-0.492188 -0.023,-0.28125 -0.094,-0.515625 -0.07,-0.257812 -0.211,-0.421875 -0.1171,-0.1875 -0.2578,-0.1875 -1.5468,0 -3,0.84375 -1.4531,0.820313 -3.1172,2.25 -0.914,0.773438 -2.0625,2.085938 -1.1484,1.3125 -2.2031,2.789062 -1.0312,1.476563 -1.8281,2.953125 -0.7734,1.476563 -1.0078,2.601563 -0.047,0.28125 -0.07,0.5625 -0.024,0.257812 0.047,0.46875 0.07,0.210937 0.211,0.351562 0.164,0.140625 0.4687,0.140625 0.8907,0 2.1328,-0.5625 1.2422,-0.585937 2.5547,-1.5 1.336,-0.9375 2.625,-2.132812 1.3125,-1.21875 2.2969,-2.484375 1.1953,-1.546875 2.1563,-3.234375 0.9843,-1.6875 1.3593,-3.515625 z m 20.8125,2.414062 q -0.047,0.28125 -0.2343,0.679688 -0.1875,0.375 -0.4219,0.773437 -0.2344,0.375 -0.5156,0.75 -0.2813,0.351563 -0.5157,0.609375 -0.1406,0.164063 -0.4687,0.46875 -0.3047,0.28125 -0.7031,0.65625 -0.3985,0.351563 -0.9141,0.773438 -0.4922,0.421875 -0.9844,0.84375 -1.6172,1.265625 -3.2578,2.507812 -1.6406,1.21875 -3.3516,2.179688 -1.7109,0.9375 -3.4921,1.523437 -1.7813,0.585938 -3.6563,0.585938 -0.7969,0 -1.5469,-0.351563 -0.75,-0.351562 -1.3359,-0.960937 -0.5859,-0.609375 -0.9375,-1.453125 -0.3516,-0.867188 -0.375,-1.851563 -0.5625,0.703125 -1.4063,1.523438 -0.8437,0.796875 -1.8046,1.59375 -0.961,0.796875 -1.9688,1.523437 -1.0078,0.703125 -1.875,1.21875 -0.5859,0.351563 -1.4062,0.726563 -0.7969,0.375 -1.6875,0.703125 -0.8907,0.304687 -1.7579,0.515625 -0.8671,0.1875 -1.5703,0.1875 -1.125,0 -1.8515,-0.632813 -0.7032,-0.65625 -1.0782,-1.59375 -0.3515,-0.9375 -0.4218,-1.992187 -0.047,-1.054688 0.1172,-1.898438 0.3046,-1.546875 1.0781,-3.140625 0.7969,-1.617187 1.8047,-3.140625 1.0312,-1.523437 2.1797,-2.90625 1.1484,-1.382812 2.2265,-2.460937 1.1016,-1.125 2.5547,-2.226563 1.4766,-1.125 3,-1.992187 1.5469,-0.890625 2.9766,-1.429688 1.4297,-0.539062 2.4609,-0.539062 0.5625,0 1.1484,0.04687 0.6094,0.02344 1.1719,0.09375 0.586,0.07031 1.0781,0.210937 0.5157,0.140625 0.8907,0.351563 0.2578,0.1875 0.4922,0.679687 0.2578,0.46875 0.4218,1.03125 0.1875,0.539063 0.2813,1.078125 0.1172,0.539063 0.047,0.84375 -0.1172,0.65625 -0.5157,1.570313 -0.375,0.890625 -0.8203,1.875 -0.4219,0.984375 -0.8437,2.015625 -0.4219,1.03125 -0.6094,1.96875 -0.1406,0.65625 -0.094,1.335937 0.07,0.679688 0.3047,1.242188 0.2344,0.539062 0.6563,0.890625 0.4219,0.351562 1.0312,0.351562 1.3828,0 2.836,-0.515625 1.4765,-0.515625 3.0234,-1.40625 1.5469,-0.914062 3.1406,-2.132812 1.6172,-1.242188 3.2813,-2.671875 0.047,0 0.4453,-0.351563 0.3984,-0.351562 0.9375,-0.773437 0.5391,-0.421875 1.1016,-0.773438 0.5859,-0.351562 0.9609,-0.351562 0.6797,0 0.7969,0.398437 0.1406,0.398438 -0.024,1.21875 z"
         style="font-style:italic;font-variant:normal;font-weight:bold;font-stretch:normal;font-size:48px;font-family:'Segoe Script';-inkscape-font-specification:'Segoe Script Bold Italic';fill:#ffffff;fill-opacity:1;stroke:#000036;stroke-width:1.70995116;stroke-miterlimit:4;stroke-dasharray:none;stroke-opacity:1"
         id="path6080"
         inkscape:connector-curvature="0" />
      <path
         d="m 1403.5762,71.702685 q -0.047,0.234375 -0.3047,0.585937 -0.2578,0.328125 -0.6094,0.679688 -0.3516,0.351562 -0.7969,0.679687 -0.4218,0.304688 -0.7968,0.492188 -0.3985,0.164062 -1.2657,0.398437 -0.8672,0.234375 -1.9922,0.46875 -1.125,0.210938 -2.4375,0.398438 -1.289,0.1875 -2.5078,0.304687 -1.0547,0.09375 -1.8515,0.1875 -0.7735,0.07031 -1.4063,0.140625 -0.6094,0.04687 -1.1484,0.09375 -0.5391,0.02344 -1.1719,0.02344 -0.1406,0.46875 -0.5156,1.570312 -0.3516,1.078125 -0.8203,2.484375 -0.4453,1.382813 -0.961,2.953125 -0.4922,1.546875 -0.9843,2.976563 -0.4922,1.40625 -0.8672,2.554687 -0.375,1.125 -0.586,1.6875 -0.4687,1.289063 -1.0312,2.671875 -0.5391,1.382813 -1.0781,2.320313 -0.7032,1.195312 -1.6172,2.273437 -0.8907,1.101563 -1.9922,2.109375 -2.2266,2.039056 -4.7813,2.039056 -0.5625,0 -1.1015,-0.21093 -0.5391,-0.1875 -0.9141,-0.51563 -0.3984,-0.30469 -0.6094,-0.70312 -0.2109,-0.398438 -0.1172,-0.796876 0.07,-0.375 0.3516,-0.914062 0.2578,-0.515625 0.6563,-0.984375 0.3984,-0.46875 0.8671,-0.820313 0.4688,-0.328125 0.961,-0.328125 0.1406,0 0.3515,0.02344 0.211,0.04687 0.4454,0.09375 0.2343,0.07031 0.4687,0.09375 0.2578,0.04687 0.4453,0.04687 0.4453,-0.28125 0.8438,-0.84375 0.4218,-0.5625 0.7734,-1.265625 0.375,-0.703125 0.7031,-1.5 0.3516,-0.773438 0.6328,-1.523438 0.6329,-1.570312 1.1485,-3 0.539,-1.429687 1.0078,-2.789062 0.4922,-1.359375 0.9141,-2.671875 0.4453,-1.335938 0.8203,-2.695313 0.094,-0.328125 0.2578,-0.820312 0.164,-0.492188 0.3281,-1.054688 0.1641,-0.5625 0.3047,-1.101562 0.1641,-0.5625 0.2578,-1.007813 0.023,-0.164062 -0.1641,-0.398437 -0.1875,-0.234375 -0.4218,-0.539063 -0.211,-0.304687 -0.375,-0.65625 -0.1641,-0.351562 -0.094,-0.726562 0.1875,-0.585938 1.8985,-2.273438 0.7265,-0.726562 1.1015,-1.21875 0.3985,-0.515625 0.6094,-1.03125 0.2109,-0.515625 0.3984,-1.125 0.1875,-0.609375 0.5157,-1.523437 0.4687,-1.335938 0.8671,-2.4375 0.4219,-1.101563 0.8907,-2.085938 0.4687,-1.007812 1.0547,-1.96875 0.5859,-0.960937 1.4062,-2.015625 0.6563,-0.84375 1.5469,-1.710937 0.8906,-0.867188 1.8984,-1.570313 1.0313,-0.703125 2.1094,-1.125 1.0781,-0.445312 2.0859,-0.445312 2.1094,0 3.211,1.382812 1.2422,1.476563 0.8672,3.398438 -0.4688,2.34375 -2.8125,5.015625 -1.4766,1.734375 -2.8594,1.734375 h -0.4219 q 0.5391,-1.148438 0.8672,-2.15625 0.3516,-1.007813 0.5156,-1.851563 0.094,-0.375 0.1641,-0.984375 0.07,-0.632812 0.047,-1.21875 -0.024,-0.585937 -0.1641,-1.007812 -0.1406,-0.445313 -0.4922,-0.445313 -0.2344,0 -0.6328,0.328125 -0.3984,0.328125 -0.8438,0.820313 -0.4218,0.492187 -0.8671,1.078125 -0.4454,0.585937 -0.8204,1.125 -0.4453,0.65625 -1.0312,1.851562 -0.5859,1.171875 -1.1719,2.53125 -0.5625,1.335938 -1.0781,2.695313 -0.4922,1.335937 -0.7969,2.367187 l -0.1875,0.9375 q -0.023,0.140625 0.2813,0.234375 0.3281,0.07031 0.8672,0.117188 0.539,0.04687 1.2421,0.07031 0.7032,0 1.4297,0 1.2188,0 2.3438,-0.04687 1.125,-0.04687 2.2265,-0.140625 1.125,-0.117187 2.2969,-0.28125 1.1719,-0.164062 2.461,-0.398437 0.1875,-0.02344 0.375,-0.02344 0.1875,-0.02344 0.3984,-0.02344 1.1719,0 0.9844,0.9375 z"
         style="font-style:italic;font-variant:normal;font-weight:bold;font-stretch:normal;font-size:48px;font-family:'Segoe Script';-inkscape-font-specification:'Segoe Script Bold Italic';fill:#ffffff;fill-opacity:1;stroke:#000036;stroke-width:1.70995116;stroke-miterlimit:4;stroke-dasharray:none;stroke-opacity:1"
         id="path6082"
         inkscape:connector-curvature="0" />
      <path
         d="m 1431.9824,69.03081 q -0.07,0.445312 -0.4687,0.960937 -0.3985,0.492188 -0.961,1.007813 -0.5625,0.492187 -1.2422,0.984375 -0.6796,0.492187 -1.3593,0.914062 -0.6563,0.398438 -1.2422,0.703125 -0.586,0.304688 -0.9844,0.46875 -0.6797,0.257813 -1.7344,0.492188 -1.0312,0.210937 -2.1562,0.375 -1.1016,0.140625 -2.1563,0.234375 -1.0312,0.09375 -1.7343,0.09375 -0.1641,0 -0.4454,-0.02344 -0.2812,-0.04687 -0.6093,-0.117187 -0.3282,-0.07031 -0.6563,-0.164063 -0.3047,-0.117187 -0.5156,-0.28125 0.1641,0.539063 0.07,1.195313 -0.094,0.632812 -0.2344,1.265625 -0.094,0.445312 -0.3047,1.054687 -0.2109,0.609375 -0.4921,1.242188 -0.2813,0.632812 -0.6094,1.21875 -0.3281,0.585937 -0.6328,0.984375 -0.7969,1.007812 -1.6407,1.851562 -0.8203,0.84375 -1.8046,1.570313 -0.961,0.726562 -2.1094,1.359375 -1.1485,0.632812 -2.6485,1.242187 -1.5703,0.632813 -3.0703,0.890625 -1.5,0.234375 -3.0468,0.234375 -1.1485,0 -1.9219,-0.585937 -0.7735,-0.609375 -1.1953,-1.617188 -0.3985,-1.007812 -0.4453,-2.320312 -0.047,-1.3125 0.2343,-2.742188 0.07,-0.351562 0.2344,-0.867187 0.1641,-0.539063 0.375,-1.078125 0.2109,-0.539063 0.4453,-1.054688 0.2344,-0.515625 0.4219,-0.867187 0.5156,-0.984375 1.3828,-2.25 0.8906,-1.265625 1.9922,-2.578125 1.1016,-1.335938 2.3906,-2.601563 1.2891,-1.289062 2.6485,-2.273437 1.3593,-1.007813 2.7421,-1.617188 1.3829,-0.609375 2.6485,-0.609375 0.539,0 0.8437,0.117188 0.3047,0.09375 0.4688,0.28125 0.1875,0.164062 0.3047,0.398437 0.1406,0.210938 0.3047,0.421875 0.1875,-0.04687 0.3515,-0.07031 0.1875,-0.02344 0.375,-0.02344 0.7266,0 1.3125,0.5625 0.586,0.5625 1.1953,1.242188 0.2578,0.304687 0.5391,0.632812 0.2812,0.304688 0.4922,0.5625 0.2344,0.234375 0.4219,0.398438 0.2109,0.140625 0.3046,0.140625 0.6094,0 1.3125,0 0.7266,-0.02344 1.4766,-0.04687 0.75,-0.04687 1.4531,-0.117188 0.7032,-0.07031 1.2891,-0.164062 0.07,-0.02344 0.6328,-0.140625 0.5625,-0.140625 1.3594,-0.328125 0.7969,-0.210938 1.7344,-0.445313 0.9375,-0.234375 1.7343,-0.421875 0.8203,-0.210937 1.3828,-0.328125 0.586,-0.140625 0.6797,-0.140625 0.4688,0 0.7266,0.117188 0.2578,0.117187 0.1406,0.65625 z m -30.164,15.632812 q 1.8984,0 3.5625,-1.007812 1.664,-1.007813 3,-2.671875 1.3593,-1.6875 2.3203,-3.820313 0.9843,-2.15625 1.4765,-4.429687 -0.094,-0.351563 -0.3515,-0.726563 -0.2344,-0.375 -0.586,-0.65625 -0.3281,-0.304687 -0.7265,-0.492187 -0.375,-0.1875 -0.7266,-0.1875 -0.5625,0 -1.3125,0.445312 -0.7266,0.445313 -1.3828,0.914063 -0.6563,0.46875 -1.3594,1.242187 -0.7031,0.75 -1.3594,1.6875 -0.6562,0.9375 -1.2656,1.992188 -0.6094,1.03125 -1.1015,2.0625 -0.4688,1.007812 -0.8204,1.96875 -0.3515,0.960937 -0.4921,1.710937 -0.07,0.375 -0.024,0.726563 0.047,0.351562 0.1875,0.632812 0.1406,0.28125 0.375,0.445313 0.2578,0.164062 0.586,0.164062 z"
         style="font-style:italic;font-variant:normal;font-weight:bold;font-stretch:normal;font-size:48px;font-family:'Segoe Script';-inkscape-font-specification:'Segoe Script Bold Italic';fill:#ffffff;fill-opacity:1;stroke:#000036;stroke-width:1.70995116;stroke-miterlimit:4;stroke-dasharray:none;stroke-opacity:1"
         id="path6084"
         inkscape:connector-curvature="0" />
      <path
         d="m 1448.7637,71.702685 q -0.1641,0.796875 -1.0782,1.359375 -0.8906,0.539062 -2.7187,0.9375 -0.8203,0.1875 -1.5703,0.398437 -0.75,0.1875 -1.5469,0.539063 -0.7734,0.351562 -1.6875,0.9375 -0.8906,0.585937 -2.0391,1.546875 -1.5,1.265625 -2.7656,2.695312 -1.2656,1.40625 -2.3437,3.023438 -1.0547,1.59375 -1.9453,3.421875 -0.8907,1.804687 -1.6172,3.867187 -0.1172,0.164063 -0.2344,0.28125 -0.094,0.117188 -0.1641,0.1875 -0.07,0.09375 -0.1172,0.140625 -0.4921,0.445313 -1.0312,0.632813 -0.5391,0.1875 -1.2422,0.1875 -0.9141,0 -1.3359,-0.515625 -0.3985,-0.492188 -0.4922,-1.195313 -0.094,-0.679687 0,-1.40625 0.094,-0.726562 0.1875,-1.195312 0.1172,-0.492188 0.375,-1.429688 0.2812,-0.9375 0.5859,-1.992187 0.3047,-1.078125 0.586,-2.15625 0.3046,-1.101563 0.4687,-1.921875 0.1406,-0.609375 0.3047,-1.640625 0.1641,-1.03125 0.3516,-2.203125 0.2109,-1.171875 0.3984,-2.320313 0.2109,-1.148437 0.375,-1.945312 0.1172,-0.632813 0.4687,-1.195313 0.375,-0.5625 0.8438,-0.960937 0.4922,-0.421875 1.0547,-0.65625 0.5859,-0.257813 1.1484,-0.257813 0.6797,0 1.1485,0.257813 0.4921,0.257812 0.7734,0.679687 0.2812,0.421875 0.3516,0.960938 0.094,0.515625 -0.024,1.078125 -0.047,0.257812 -0.2109,0.84375 -0.1406,0.5625 -0.3516,1.289062 -0.1875,0.703125 -0.4219,1.476563 -0.2343,0.773437 -0.4453,1.429687 -0.1875,0.632813 -0.3515,1.101563 -0.1641,0.445312 -0.2344,0.539062 1.4766,-2.039062 3.0937,-3.75 1.6407,-1.734375 3.375,-2.953125 1.7579,-1.242187 3.5391,-1.921875 1.8047,-0.703125 3.5859,-0.703125 0.5391,0 1.125,0.140625 0.586,0.117188 1.0313,0.421875 0.4687,0.304688 0.7031,0.773438 0.2344,0.46875 0.094,1.171875 z"
         style="font-style:italic;font-variant:normal;font-weight:bold;font-stretch:normal;font-size:48px;font-family:'Segoe Script';-inkscape-font-specification:'Segoe Script Bold Italic';fill:#ffffff;fill-opacity:1;stroke:#000036;stroke-width:1.70995116;stroke-miterlimit:4;stroke-dasharray:none;stroke-opacity:1"
         id="path6086"
         inkscape:connector-curvature="0" />
      <path
         d="m 1461.4199,68.960497 q 0.094,-0.515625 0.07,-0.984375 0,-0.46875 -0.2109,-0.585937 -0.7969,0 -1.8281,0.679687 -1.0313,0.679688 -2.1094,1.945313 -1.0781,1.242187 -2.0859,3.023437 -0.9844,1.757813 -1.711,3.914063 1.2656,-0.820313 2.5547,-1.710938 1.2891,-0.914062 2.3906,-1.898437 1.1016,-0.984375 1.8985,-2.0625 0.7968,-1.101563 1.0312,-2.320313 z m 17.4141,4.3125 q -0.07,0.421875 -0.9375,1.546875 -1.5703,1.757813 -3.3985,3.492188 -1.8281,1.710937 -3.8437,3.257812 -1.9922,1.546875 -4.0781,2.882813 -2.086,1.3125 -4.1719,2.273437 -2.0625,0.960938 -4.0313,1.523438 -1.9687,0.539062 -3.75,0.539062 -4.0078,0 -5.8125,-2.25 -1.7812,-2.273437 -0.8671,-6.84375 0.375,-1.828125 0.9843,-3.585937 0.6094,-1.78125 1.5469,-3.492188 0.9609,-1.734375 2.25,-3.398437 1.2891,-1.664063 3,-3.234375 0.6328,-0.585938 1.4297,-1.125 0.8203,-0.539063 1.6875,-0.960938 0.8672,-0.421875 1.7578,-0.679687 0.9141,-0.257813 1.7578,-0.257813 1.2422,0 2.0391,0.46875 0.8203,0.46875 1.2422,1.265625 0.4453,0.773438 0.5156,1.804688 0.07,1.007812 -0.1406,2.132812 -0.4219,2.085938 -2.4141,4.335938 -1.9922,2.226562 -5.2031,4.570312 -1.0547,0.75 -2.4141,1.640625 -1.3359,0.867188 -3,1.96875 -0.07,0.585938 0.1172,1.101563 0.1875,0.515625 0.6094,0.914062 0.4453,0.375 1.1015,0.609375 0.6563,0.210938 1.5469,0.210938 1.1485,0 2.4844,-0.28125 1.3594,-0.304688 2.7187,-0.796875 1.3594,-0.492188 2.6719,-1.125 1.336,-0.65625 2.461,-1.359375 1.9921,-1.242188 3.8671,-2.671875 1.8985,-1.453125 3.7032,-2.953125 l 1.5,-1.242188 q 1.5234,-1.148437 2.4375,-1.148437 0.4687,0 0.5625,0.328125 0.1172,0.304687 0.07,0.539062 z"
         style="font-style:italic;font-variant:normal;font-weight:bold;font-stretch:normal;font-size:48px;font-family:'Segoe Script';-inkscape-font-specification:'Segoe Script Bold Italic';fill:#ffffff;fill-opacity:1;stroke:#000036;stroke-width:1.70995116;stroke-miterlimit:4;stroke-dasharray:none;stroke-opacity:1"
         id="path6088"
         inkscape:connector-curvature="0" />
      <path
         d="m 1499.5527,72.522997 q -0.1406,0.632813 -0.8906,1.59375 -0.75,0.9375 -1.8281,1.992188 -1.0547,1.054687 -2.3438,2.15625 -1.2656,1.078125 -2.4375,2.039062 -0.7031,0.5625 -2.0625,1.570313 -1.3359,0.984375 -3,2.179687 -1.6406,1.195313 -3.4453,2.484375 -1.8047,1.265625 -3.3984,2.367188 -1.5938,1.101562 -2.8125,1.921875 -1.2188,0.820312 -1.711,1.125 -1.6406,0.960937 -3,1.476562 -1.3593,0.515625 -2.3437,0.515625 -0.8203,0 -1.3594,-0.164062 -0.539,-0.140625 -0.8437,-0.398438 -0.2813,-0.234375 -0.375,-0.5625 -0.1172,-0.304687 -0.047,-0.632812 0.1641,-0.820313 0.5859,-1.476563 0.4453,-0.632812 1.1953,-1.195312 0.75,-0.5625 1.8516,-1.078125 1.1016,-0.539063 2.5781,-1.101563 0.961,-0.351562 1.7344,-0.679687 0.7969,-0.328125 1.3828,-0.703125 0.6094,-0.398438 0.9844,-0.890625 0.3984,-0.492188 0.5391,-1.195313 0.023,-0.164062 -0.1172,-0.609375 -0.1172,-0.445312 -0.3516,-1.03125 -0.2344,-0.585937 -0.5391,-1.265625 -0.2812,-0.703125 -0.5859,-1.359375 -0.2812,-0.679687 -0.5391,-1.265625 -0.2578,-0.585937 -0.3984,-0.984375 -0.5859,-1.78125 -0.2344,-3.632812 0.1641,-0.796875 0.4688,-1.640625 0.3281,-0.84375 0.8203,-1.710938 0.5156,-1.078125 1.4062,-2.109375 0.9141,-1.03125 1.9219,-1.828125 1.0078,-0.820312 1.9453,-1.3125 0.961,-0.492187 1.5938,-0.492187 0.8437,0 1.3359,0.164062 0.5156,0.140625 0.75,0.46875 0.2344,0.304688 0.2578,0.796875 0.024,0.46875 -0.1172,1.148438 -0.1171,0.5625 -0.5156,1.101562 -0.375,0.539063 -0.8672,1.007813 -0.4922,0.46875 -1.0312,0.867187 -0.5156,0.398438 -0.8906,0.703125 -0.586,0.445313 -1.125,0.84375 -0.5157,0.375 -0.8204,0.65625 -0.2812,1.476563 0.1875,2.71875 0.211,0.609375 0.5625,1.5 0.3516,0.890625 0.7032,1.828125 0.375,0.914063 0.7031,1.757813 0.3281,0.84375 0.5156,1.335937 0.375,-0.164062 1.125,-0.609375 0.7735,-0.46875 1.7813,-1.101562 1.0312,-0.65625 2.2031,-1.453125 1.1953,-0.796875 2.3906,-1.640625 1.1953,-0.84375 2.3203,-1.664063 1.125,-0.84375 2.0625,-1.59375 0.7735,-0.632812 1.2891,-1.078125 0.5391,-0.46875 0.9141,-0.75 0.375,-0.304687 0.6328,-0.445312 0.2578,-0.164063 0.539,-0.164063 0.3047,0 0.4688,0.234375 0.164,0.210938 0.2109,0.492188 0.07,0.257812 0.07,0.492187 0,0.234375 0,0.28125 z"
         style="font-style:italic;font-variant:normal;font-weight:bold;font-stretch:normal;font-size:48px;font-family:'Segoe Script';-inkscape-font-specification:'Segoe Script Bold Italic';fill:#ffffff;fill-opacity:1;stroke:#000036;stroke-width:1.70995116;stroke-miterlimit:4;stroke-dasharray:none;stroke-opacity:1"
         id="path6090"
         inkscape:connector-curvature="0" />
      <path
         d="m 1517.1074,68.140185 q -0.1172,0.585937 -0.539,0.984375 -0.4219,0.375 -0.961,0.609375 -0.539,0.234375 -1.125,0.351562 -0.5625,0.09375 -1.0547,0.140625 -1.7812,0.117188 -3.5859,0.328125 -1.7813,0.1875 -3.2344,0.375 -1.4531,0.164063 -2.3906,0.304688 -0.9375,0.117187 -1.0078,0.117187 -0.3047,0.632813 -0.75,1.59375 -0.4219,0.960938 -0.9141,2.085938 -0.4922,1.101562 -0.9844,2.273437 -0.4921,1.148438 -0.9375,2.203125 -0.4218,1.054688 -0.7265,1.921875 -0.3047,0.84375 -0.3985,1.335938 -0.07,0.398437 -0.1171,1.007812 -0.024,0.585938 0.07,1.148438 0.094,0.5625 0.3515,0.984375 0.2813,0.398437 0.8203,0.398437 0.375,0 0.961,-0.164062 0.5859,-0.164063 1.3125,-0.515625 0.75,-0.351563 1.5937,-0.890625 0.8672,-0.5625 1.7813,-1.359375 0.2812,-0.257813 0.6328,-0.539063 0.375,-0.28125 0.7734,-0.492187 0.3985,-0.234375 0.8203,-0.375 0.4454,-0.164063 0.8907,-0.164063 0.7031,0 0.8906,0.304688 0.2109,0.304687 0.1172,0.773437 -0.1875,0.9375 -0.8906,1.710938 -0.6797,0.773437 -1.6875,1.734375 -0.4688,0.445312 -1.4297,1.21875 -0.961,0.75 -2.2266,1.5 -1.2656,0.726562 -2.7422,1.265625 -1.4765,0.5625 -3,0.5625 -1.4765,0 -2.414,-0.398438 -0.9375,-0.375 -1.5,-1.007812 -0.5391,-0.609375 -0.75,-1.40625 -0.211,-0.820313 -0.2344,-1.664063 0,-0.84375 0.1172,-1.664062 0.1406,-0.820313 0.2812,-1.476563 0.1406,-0.703125 0.4688,-1.617187 0.3515,-0.9375 0.75,-1.96875 0.4218,-1.03125 0.914,-2.109375 0.4922,-1.101563 0.8907,-2.085938 0.4218,-1.007812 0.7265,-1.851562 0.3281,-0.84375 0.4453,-1.429688 0.047,-0.140625 0.024,-0.257812 0,-0.117188 -0.1407,-0.1875 -0.1171,-0.09375 -0.4218,-0.117188 -0.2813,-0.04687 -0.8203,-0.04687 -0.6094,0 -1.3125,-0.02344 -0.6797,-0.04687 -1.2188,-0.257813 -0.5391,-0.210937 -0.8437,-0.65625 -0.2813,-0.46875 -0.1172,-1.3125 0.094,-0.539062 0.3515,-0.890625 0.2578,-0.375 0.586,-0.585937 0.3281,-0.234375 0.7265,-0.328125 0.4219,-0.09375 0.8672,-0.117188 l 4.9922,-0.210937 q 0.1875,-0.257813 0.6328,-1.007813 0.4688,-0.75 1.0547,-1.757812 0.5859,-1.03125 1.2188,-2.179688 0.6328,-1.148437 1.1718,-2.15625 0.75,-1.453125 1.5938,-2.085937 0.8672,-0.632813 2.0625,-0.632813 0.7734,0 1.1484,0.210938 0.375,0.1875 0.4922,0.492187 0.1406,0.304688 0.094,0.703125 -0.024,0.375 -0.094,0.726563 -0.023,0.09375 -0.2578,0.539062 -0.2109,0.445313 -0.5625,1.101563 -0.3281,0.632812 -0.75,1.40625 -0.3984,0.773437 -0.8203,1.570312 -0.4219,0.773438 -0.8203,1.5 -0.3985,0.703125 -0.6563,1.21875 0.2813,-0.02344 0.9375,-0.09375 0.6563,-0.07031 1.5235,-0.140625 0.8671,-0.09375 1.8046,-0.164062 0.9375,-0.09375 1.7579,-0.164063 0.8437,-0.09375 1.4296,-0.140625 0.6094,-0.04687 0.7969,-0.04687 1.2656,0 2.0156,0.140625 0.7735,0.117188 1.1485,0.375 0.375,0.257813 0.4219,0.632813 0.07,0.375 -0.024,0.890625 z"
         style="font-style:italic;font-variant:normal;font-weight:bold;font-stretch:normal;font-size:48px;font-family:'Segoe Script';-inkscape-font-specification:'Segoe Script Bold Italic';fill:#ffffff;fill-opacity:1;stroke:#000036;stroke-width:1.70995116;stroke-miterlimit:4;stroke-dasharray:none;stroke-opacity:1"
         id="path6092"
         inkscape:connector-curvature="0" />
    </g>
  </g>
</svg>
