<?xml version="1.0" encoding="UTF-8" standalone="no"?>
<!-- Created with Inkscape (http://www.inkscape.org/) -->

<svg
   xmlns:dc="http://purl.org/dc/elements/1.1/"
   xmlns:cc="http://creativecommons.org/ns#"
   xmlns:rdf="http://www.w3.org/1999/02/22-rdf-syntax-ns#"
   xmlns:svg="http://www.w3.org/2000/svg"
   xmlns="http://www.w3.org/2000/svg"
   xmlns:sodipodi="http://sodipodi.sourceforge.net/DTD/sodipodi-0.dtd"
   xmlns:inkscape="http://www.inkscape.org/namespaces/inkscape"
   width="496.6506"
   height="465.9079"
   viewBox="0 0 131.40547 123.27147"
   version="1.1"
   id="svg8"
   inkscape:version="0.92.1 r15371"
   sodipodi:docname="ampoule.svg"
   inkscape:export-filename="C:\Users\PM\Documents\SitePm2\img\ampoule.png"
   inkscape:export-xdpi="25.41"
   inkscape:export-ydpi="25.41">
  <defs
     id="defs2" />
  <sodipodi:namedview
     id="base"
     pagecolor="#ffffff"
     bordercolor="#666666"
     borderopacity="1.0"
     inkscape:pageopacity="0.0"
     inkscape:pageshadow="2"
     inkscape:zoom="0.74085299"
     inkscape:cx="235.14594"
     inkscape:cy="234.20547"
     inkscape:document-units="px"
     inkscape:current-layer="layer1"
     showgrid="true"
     units="px"
     inkscape:snap-global="false"
     inkscape:window-width="1366"
     inkscape:window-height="706"
     inkscape:window-x="-8"
     inkscape:window-y="-8"
     inkscape:window-maximized="1"
     fit-margin-top="0"
     fit-margin-left="0"
     fit-margin-right="0"
     fit-margin-bottom="0">
    <inkscape:grid
       type="xygrid"
       id="grid4485"
       spacingx="3.96875"
       spacingy="3.96875"
       empspacing="1"
       visible="true"
       originx="-9.0672519"
       originy="-266.7191" />
  </sodipodi:namedview>
  <metadata
     id="metadata5">
    <rdf:RDF>
      <cc:Work
         rdf:about="">
        <dc:format>image/svg+xml</dc:format>
        <dc:type
           rdf:resource="http://purl.org/dc/dcmitype/StillImage" />
        <dc:title></dc:title>
      </cc:Work>
    </rdf:RDF>
  </metadata>
  <g
     inkscape:label="Layer 1"
     inkscape:groupmode="layer"
     id="layer1"
     transform="translate(-9.0672523,92.990554)">
    <path
       style="opacity:1;fill:none;fill-opacity:1;stroke:#000036;stroke-width:4.80000019;stroke-linecap:round;stroke-linejoin:round;stroke-miterlimit:4;stroke-dasharray:none;stroke-opacity:1"
       d="m 63.70135,16.091823 c 0.927691,-1.930897 2.29136,-3.714211 2.783077,-5.792685 0.106142,-0.4485845 -1.079682,0.325562 -1.412645,0 -0.332953,-0.3255621 -0.229405,-0.9820939 0,-1.3813155 l 1.5875,-2.7626427 c 0.229406,-0.3992229 0.332956,-1.0557425 0,-1.3813201 -0.332953,-0.3255625 -1.079688,0.3255598 -1.412653,0 -0.332955,-0.3255625 0,-0.9208818 0,-1.3813241 0,-0.4604341 -0.470882,-1.3813203 0,-1.3813203 0.470884,0 0,1.8417626 0,1.3813203 v -4.14396225 c 0,-0.46043955 -0.470882,-1.38131645 0,-1.38131645 0.470884,0 0.470884,1.38131645 0,1.38131645 -0.665927,0 -1.114833,-0.79890145 -1.412643,-1.38131645 -0.294638,-0.5762217 0.328837,-2.441067 0,-2.7626464 -0.332956,-0.3255627 -1.458488,0.5780919 -1.791449,0.2525314 -0.665931,-0.651159 -1.228058,-1.4801476 -0.88386,-2.8889076 -0.332955,-0.3255628 -0.486416,0.7109806 -0.907584,0.5050629 -0.595625,-0.2911986 -0.05943,-1.7214398 -0.655056,-2.0126473 -0.421184,-0.2059176 -1.412648,0.4604418 -1.412648,0 0,-0.4604395 1.412648,0.4604418 1.412648,0 0,-2.8743629 -1.981052,-0.5557993 -2.825298,-1.3813259 -0.332955,-0.32556 0.332954,-1.055735 0,-1.381316 -0.332955,-0.325561 -1.079682,0.325563 -1.412647,0 -0.332957,-0.325561 -0.470883,-1.381321 0,-1.381321 0.470881,0 0.470881,1.381321 0,1.381321 -2.939552,0 -0.568411,-1.93712 -1.412652,-2.762642 -0.332954,-0.325562 -1.079681,0.325563 -1.412646,0 -0.332955,-0.325562 0.332954,-1.055742 0,-1.381321 -0.332955,-0.325562 -1.079687,0.325562 -1.412651,0 -0.328839,-0.321575 0.294638,-2.18642 0,-2.762642 -0.297827,-0.582415 -1.293406,0.09393 -1.591216,-0.488484 -0.294638,-0.576222 -0.92113,-2.976767 0.178567,-3.655475 -1.88353,-1.841762 -1.412648,2.302202 -1.412648,-1.381322 v -1.381325 c 0,2.188379 0.778318,1.986689 -1.055518,-3.392767 -0.148939,-0.436785 -0.0595,-0.75797 -0.178566,-1.20275 l -0.178567,-0.667051 -0.126266,-3.404152 0.126266,-7.909125 v -2.762643 c 0,-0.46044 -0.210593,-0.969491 0,-1.381316 0.297827,-0.582423 1.11484,-0.798912 1.412651,-1.381326 0.210592,-0.411838 -0.332955,-1.055738 0,-1.381317 0.332953,-0.325561 1.079681,0.325561 1.412648,0 0.665932,-0.651167 -0.66593,-2.111484 0,-2.762647 0.332953,-0.325561 1.079684,0.325561 1.412649,0 0.332955,-0.325561 -0.332956,-1.055737 0,-1.381316 0.332955,-0.325562 1.079683,0.325561 1.412651,0 0.332954,-0.325562 -0.332955,-1.055746 0,-1.381327 0.332954,-0.325561 1.079682,0.325563 1.412646,0 0.332956,-0.325561 -1.216814,-2.065863 0,-1.381317 -1.055967,-1.588236 1.07969,0.325579 1.412652,0 0.332955,-0.325579 -0.332957,-1.055738 0,-1.381323 0.332955,-0.325578 1.07968,0.325579 1.412647,0 0.332954,-0.325578 1.095579,-1.591438 1.428534,-1.917018 0.833722,-0.953627 6.7856,-4.601172 2.533155,-2.11588 -0.550906,1.69467 -1.424705,1.327986 -1.091749,1.002407 0.665926,-0.651161 1.595656,-0.951995 2.261587,-1.603158 0.332956,-0.32558 0.186113,0.81527 0.519068,0.489689 0.665928,-0.651159 1.528039,-1.74789 2.193966,-2.399049 0.332956,-0.325577 0.298374,1.343307 0.631329,1.017727 0.332956,-0.325579 -1.171789,0.04409 1.160122,-1.136391 l 1.995393,-1.010126 c 3.360946,-1.701409 -1.333081,1.535556 0.550449,-0.306202 0.332953,-0.325579 1.303758,-0.646817 1.769782,-0.714267 l 4.237946,-0.613379 c 0,0 0.48642,0.292572 0.907586,0.08665 0.595625,-0.291208 0.69076,-0.166642 1.665183,0.299741 0.168657,-0.71098 0.960058,-0.382501 1.412648,-0.252531 l 2.951562,-0.378797 2.951565,1.262657 c 0,0 0.149992,-1.470566 0.149992,-1.010126 0,0.460439 -0.620874,1.010126 -0.149992,1.010126 h 2.825299 1.412649 c 0.470882,0 0.991475,-0.205918 1.412647,0 0.595625,0.291208 0.817027,1.090116 1.412652,1.381324 0.589287,0.288117 2.496419,-0.321561 2.825296,0 0.332957,0.32558 -0.332954,1.055738 0,1.381319 0.665928,0.651159 2.15937,-0.65116 2.825299,0 0.332954,0.325577 -0.332956,1.055742 0,1.381322 0.332954,0.325579 0.991475,-0.205917 1.412645,0 0.595636,0.291208 0.817031,1.090112 1.412658,1.381319 0.42118,0.205917 1.07968,-0.32558 1.41264,0 0.33295,0.325579 -0.33296,1.055742 0,1.381323 0.33295,0.325579 1.07969,-0.325581 1.41266,0 0.33295,0.325579 -0.33296,1.055738 0,1.381318 0.33295,0.325579 1.07967,-0.325578 1.41264,0 0.33295,0.325579 -0.2106,0.969494 0,1.381323 0.29782,0.582415 1.11483,0.798904 1.41265,1.381317 0.2106,0.411839 -0.33295,1.055743 0,1.381327 0.33296,0.325561 1.07968,-0.325562 1.41265,0 0.33295,0.325561 -0.33295,1.055737 0,1.381316 0.33295,0.325561 1.07967,-0.325561 1.41264,0 0.32891,0.321575 -0.29464,2.186426 0,2.762647 0.29783,0.58241 1.11484,0.798902 1.41265,1.381317 0.29464,0.576222 -0.3289,2.441059 0,2.762642 0.33296,0.325562 1.07969,-0.325561 1.41265,0 0.33295,0.325562 0,0.920876 0,1.381317 v 2.762647 8.287923 c 0,0.460439 0.33295,1.055737 0,1.38132 -0.33296,0.325562 -1.07968,-0.325605 -1.41265,0 -0.33295,0.325562 0,0.920882 0,1.381321 v 2.762643 c 0,0.460441 0.33296,1.055738 0,1.381317 -0.33295,0.325562 -1.07967,-0.325562 -1.41265,0 -0.66593,0.651166 0.66594,2.111484 0,2.762647 -0.33295,0.325561 -1.07968,-0.325562 -1.41264,0 -0.66593,0.651158 0.66592,2.111475 0,2.762642 -0.33295,0.325562 -1.07968,-0.325562 -1.41265,0 -0.66593,0.651158 0.66593,2.11148 0,2.762642 -0.33295,0.325562 -1.07969,-0.325561 -1.41265,0 -0.66593,0.651158 0.66592,2.11148 0,2.762638 -0.33296,0.325563 -1.07968,-0.325562 -1.41264,0 -0.66594,0.651164 0.66592,2.111485 0,2.762642 -0.66594,0.651159 -2.15938,-0.651157 -2.8253,0 -0.33296,0.325563 0.33295,1.055738 0,1.381316 -0.33296,0.325563 -1.079701,-0.32556 -1.412658,0 -0.332957,0.325563 0.332953,1.0557476 0,1.3813259 -0.332957,0.3255628 -1.079683,-0.3255606 -1.412645,0 -0.665929,0.6511589 0.665926,2.1114806 0,2.7626442 -0.332956,0.3255604 -1.079682,-0.3255628 -1.412654,0 -0.665928,0.6511567 0.665934,2.1114784 0,2.7626374 -0.332955,0.3255605 -1.079682,-0.3255628 -1.412645,0 -0.328836,0.3215749 0.294638,2.1864202 0,2.76264185 -0.297828,0.58241506 -1.11484,0.79890373 -1.41265,1.38132535 -0.210593,0.4118375 0,0.9208769 0,1.3813166 v 4.1439645 c 0,0.4604395 -0.332954,1.055737 0,1.3813172 0.332954,0.3255598 1.079686,-0.3255625 1.41265,0 0.332957,0.3255598 0,0.9208832 0,1.3813255 v 1.3813155 2.762643 c 0,0.460441 0.470881,1.38133 0,1.38133 -0.470881,0 0,-1.841769 0,-1.38133 v 2.762642 c 0,0.460436 0.470881,1.381325 0,1.381325 -0.470881,0 0,-1.841765 0,-1.381325 v 4.143969 c 0,0.46044 0.470881,1.381316 0,1.381316 -0.470881,0 0,-1.841766 0,-1.381316 v 2.762628 c 0,0.46044 0.332957,1.055752 0,1.381331 -3.312912,3.23944 0,-4.25569 0,-1.381331 0,6.978172 -1.085654,1.061589 -2.825296,2.762643 -0.332956,0.325562 0.332954,1.055756 0,1.381333 -0.665928,0.651156 -2.159372,-0.651174 -2.825299,0 -0.332953,0.325563 0.332955,1.055735 0,1.381312 -0.332953,0.325564 -0.941769,0 -1.412649,0 h -1.41265 c -0.47088,0 -0.991483,-0.205917 -1.412649,0 -0.595625,0.291199 -0.817023,1.090112 -1.412647,1.381331 -0.421185,0.205918 -0.94177,0 -1.412652,0 h -2.825297 -1.412648 -1.412651 2.825299 -4.237948 -1.412648 c -0.470882,0 -1.079684,0.325563 -1.412651,0 -0.332955,-0.325561 0.332956,-1.055749 0,-1.381331 -0.332955,-0.325559 -1.412647,0.460443 -1.412647,0 0,-0.460439 1.745614,0.325564 1.412647,0 -1.720581,-1.682419 -3.156153,-0.647039 -4.237941,-2.762645 -0.210592,-0.411838 0.332954,-1.055734 0,-1.381312 -0.332955,-0.325564 -1.079688,0.32556 -1.412654,0 -0.332954,-0.325564 0,-0.920874 0,-1.381331 0,-0.460434 -0.470881,-1.381312 0,-1.381312 0.470885,0 0.216458,1.790243 0,1.381312 -1.124325,-2.124112 -1.855386,-4.426137 -2.783077,-6.639197 z"
       id="path4495"
       inkscape:connector-curvature="0"
       sodipodi:nodetypes="cccssccssssssccccccsscccsscccccccsccscccscccccccccccccccccccccsscscccsccsscscccccccccccccccccccccccscsccssccccccccccccccccccccccssccscsssssssssscsccccssccscccccsccsccccssccc" />
    <path
       style="opacity:1;fill:none;fill-opacity:1;stroke:#000036;stroke-width:4.80000006;stroke-linecap:round;stroke-linejoin:round;stroke-miterlimit:4;stroke-dasharray:none;stroke-opacity:1"
       d="m 65.005837,6.8999923 c 0.332955,-0.1628085 0.653256,-0.3532073 0.998894,-0.4883669 0.07732,-0.030347 0.166484,0 0.249733,0 0.166485,0 0.332954,0 0.499441,0 0.499447,0 0.9989,0 1.498346,0 1.082138,0 2.16427,0 3.246404,0 0.08326,0 0.166486,0 0.249733,0 0.08326,0 0.190896,-0.057539 0.249699,0 0.05888,0.057539 -0.05888,0.1866242 0,0.2441828 0.05888,0.057539 0.166484,0 0.249733,0 0.166485,0 0.332956,0 0.499447,0 0.08326,0 0.175298,-0.036408 0.249734,0 0.105307,0.051533 0.144395,0.1927509 0.249698,0.2442237 0.07447,0.036408 0.166485,0 0.2497,0 0.08326,0 0.166485,0 0.249733,0 0.332955,0 0.665927,0 0.998893,0 0.08326,0 0.166485,0 0.249734,0 0.08326,0 0.190894,-0.057539 0.249698,0 0.05888,0.057539 -0.05888,0.1866475 0,0.2441828 0.05888,0.057539 0.166485,0 0.249733,0 0.332957,0 0.665928,0 0.998892,0 0.08326,0 0.166485,0 0.249769,0 0.08326,0 0.175297,-0.036408 0.249698,0 0.105307,0.051533 0.144454,0.1927523 0.249734,0.2441815 0.07447,0.036408 0.166484,0 0.249699,0 0.249734,0 0.499446,0 0.749173,0 0.08326,0 0.175298,-0.036408 0.249768,0 0.105267,0.051533 0.144395,0.1927509 0.249699,0.2442265 0.07447,0.036408 0.166486,0 0.249698,0 0.08326,0 0.166485,0 0.249734,0 0.499447,0 0.998892,0 1.498339,0 0.499446,0 0.998897,0 1.498342,0 0.166485,0 0.332955,0 0.499447,0 0.08326,0 0.175297,0.036408 0.249698,0 0.105307,-0.051533 0.144455,-0.1927509 0.249769,-0.2442265 0.07447,-0.036408 0.166485,0 0.249698,0 0.166485,0 0.332955,0 0.499448,0 0.665932,0 1.33186,0 1.997786,0 0.166485,0 0.332957,0 0.499448,0 0.08326,0 0.190875,0.057539 0.249698,0 0.05888,-0.057539 -0.05888,-0.1866257 0,-0.2441815 0.05888,-0.057539 0.166484,0 0.249733,0 0.08326,0 0.166485,0 0.249734,0 0.249699,0 0.499447,0 0.74917,0 0.08326,0 0.175298,0.036408 0.249767,0 0.105307,-0.051533 0.144455,-0.1927509 0.2497,-0.2441828 0.07447,-0.036408 0.166486,0 0.249733,0 0.08326,0 0.166486,0 0.249699,0 0.2497,0 0.499447,0 0.749173,0 0.08326,0 0.190875,0.057539 0.249699,0 0.05888,-0.057539 -0.05888,-0.1866243 0,-0.2442237 0.05811,-0.056857 0.395255,0.051 0.499446,0 0.105307,-0.051533 0.144454,-0.1927523 0.249733,-0.2441828 0.07447,-0.036408 0.166485,0 0.2497,0 0.08326,0 0.166486,0 0.249733,0 0.08326,0 0.175298,0.036408 0.249699,0 0.105306,-0.051533 0.144455,-0.1927523 0.2497,-0.2442252 0.07447,-0.036408 0.166485,0 0.249733,0 0.166485,0 0.332954,0 0.499446,0 0.08326,0 0.190894,0.057539 0.249768,0 0.05888,-0.057539 0,-0.1628099 0,-0.2441405"
       id="path4521"
       inkscape:connector-curvature="0" />
    <path
       style="opacity:1;fill:none;fill-opacity:1;stroke:#000036;stroke-width:4.80000006;stroke-linecap:round;stroke-linejoin:round;stroke-miterlimit:4;stroke-dasharray:none;stroke-opacity:1"
       d="m 67.003624,12.516256 c 1.073343,0.524773 0.626626,0.488368 1.248616,0.488368 0.08326,0 0.190877,-0.0575 0.249701,0 0.05888,0.05754 -0.05888,0.186624 0,0.244227 0.117727,0.115037 0.381714,-0.115093 0.499445,0 0.05888,0.05754 -0.05888,0.186624 0,0.24418 0.05888,0.05754 0.166484,0 0.249768,0 0.08326,0 0.166485,0 0.249699,0 0.08326,0 0.190875,-0.05754 0.249733,0 0.05888,0.05754 -0.05888,0.186625 0,0.24414 0.117727,0.115052 0.381712,-0.115092 0.499447,0 0.05888,0.05754 -0.05888,0.186626 0,0.244225 0.05888,0.05754 0.175297,-0.03641 0.249734,0 0.105267,0.05153 0.144454,0.192662 0.249698,0.244225 0.07447,0.03641 0.166485,0 0.2497,0 0.166485,0 0.332954,0 0.499446,0 0.08326,0 0.190875,-0.05754 0.249733,0 0.05888,0.0575 -0.05888,0.186625 0,0.244138 0.05814,0.05686 0.395257,-0.051 0.499447,0 0.105268,0.05153 0.144455,0.192752 0.249734,0.244228 0.07447,0.03641 0.166484,0 0.249697,0 0.166486,0 0.332957,0 0.499447,0 0.665927,0 1.331853,0 1.997788,0 0.08326,0 0.166485,0 0.249733,0 0.08322,0 0.190875,-0.05754 0.2497,0 0.05888,0.05754 -0.05888,0.186647 0,0.24418 0.05888,0.0575 0.166484,0 0.249733,0 0.08322,0 0.166485,0 0.249699,0 0.416181,0 0.832408,0 1.248616,0 0.08326,0 0.166484,0 0.249733,0 0.08326,0 0.175297,-0.03641 0.2497,0 0.105267,0.05153 0.144455,0.192751 0.249733,0.244141 0.07447,0.03641 0.166485,0 0.249768,0 0.08322,0 0.166484,0 0.249699,0 0.332955,0 0.665927,0 0.998892,0 1.165381,0 2.330753,0 3.496127,0 1.082137,0 2.16427,0 3.246403,0 0.08326,0 0.166485,0 0.2497,0 0.08326,0 0.190876,0.05754 0.249733,0 0.05888,-0.05754 -0.05888,-0.186648 0,-0.244141 0.117728,-0.115092 0.381713,0.115093 0.499444,0 0.05888,-0.0575 -0.05888,-0.186624 0,-0.24418 0.117727,-0.115052 0.381713,0.115092 0.499446,0 0.05888,-0.05754 -0.05888,-0.186624 0,-0.244228 0.05888,-0.05754 0.166484,0 0.249768,0 0.08326,0 0.166485,0 0.249699,0 0.08326,0 0.175296,0.03641 0.249733,0 0.105307,-0.05153 0.144454,-0.192662 0.2497,-0.244138 0.104196,-0.051 0.441317,0.05686 0.499444,0 0.05888,-0.05754 -0.05888,-0.186624 0,-0.244225 0.117728,-0.115038 0.381713,0.115093 0.499448,0 0.05888,-0.0575 -0.05888,-0.186624 0,-0.244225 0.117727,-0.115092 0.381709,0.115052 0.499446,0 0.05888,-0.05754 -0.05888,-0.186624 0,-0.24414 0.117727,-0.115093 0.381711,0.115051 0.499447,0 0.05888,-0.05754 -0.05888,-0.186625 0,-0.24418 0.117727,-0.115093 0.38171,0.115037 0.499445,0 0.05888,-0.05754 -0.05888,-0.186647 0,-0.244227 0.05888,-0.0575 0.166484,0 0.2497,0 0.08326,0 0.166485,0 0.249733,0 0.08326,0 0.190876,-0.0575 0.249698,0 0.05888,0.05754 0,0.162809 0,0.244227 0,0.08143 0,0.162809 0,0.24418"
       id="path4525"
       inkscape:connector-curvature="0" />
    <path
       style="opacity:1;fill:none;fill-opacity:1;stroke:#000036;stroke-width:4.80000006;stroke-linecap:round;stroke-linejoin:round;stroke-miterlimit:4;stroke-dasharray:none;stroke-opacity:1"
       d="m 65.255559,19.59763 c 1.073351,0.524767 0.62663,0.488367 1.248616,0.488367 0.08326,0 0.190875,-0.05754 0.249734,0 0.05888,0.05754 -0.05888,0.186624 0,0.244182 0.117727,0.115038 0.381716,-0.115092 0.499447,0 0.05888,0.0575 -0.05888,0.186625 0,0.244138 0.05815,0.05686 0.395256,-0.051 0.499445,0 0.105306,0.05153 0.144455,0.192751 0.249701,0.244228 0.07447,0.03641 0.166484,0 0.249733,0 0.08326,0 0.166485,0 0.249698,0 0.08326,0 0.190895,-0.05754 0.249769,0 0.05888,0.0575 -0.05888,0.186624 0,0.24418 0.05888,0.05754 0.166485,0 0.249698,0 0.08326,0 0.166485,0 0.249734,0 0.08326,0 0.190875,-0.05754 0.249699,0 0.05888,0.05754 -0.05888,0.186624 0,0.244183 0.05888,0.05754 0.166485,0 0.249734,0 0.249767,0 0.499444,0 0.749172,0 0.08322,0 0.175297,-0.03641 0.249699,0 0.105267,0.05153 0.144454,0.192751 0.249699,0.244225 0.148939,0.0728 0.350567,-0.0728 0.499446,0 0.105268,0.05153 0.144454,0.192662 0.249734,0.244183 0.07447,0.03641 0.166484,0 0.249699,0 0.08326,0 0.166485,0 0.249734,0 0.08326,0 0.190875,-0.05754 0.249733,0 0.05888,0.05754 -0.05888,0.186624 0,0.244181 0.05888,0.05754 0.166485,0 0.249698,0 0.249734,0 0.499448,0 0.749169,0 0.08326,0 0.166485,0 0.249734,0 0.08326,0 0.190875,-0.0575 0.249699,0 0.05888,0.05754 -0.05888,0.186626 0,0.244225 0.05888,0.05754 0.166485,0 0.249734,0 0.249699,0 0.499443,0 0.749173,0 0.08326,0 0.190875,-0.0575 0.249699,0 0.05888,0.05754 -0.05888,0.186626 0,0.244226 0.05888,0.0575 0.166486,0 0.249732,0 0.332956,0 0.665928,0 0.998892,0 0.08326,0 0.166486,0 0.249734,0 0.08326,0 0.175297,-0.03641 0.2497,0 0.105268,0.05153 0.144455,0.19275 0.249734,0.24414 0.07447,0.03641 0.166485,0 0.249699,0 0.249768,0 0.499445,0 0.749175,0 0.08326,0 0.175297,-0.03641 0.249733,0 0.105307,0.05153 0.144377,0.192751 0.249701,0.244225 0.07447,0.03641 0.166484,0 0.249698,0 0.166485,0 0.332956,0 0.499447,0 0.582683,0 1.165373,0 1.748065,0 0.998892,0 1.997786,0 2.996682,0 0.08326,0 0.166484,0 0.249698,0 0.08326,0 0.190894,0.05754 0.249768,0 0.05888,-0.05754 -0.05888,-0.186624 0,-0.244225 0.05888,-0.05754 0.166485,0 0.249699,0 0.166484,0 0.332953,0 0.499447,0 0.08326,0 0.175297,0.03641 0.249733,0 0.105307,-0.05153 0.144455,-0.192662 0.249699,-0.24414 0.07447,-0.03641 0.166484,0 0.249699,0 0.08326,0 0.166485,0 0.249734,0 0.08326,0 0.190875,0.0575 0.249698,0 0.05888,-0.05754 -0.05888,-0.186647 0,-0.244226 0.117727,-0.115051 0.381711,0.115093 0.499447,0 0.05888,-0.0575 -0.05888,-0.186624 0,-0.244225 0.117727,-0.115092 0.38171,0.115038 0.499445,0 0.05888,-0.0575 -0.05888,-0.186624 0,-0.244181 0.05888,-0.05754 0.190876,0.05754 0.249701,0 0.05888,-0.05754 -0.05888,-0.186626 0,-0.244183 0.05888,-0.05754 0.175296,0.03641 0.249766,0 0.105267,-0.05153 0.144455,-0.192751 0.2497,-0.244225 0.07447,-0.03641 0.175297,0.03641 0.249767,0 0.210592,-0.10297 0.288841,-0.385405 0.499447,-0.488373 0.07447,-0.03641 0.175298,0.03641 0.249733,0 0.105307,-0.05153 0.144417,-0.19275 0.249699,-0.244226 0.07447,-0.03641 0.190875,0.0575 0.249699,0 0.05888,-0.05754 -0.05888,-0.186626 0,-0.244181 0.05888,-0.05754 0.166486,0 0.249733,0 0.08326,0 0.166486,0 0.249699,0 0.08326,0 0.190876,0.0575 0.249733,0 0.05888,-0.05754 -0.05888,-0.186625 0,-0.244183 0.05814,-0.05686 0.395259,0.051 0.499447,0 0.105307,-0.05153 0.144456,-0.192751 0.249699,-0.244224 0.07447,-0.03641 0.190875,0.05754 0.249699,0 0.05888,-0.05754 -0.05888,-0.186626 0,-0.244183 0.117727,-0.115051 0.381712,0.115093 0.499446,0 0.05888,-0.05754 -0.05888,-0.186626 0,-0.244139 0.117727,-0.115092 0.381712,0.115038 0.499447,0 0.05888,-0.0575 -0.05888,-0.186624 0,-0.244227 0.117728,-0.115092 0.381711,0.115052 0.499441,0 0.05888,-0.0575 -0.05888,-0.186647 0,-0.24418 0.05888,-0.05754 0.175298,0.03641 0.249701,0 0.105307,-0.05153 0.144454,-0.192752 0.249733,-0.244182 0.332954,-0.16281 0.2497,0.244182 0.2497,-0.244226"
       id="path4527"
       inkscape:connector-curvature="0" />
    <path
       style="opacity:1;fill:none;fill-opacity:1;stroke:#000036;stroke-width:4.80000006;stroke-linecap:round;stroke-linejoin:round;stroke-miterlimit:4;stroke-dasharray:none;stroke-opacity:1"
       d="m 64.756114,-31.437102 c -0.290761,1.910882 0.93164,0.178401 1.248617,0.488368 0.516679,0.505221 -0.789568,-0.01949 0.249733,0.488369 0.07447,0.03641 0.190875,-0.05755 0.249697,0 0.05888,0.05755 -0.05888,0.186635 0,0.244225 0.05888,0.05755 0.190876,-0.05754 0.249733,0 0.05888,0.05755 -0.03743,0.171381 0,0.244225 0.0527,0.102956 0.197112,0.141267 0.249734,0.244183 0.03743,0.0728 -0.05888,0.186635 0,0.244225 0.05888,0.05755 0.175298,-0.03641 0.249701,0 0.105306,0.05152 0.166484,0.162803 0.249733,0.244139 0.08322,0.08141 0.19711,0.141266 0.249698,0.244181 0.03743,0.0728 -0.05888,0.186637 0,0.244227 0.05888,0.05755 0.190895,-0.05755 0.2497,0 0.05888,0.05755 -0.03743,0.171381 0,0.244138 0.0527,0.102956 0.197111,0.141267 0.249733,0.244226 0.03743,0.0728 -0.03743,0.171381 0,0.244181 0.0527,0.102957 0.197112,0.141266 0.249698,0.244226 0.03743,0.0728 -0.05888,0.186636 0,0.244182 0.05888,0.05755 0.190895,-0.05755 0.249769,0 0.05811,0.05686 -0.05219,0.386488 0,0.488369 0.0527,0.102956 0.197112,0.141266 0.249698,0.244181 0.03743,0.0728 0,0.162803 0,0.244183 0.08326,0.08141 0.197112,0.141266 0.249734,0.244225 0.03743,0.0728 -0.05888,0.186637 0,0.244183 0.05888,0.05755 0.190875,-0.05755 0.249699,0 0.117728,0.115133 -0.117727,0.373228 0,0.488368 0.05888,0.05754 0.190877,-0.05755 0.249734,0 0.117727,0.115134 -0.117727,0.373228 0,0.488369 0.05888,0.05755 0.190876,-0.05754 0.249767,0 0.05888,0.05755 -0.05888,0.186635 0,0.244225 0.05888,0.05755 0.190875,-0.05754 0.2497,0 0.117727,0.115133 -0.117728,0.373228 0,0.488369 0.05888,0.05755 0.190876,-0.05755 0.249733,0 0.117727,0.115136 -0.117727,0.373271 0,0.488373 0.05888,0.05755 0.190896,-0.05755 0.249698,0 0.05811,0.05685 -0.05218,0.386488 0,0.488368 0.0527,0.102959 0.197112,0.141266 0.249701,0.244139 0.03743,0.0728 -0.05888,0.186636 0,0.244226 0.05888,0.05755 0.190875,-0.05755 0.249734,0 0.166484,0.162802 -0.166486,0.325561 0,0.488368 0.05888,0.05755 0.190875,-0.05755 0.249696,0 0.05888,0.05755 0,0.162802 0,0.244225 0,0.162803 0,0.325562 0,0.488369 0,0.08138 -0.05888,0.186636 0,0.244182 0.05888,0.05755 0.21248,-0.0728 0.249734,0 0.07447,0.145642 -0.0527,0.333925 0,0.488369 0.03743,0.109199 0.197111,0.141266 0.249701,0.244182 0.03743,0.0728 0,0.162803 0,0.244225 0,0.08142 0,0.162803 0,0.244182 0,0.08142 -0.03743,0.171382 0,0.244226 0.0527,0.102959 0.19711,0.141266 0.249733,0.244139 0.03743,0.0728 -0.03743,0.171382 0,0.244182 0.0527,0.102959 0.19711,0.141266 0.249734,0.244225 0.03743,0.0728 -0.03743,0.171382 0,0.244226 0.0527,0.102959 0.19711,0.141266 0.249698,0.244182 0.05219,0.101877 -0.05811,0.431511 0,0.488369 0.05888,0.05755 0.190894,-0.05755 0.249733,0 0.05888,0.05755 0,0.162802 0,0.244225 0,0.08142 0,0.162803 0,0.244139 0,0.08142 -0.05888,0.186636 0,0.244225 0.05888,0.05755 0.190875,-0.05755 0.2497,0 0.05811,0.05685 -0.05218,0.386488 0,0.488369 0.0527,0.102959 0.197111,0.141266 0.249698,0.244182 0.03743,0.0728 -0.03743,0.171382 0,0.244182 0.0527,0.10296 0.197111,0.141266 0.249769,0.244226 0.03743,0.0728 0,0.162802 0,0.244225 0,0.08142 0,0.162803 0,0.244182 0,0.08142 -0.05888,0.186636 0,0.244226 0.05888,0.05755 0.190875,-0.05755 0.249698,0 0.05888,0.05755 -0.03743,0.171381 0,0.244182 0.0527,0.102959 0.197111,0.141266 0.249733,0.244225 0.07447,0.145599 -0.07447,0.342722 0,0.488373 0.0527,0.10296 0.197112,0.141266 0.2497,0.244139 0.03743,0.0728 0,0.162802 0,0.244182 0,0.08143 0,0.162809 0,0.244225 0,0.406985 0,0.813953 0,1.220929 0,0.162809 -0.0527,0.333924 0,0.488368 0.03743,0.109207 0.197111,0.141266 0.249733,0.244182 0.03743,0.07281 0,0.162809 0,0.244225 0,0.08143 0,0.162809 0,0.244138 0,0.244183 0,0.48837 0,0.732562 0,0.8953436 0,1.7906873 0,2.6860357 0,3.0116188 0,6.0232399 0,9.034861 0,0.6511589 0,1.3023156 0,1.9534786 0,0.081429 0,0.1628099 0,0.2442251 0,0.081429 -0.05888,0.1866257 0,0.2442251 0.05888,0.057539 0.190877,-0.057539 0.249734,0 0.05888,0.057539 0,0.16281 0,0.2441829 0,0.1628099 0,0.3255625 0,0.4883669 0,0.081429 -0.08326,0.2441405 0,0.2441405 0.117727,0 0.166486,-0.1628085 0.249698,-0.2441405"
       id="path4531"
       inkscape:connector-curvature="0" />
    <path
       style="opacity:1;fill:none;fill-opacity:1;stroke:#000036;stroke-width:4.80000006;stroke-linecap:round;stroke-linejoin:round;stroke-miterlimit:4;stroke-dasharray:none;stroke-opacity:1"
       d="m 95.222365,-33.634772 c -0.166486,0.325561 -0.307913,0.664608 -0.499443,0.976745 -0.06055,0.09867 -0.166485,0.162803 -0.249698,0.244226 -0.08326,0.08138 -0.166485,0.162802 -0.249734,0.244182 -0.08326,0.08141 -0.197042,0.141267 -0.249699,0.244183 -0.03743,0.0728 0.05888,0.186635 0,0.244225 -0.05888,0.05754 -0.190877,-0.05755 -0.249699,0 -0.05888,0.05754 0.05888,0.186635 0,0.244181 -0.05888,0.05755 -0.190876,-0.05755 -0.249768,0 -0.05888,0.05755 0.03743,0.171383 0,0.244227 -0.0527,0.102956 -0.166486,0.162801 -0.249698,0.244181 -0.08326,0.08143 -0.144456,0.192747 -0.249734,0.244225 -0.104196,0.051 -0.441319,-0.05686 -0.499447,0 -0.05888,0.05755 0.05888,0.186637 0,0.244139 -0.05888,0.05755 -0.190877,-0.05755 -0.249768,0 -0.05888,0.05755 0.05888,0.186637 0,0.244225 -0.05888,0.05755 -0.190875,-0.05754 -0.249699,0 -0.05888,0.05755 0.05888,0.186637 0,0.244227 -0.05888,0.05754 -0.190877,-0.05755 -0.249734,0 -0.05888,0.05754 0.05888,0.186635 0,0.244138 -0.05888,0.05755 -0.190876,-0.05754 -0.249698,0 -0.05888,0.05755 0.05888,0.186636 0,0.244226 -0.05888,0.05754 -0.190875,-0.05755 -0.249699,0 -0.05888,0.05754 0.03743,0.171382 0,0.244138 -0.0527,0.102957 -0.197112,0.141267 -0.249768,0.244183 -0.03743,0.0728 0.05888,0.186635 0,0.244225 -0.05888,0.05755 -0.190875,-0.05754 -0.249699,0 -0.05888,0.05755 0.03743,0.171381 0,0.244139 -0.0527,0.102957 -0.197112,0.141266 -0.249768,0.244225 -0.03743,0.0728 0.05888,0.186637 0,0.244183 -0.05888,0.05754 -0.190875,-0.05755 -0.249699,0 -0.117727,0.115133 0.117727,0.373228 0,0.488368 -0.05888,0.05755 -0.190876,-0.05755 -0.249768,0 -0.05888,0.05755 0.05888,0.186636 0,0.244139 -0.05888,0.05754 -0.190875,-0.05755 -0.249699,0 -0.117727,0.115134 0.117727,0.373229 0,0.488369 -0.05888,0.05754 -0.190876,-0.05755 -0.249698,0 -0.05888,0.05754 0.03743,0.171381 0,0.244181 -0.0527,0.102957 -0.197112,0.141267 -0.249769,0.244225 -0.03743,0.0728 0.05888,0.186637 0,0.244183 -0.516681,0.505221 0.0199,-0.772053 -0.499446,0.244225 -0.03743,0.0728 0.03743,0.171383 0,0.244183 -0.0527,0.102957 -0.19711,0.141266 -0.249769,0.244225 -0.03743,0.0728 0.03743,0.171382 0,0.244139 -0.0527,0.102957 -0.197111,0.141266 -0.249698,0.244226 -0.07447,0.145598 0.07447,0.342721 0,0.488368 -0.0527,0.102959 -0.19711,0.141266 -0.249733,0.244226 -0.03743,0.0728 0,0.162802 0,0.244182 0,0.162802 0.0527,0.333925 0,0.488368 -0.03743,0.1092 -0.212479,0.13494 -0.2497,0.244182 -0.0527,0.15444 0,0.325562 0,0.488369 0,0.08142 0.03743,0.171382 0,0.244225 -0.0527,0.10296 -0.197111,0.141267 -0.249733,0.244226 -0.03743,0.0728 0,0.162802 0,0.244182 0,0.08142 0,0.162803 0,0.244225 0,0.08138 0.03743,0.171382 0,0.244183 -0.0527,0.102958 -0.197112,0.141266 -0.249698,0.244182 -0.03743,0.0728 0,0.162802 0,0.244225 0,0.325562 0,0.651163 0,0.976742 0,0.162802 0.07447,0.342721 0,0.488368 -0.03743,0.0728 -0.190875,-0.05755 -0.249734,0 -0.05888,0.05755 0,0.162803 0,0.244226 0,0.244225 0,0.488368 0,0.732559 0,0.08142 0,0.162803 0,0.244139 0,0.08142 0.03743,0.171382 0,0.244225 -0.0527,0.10296 -0.197111,0.141267 -0.249733,0.244182 -0.03743,0.0728 0,0.162803 0,0.244226 0,0.244182 0,0.488373 0,0.732555 0,0.651167 0,1.302325 0,1.953483 0,0.162803 0,0.325562 0,0.488373 0,0.08142 0.05888,0.186636 0,0.244138 -0.05888,0.05754 -0.190875,-0.05754 -0.2497,0 -0.05888,0.05754 0,0.162809 0,0.244227 0,0.08143 0,0.162809 0,0.244181 0,0.406985 0,0.813952 0,1.220928 0,0.08143 0,0.16281 0,0.244225 0,0.08143 0.03743,0.171387 0,0.244139 -0.0527,0.102969 -0.197111,0.141266 -0.249767,0.244227 -0.03743,0.07281 0,0.162809 0,0.24418 0,0.244141 0,0.48837 0,0.732559 0,0.244141 0,0.48837 0,0.7325573 0,0.081427 0,0.1628092 0,0.244225 0,0.081427 0.03743,0.1713863 0,0.2441827 -0.0527,0.1029703 -0.197112,0.1412661 -0.2497,0.244225 -0.03743,0.072805 0,0.1628092 0,0.2441826 0,0.1628093 0,0.3255605 0,0.4883676 0,0.081427 0.05888,0.1866469 0,0.244225 -0.05888,0.057545 -0.190876,-0.057545 -0.249698,0 -0.05888,0.057545 0,0.1628092 0,0.2441826 0,0.081427 0,0.1628093 0,0.244225 0,0.2441827 0,0.4883697 0,0.7325546 0,0.081428 0,0.1628092 0,0.2442273 0,0.081427 0.03743,0.1713862 0,0.244138 -0.0527,0.1029703 -0.197111,0.1412662 -0.249733,0.244225 -0.03743,0.072806 0,0.1628093 0,0.2441827 0,0.081428 0,0.1628093 0,0.2441381 0,0.4069407 0,0.8139527 0,1.2209334 0,0.081428 0,0.1628092 0,0.244225 0,0.081428 0.03743,0.1713864 0,0.2441827 -0.0527,0.1029703 -0.197112,0.1412661 -0.249701,0.244225 -0.03743,0.072805 0,0.1628092 0,0.244138 0,0.3255628 0,0.1628092 0,0.4883742 0,0.081428 0.03743,0.1713864 0,0.2441382 -0.0527,0.1029703 -0.19711,0.1412661 -0.249734,0.244225 -0.03743,0.072805 0,0.1628092 0,0.244138 0,0.3256051 0,0.1628093 0,0.4883742 0,0.081428 0.03743,0.1713864 0,0.2441382 -0.0527,0.1029703 -0.19711,0.1412662 -0.249698,0.244225 -0.03743,0.072806 0,0.1628092 0,0.2441827 0,0.081426 0,0.16280922 0,0.24413801 0,0.40698523 0,0.81395258 0,1.22092894 0,0.97674175 0,1.95348355 0,2.93022075 0,0.081429 0,0.1628099 0,0.2442251 0,0.081429 -0.05888,0.1866475 0,0.2441829 0.05888,0.057539 0.190877,-0.057539 0.249698,0 0.05888,0.057539 0,0.1628085 0,0.2442251 0,0.2441828 0,0.4883711 0,0.7325539 0,0.081429 -0.03743,0.1713869 0,0.2441828 0.0527,0.1029703 0.197112,0.1412671 0.249734,0.2442251 0.03743,0.072801 -0.05888,0.1866243 0,0.2441378 0.05888,0.057539 0.190876,0.057539 0.249701,0 0.05888,-0.057539 0,-0.1628086 0,-0.2441378 0,-0.081429 0,-0.1628085 0,-0.2442251"
       id="path4533"
       inkscape:connector-curvature="0" />
    <path
       style="opacity:1;fill:#ffff00;fill-opacity:1;stroke:#000036;stroke-width:4.80000006;stroke-linecap:round;stroke-linejoin:round;stroke-miterlimit:4;stroke-dasharray:none;stroke-opacity:1"
       d="m 71.748368,-24.355726 c 0.789275,-0.263076 0.866475,-0.244182 1.498343,-0.244182 0.08326,0 0.190875,0.05755 0.249698,0 0.05888,-0.05754 -0.05888,-0.186636 0,-0.244226 0.05888,-0.05754 0.166485,0 0.249733,0 0.08326,0 0.166485,0 0.2497,0 0.166486,0 0.332955,0 0.499446,0 0.08326,0 0.190875,0.05755 0.249733,0 0.05888,-0.05754 -0.05888,-0.186635 0,-0.244225 0.05888,-0.05755 0.166485,0 0.249734,0 0.166484,0 0.332953,0 0.499447,0 0.332954,0 0.665929,0 0.998892,0 0.08326,0 0.190875,0.05755 0.249768,0 0.05888,-0.05755 -0.05888,-0.186636 0,-0.244182 0.05888,-0.05755 0.166484,0 0.249699,0 0.249734,0 0.499445,0 0.749169,0 0.08326,0 0.190875,0.05755 0.249698,0 0.05888,-0.05755 -0.05888,-0.186636 0,-0.244226 0.05888,-0.05755 0.166485,0 0.249769,0 0.08326,0 0.166485,0 0.249733,0 0.416179,0 0.832412,0 1.248617,0 0.08326,0 0.166484,0 0.249698,0 0.08326,0 0.175296,0.03639 0.249766,0 0.105268,-0.05152 0.144456,-0.192746 0.249701,-0.244181 0.07447,-0.03641 0.166484,0 0.249699,0 0.166485,0 0.332954,0 0.499445,0 0.665927,0 1.331855,0 1.997781,0 0.665935,0 1.331863,0 1.99779,0 0.08326,0 0.166484,0 0.249699,0 0.08326,0 0.190875,-0.05755 0.249734,0 0.05888,0.05754 -0.05888,0.186635 0,0.244181 0.05888,0.05754 0.166484,0 0.249698,0 0.166484,0 0.332955,0 0.499447,0 0.08326,0 0.190875,-0.05755 0.249698,0 0.332957,0.325562 -0.416179,0.244226 0.249734,0.244226"
       id="path4535"
       inkscape:connector-curvature="0" />
    <path
       style="opacity:1;fill:none;fill-opacity:1;stroke:#000036;stroke-width:4.80000019;stroke-linecap:round;stroke-linejoin:round;stroke-miterlimit:4;stroke-dasharray:none;stroke-opacity:1"
       d="m 82.645185,-96.23581 c 0,1.790692 0,3.581384 0,5.372076 0,1.145316 0.11773,-0.230221 -0.49945,0.976741 -0.0745,0.145611 0,0.325579 0,0.48837 0,0.162788 0,0.325579 0,0.48837 0,0.651162 0,1.302322 0,1.953481 0,0.162787 0,0.325582 0,0.48837 0,0.162788 0.0745,0.342767 0,0.48837 -0.1053,0.205919 -0.39415,0.282459 -0.49944,0.488369 -0.0745,0.145611 0,0.325582 0,0.48837 0,0.162788 0,0.325582 0,0.488371 0,0.651161 0,1.302321 0,1.953483 0,0.162787 0,0.325579 0,0.48837 0,0.162787 0.11772,0.373262 0,0.48837 -0.11773,0.115106 -0.38171,-0.115106 -0.49945,0 -0.11773,0.115106 0,0.325579 0,0.488369 0,0.651162 0,1.30232 0,1.953482 0,0.162787 0,0.32558 0,0.488372 0,0.162787 0.16649,0.488367 0,0.488367 -0.16648,0 0,-0.325578 0,-0.488367"
       id="path4565"
       inkscape:connector-curvature="0" />
    <path
       style="opacity:1;fill:none;fill-opacity:1;stroke:#000036;stroke-width:4.80000006;stroke-linecap:round;stroke-linejoin:round;stroke-miterlimit:4;stroke-dasharray:none;stroke-opacity:1"
       d="m 120.44444,-22.158057 c 0.66592,0.325562 1.35935,0.602179 1.99777,0.976738 0.20192,0.118429 0.33296,0.325561 0.49945,0.488368 0.16649,0.162803 0.33296,0.325605 0.49945,0.488373 0.16648,0.162803 0.39415,0.282445 0.49944,0.488369 0.0745,0.145599 -0.1177,0.373228 0,0.488368 0.11771,0.115137 0.38172,-0.115136 0.49945,0 0.1177,0.115137 -0.1177,0.373229 0,0.488373 0.1177,0.115136 0.38171,-0.115136 0.49944,0 0.1177,0.115136 -0.11766,0.373228 0,0.488369 0.1177,0.115136 0.38172,-0.115136 0.49945,0 0.1177,0.115136 -0.1177,0.373228 0,0.488368 0.1177,0.115137 0.38171,-0.115136 0.49945,0 0.1177,0.115137 -0.11767,0.373229 0,0.488369 0.1177,0.115136 0.38171,-0.115136 0.49944,0 0.1177,0.115136 -0.11766,0.373271 0,0.488373 0.1177,0.115136 0.38171,-0.115136 0.49945,0 0.11766,0.115136 -0.1177,0.373228 0,0.488368 0.11766,0.115137 0.38171,-0.115136 0.49945,0 0.1177,0.115137 -0.11767,0.373229 0,0.488369 0.1177,0.115136 0.33295,0 0.49944,0 0,0.162803 -0.11767,0.373228 0,0.488369 0.11768,0.115136 0.38171,-0.115136 0.49945,0 0.11767,0.115136 -0.11768,0.373228 0,0.488373 1.33185,0 -0.16648,-0.162803 0.49944,0.488368 0.11768,0.115136 0.35051,-0.0728 0.49945,0 0.21059,0.10296 0.33295,0.325563 0.49945,0.48837 0.16648,0.162809 0.39415,0.282443 0.49944,0.488372 0,1.302316 -0.16648,-0.162809 0.49945,0.488367 0.11767,0.115134 -0.11768,0.37323 0,0.48837 0.11767,0.115134 0.3817,-0.115133 0.49944,0 0.11768,0.115134 -0.0744,0.342809 0,0.488368 0.10527,0.205917 0.39416,0.282445 0.49945,0.488374 0.0744,0.145633 -0.11768,0.373227 0,0.488368 0.11767,0.115133 0.38171,-0.115134 0.49945,0 0.23542,0.230229 -0.23543,0.746525 0,0.9767458 0.11767,0.1151338 0.3817,-0.1151338 0.49944,0 0.23543,0.2302298 -0.23543,0.7465164 0,0.9767373 0.11768,0.1151334 0.38171,-0.1151334 0.49945,0 0.23547,0.2302275 -0.23543,0.7465254 0,0.9767463 0.66594,0.6511567 0.49944,-0.8139571 0.49944,0.4883675"
       id="path4567"
       inkscape:connector-curvature="0" />
    <path
       style="opacity:1;fill:none;fill-opacity:1;stroke:#000036;stroke-width:4.80000006;stroke-linecap:round;stroke-linejoin:round;stroke-miterlimit:4;stroke-dasharray:none;stroke-opacity:1"
       d="m 38.535158,-16.785985 c 1.015398,1.872338 -1.660687,1.452977 -1.99779,2.441852 -0.105268,0.308879 0.105307,0.667872 0,0.976746 -0.07447,0.218394 -0.332956,0.325561 -0.499444,0.488368 -0.166484,0.162809 -0.28884,0.385404 -0.499447,0.488374 -0.14888,0.0728 -0.381713,-0.115133 -0.499445,0 -0.117727,0.115133 0.07447,0.342808 0,0.488368 -0.105306,0.205917 -0.332954,0.325562 -0.499447,0.488369 -0.166486,0.16281 -0.288839,0.385405 -0.499446,0.488368 -0.14888,0.07281 -0.381711,-0.115134 -0.499447,0 -0.117727,0.115134 0.07447,0.342808 0,0.488372 -0.105268,0.205918 -0.332954,0.325563 -0.499445,0.4883697 -0.166484,0.1628092 -0.332955,0.3255605 -0.499447,0.4883675 -0.166485,0.1628093 -0.288839,0.3854066 -0.499445,0.4883743 -0.148882,0.072805 -0.350512,-0.072805 -0.499447,0 -0.210593,0.1029703 -0.332955,0.3255606 -0.499442,0.4883675 -0.166485,0.1628092 -0.394151,0.2824455 -0.499448,0.4883699 -0.07447,0.1456327 0.117728,0.373227 0,0.4883675 -0.117727,0.1151334 -0.350514,-0.072806 -0.499444,0 -0.210593,0.1029703 -0.332956,0.3255628 -0.499448,0.4883742 -0.166484,0.1628093 -0.394148,0.2824433 -0.499444,0.4883675 -0.07447,0.1456328 0.117727,0.3732294 0,0.4883676 -0.117728,0.1151334 -0.381713,-0.1151335 -0.499448,0 -0.117727,0.1151334 0.117728,0.3732716 0,0.4883698 -0.117727,0.1151335 -0.350567,-0.072805 -0.499446,0 -0.210592,0.1029703 -0.28884,0.3854042 -0.499447,0.4883719 -0.14888,0.072806 -0.381711,-0.1151334 -0.499445,0 -0.117727,0.1151335 0.117728,0.3732294 0,0.4883699 -0.117727,0.1151334 -0.350564,-0.072806 -0.499447,0 -2.078571,1.0162388 0.533928,-0.033373 -0.499443,0.9767417 -0.117728,0.1151335 -0.381714,-0.1151334 -0.499445,0 -0.117727,0.1151335 0.117727,0.373227 0,0.4883676 -0.117727,0.1151334 -0.381716,-0.1151335 -0.499447,0 -0.117728,0.1151334 0,0.3255628 0,0.4883698 0,0.1628091 0,0.3255605 0,0.4883676"
       id="path4571"
       inkscape:connector-curvature="0" />
    <path
       style="opacity:1;fill:none;fill-opacity:1;stroke:#000036;stroke-width:4.80000019;stroke-linecap:round;stroke-linejoin:round;stroke-miterlimit:4;stroke-dasharray:none;stroke-opacity:1"
       d="m 108.87852,-70.418997 c -1.0962,-4.918797 1.81081,-0.793913 2.49724,-1.465113 0.11766,-0.115134 -0.1177,-0.373248 0,-0.48837 0.11766,-0.115134 0.38171,0.115133 0.49945,0 0.1177,-0.115134 -0.1177,-0.373247 0,-0.488373 0.1177,-0.115106 0.38171,0.115134 0.49944,0 0.1177,-0.115106 -0.1177,-0.373244 0,-0.488367 0.1177,-0.115133 0.35056,0.0728 0.49944,0 0.2106,-0.10297 0.28884,-0.385411 0.49945,-0.488369 0.14894,-0.0728 0.38171,0.115106 0.49945,0 0.11766,-0.115134 -0.1177,-0.373248 0,-0.48837 0.11766,-0.115133 0.38171,0.115133 0.49944,0 0.1177,-0.115133 -0.0745,-0.342793 0,-0.48837 0.10531,-0.205917 0.33296,-0.32558 0.49945,-0.488369 0.16648,-0.162787 0.28884,-0.385412 0.49944,-0.48837 0.14896,-0.0728 0.38172,0.115106 0.49945,0 0.1177,-0.115134 -0.1177,-0.373247 0,-0.48837 0.1177,-0.115106 0.38171,0.115134 0.49945,0 0.11766,-0.115106 -0.1177,-0.373247 0,-0.48837 0.11766,-0.115133 0.38171,0.115107 0.49944,0 1.03338,-1.010457 -1.57913,0.0397 0.49945,-0.976746 0.14888,-0.07283 0.38171,0.115134 0.49944,0 0.1177,-0.115133 -0.11766,-0.373246 0,-0.48837 0.1177,-0.115106 0.38172,0.115134 0.49945,0 0.1177,-0.115106 -0.1177,-0.373245 0,-0.488369 0.1177,-0.115134 0.38171,0.115133 0.49945,0 0.1177,-0.115134 -0.11767,-0.373246 0,-0.48837 0.1177,-0.115106 0.38171,0.115106 0.49944,0 0.1177,-0.115106 -0.11766,-0.373246 0,-0.488371 0.1177,-0.115134 0.35057,0.0728 0.49945,0 0.21059,-0.10297 0.28884,-0.385408 0.49945,-0.48837 0.14888,-0.0728 0.3817,0.115134 0.49944,0 0.11768,-0.115106 -0.11767,-0.373244 0,-0.48837 0.11768,-0.115133 0.38171,0.115134 0.49945,0 0.11767,-0.115133 -0.11768,-0.373244 0,-0.488369 0.11767,-0.115106 0.35055,0.0728 0.49944,0 0.21059,-0.102971 0.28885,-0.385409 0.49945,-0.48837 0.20833,-0.101878 0.88263,0.113686 0.9989,0 0.11768,-0.115133 -0.11767,-0.373244 0,-0.48837 0.11768,-0.115106 0.38171,0.115134 0.49945,0 0.11768,-0.115106 -0.11767,-0.373244 0,-0.488369 0.11768,-0.115134 0.38171,0.115133 0.49945,0 0.11767,-0.115134 -0.0745,-0.342791 0,-0.488367 0.10526,-0.205918 0.39414,-0.282446 0.49944,-0.488373 0.33295,-0.651159 -0.49944,-0.48837 0.49945,-0.48837"
       id="path4573"
       inkscape:connector-curvature="0" />
    <path
       style="opacity:1;fill:none;fill-opacity:1;stroke:#000036;stroke-width:4.80000019;stroke-linecap:round;stroke-linejoin:round;stroke-miterlimit:4;stroke-dasharray:none;stroke-opacity:1"
       d="m 52.205552,-72.927623 c -1.639608,-2.137655 -0.909738,-1.377931 -1.997786,-2.441848 -0.166485,-0.162786 -0.288842,-0.385411 -0.499448,-0.488369 -0.688917,-0.336815 -0.446744,0.591442 -0.998898,-0.48837 -0.07447,-0.145633 0.117727,-0.373247 0,-0.48837 -0.117728,-0.115133 -0.381713,0.115106 -0.499448,0 -0.117727,-0.115133 0.117728,-0.373247 0,-0.488369 -0.117727,-0.115134 -0.381712,0.115133 -0.499443,0 -0.117727,-0.115134 0,-0.325581 0,-0.48837 -0.166485,0 -0.350567,0.0728 -0.499445,0 -2.078581,-1.016246 0.533925,0.03349 -0.499447,-0.97674 -0.117727,-0.115133 -0.381714,0.115107 -0.499446,0 -0.117727,-0.115133 0.117727,-0.373247 0,-0.488369 -0.117727,-0.115134 -0.381711,0.115133 -0.499447,0 -0.117728,-0.115134 0,-0.325582 0,-0.48837 -0.166485,0 -0.38171,0.115106 -0.499445,0 -0.117727,-0.115133 0.117727,-0.373247 0,-0.488371 -0.117727,-0.115106 -0.381712,0.115133 -0.499447,0 -0.117728,-0.115106 0.117727,-0.373246 0,-0.48837 -0.117728,-0.115106 -0.38171,0.115106 -0.499445,0 -0.117727,-0.115106 0.117727,-0.373246 0,-0.48837 -1.033376,-1.010457 0.04058,1.544109 -0.998897,-0.488369 0,-1.30232 0.166486,0.162788 -0.499445,-0.48837 -0.117727,-0.115106 0.117727,-0.373247 0,-0.48837 -0.23543,-0.230193 -0.763451,0.230195 -0.998892,0 -0.117727,-0.115106 0.117727,-0.373247 0,-0.488369 -0.117727,-0.115134 -0.381712,0.115133 -0.499447,0 -0.117728,-0.115134 0.117727,-0.373248 0,-0.48837 -0.117728,-0.115106 -0.350512,0.0728 -0.499446,0 -0.210593,-0.10297 -0.332957,-0.32558 -0.499448,-0.48837 -0.166484,-0.162787 -0.394147,-0.282449 -0.499443,-0.48837 -0.07447,-0.145587 0.117727,-0.373247 0,-0.488369 -0.117727,-0.115106 -0.381714,0.115133 -0.499445,0 -0.117727,-0.115106 0.117727,-0.373245 0,-0.48837 -0.117727,-0.115106 -0.381716,0.115106 -0.499447,0 -0.117727,-0.115106 0.117727,-0.373247 0,-0.48837 -0.117727,-0.115133 -0.38171,0.115106 -0.499445,0 -0.117727,-0.115133 0.117727,-0.373262 0,-0.488369 -0.117727,-0.115107 -0.381712,0.115106 -0.499446,0 -0.29848,-0.291868 0.539841,-0.976743 -0.499447,-0.976743 -0.166485,0 0,0.325581 0,0.48837 0,0.162787 0,0.325579 0,0.48837"
       id="path4575"
       inkscape:connector-curvature="0" />
    <path
       style="opacity:1;fill:none;fill-opacity:1;stroke:#000036;stroke-width:4.80000019;stroke-linecap:round;stroke-linejoin:round;stroke-miterlimit:4;stroke-dasharray:none;stroke-opacity:1"
       d="m 120.9158,-48.375547 c 1.16537,0 2.33075,0 3.49613,0 0.16648,0 0.35056,0.0728 0.49944,0 0.2106,-0.102957 0.28884,-0.385405 0.49945,-0.488373 0.53278,-0.260475 0.46613,0.260476 0.99891,0 0.21059,-0.102956 0.28883,-0.385404 0.49945,-0.488369 0.14887,-0.0728 0.33295,0 0.49943,0 0.16649,0 0.33296,0 0.49944,0 0.16649,0 0.38172,0.115133 0.49945,0 0.11768,-0.115134 -0.11767,-0.373228 0,-0.488369 0.11768,-0.115133 0.33296,0 0.49945,0 0.49944,0 0.99889,0 1.49835,0 0.16648,0 0.3817,0.115134 0.49944,0 0.11768,-0.115133 -0.11767,-0.37327 0,-0.488368 0.11768,-0.115133 0.33295,0 0.49945,0 0.33295,0 0.66591,0 0.99888,0 0.16648,0 0.38172,0.115133 0.49944,0 0.11768,-0.115133 -0.11767,-0.373228 0,-0.488372 0.11768,-0.115134 0.33297,0 0.49945,0 0.33295,0 0.66593,0 0.99889,0 0.49945,0 0.99889,0 1.49835,0 0.16649,0 0.38171,0.115133 0.49945,0 0.11767,-0.115134 -0.11768,-0.373229 0,-0.488369 0.23543,-0.230186 0.76344,0.230185 0.99888,0 0.11767,-0.115133 0,-0.325562 0,-0.488368"
       id="path4577"
       inkscape:connector-curvature="0" />
    <path
       style="opacity:1;fill:none;fill-opacity:1;stroke:#000036;stroke-width:4.80000019;stroke-linecap:round;stroke-linejoin:round;stroke-miterlimit:4;stroke-dasharray:none;stroke-opacity:1"
       d="m 32.597957,-43.829981 c -0.665931,-0.162803 -1.331861,-0.325561 -1.997788,-0.488373 -0.166485,-0.162803 -0.28884,-0.385404 -0.499446,-0.488369 -0.208329,-0.101879 -0.882618,0.113659 -0.998893,0 -0.117727,-0.115134 0.117727,-0.373228 0,-0.488369 -0.117727,-0.115133 -0.332954,0 -0.499445,0 -0.166486,0 -0.332956,0 -0.499447,0 -0.998892,0 -1.997786,0 -2.996682,0 -0.166485,0 -0.381712,0.115134 -0.499446,0 -0.117727,-0.115133 0.117728,-0.37327 0,-0.488368 -0.117727,-0.115133 -0.332956,0 -0.499447,0 -0.166484,0 -0.332953,0 -0.499445,0 -1.498341,0 -2.996681,0 -4.495023,0 -0.499447,0 -0.998892,0 -1.498335,0 -0.166485,0 -0.381714,0.115133 -0.499446,0 -0.117727,-0.115133 0.117727,-0.373228 0,-0.488372 -0.117727,-0.115134 -0.332956,0 -0.499446,0 -0.166486,0 -0.332955,0 -0.499446,0 -0.166485,0 -0.381729,0.115133 -0.499448,0 -0.117727,-0.115134 0.117728,-0.373229 0,-0.488369 -0.235442,-0.230186 -0.998893,0.325561 -0.998893,0 0,-0.162803 0.332965,0 0.499446,0"
       id="path4579"
       inkscape:connector-curvature="0" />
  </g>
</svg>
