<?xml version="1.0" encoding="UTF-8" standalone="no"?>
<!-- Created with Inkscape (http://www.inkscape.org/) -->

<svg
   xmlns:dc="http://purl.org/dc/elements/1.1/"
   xmlns:cc="http://creativecommons.org/ns#"
   xmlns:rdf="http://www.w3.org/1999/02/22-rdf-syntax-ns#"
   xmlns:svg="http://www.w3.org/2000/svg"
   xmlns="http://www.w3.org/2000/svg"
   xmlns:sodipodi="http://sodipodi.sourceforge.net/DTD/sodipodi-0.dtd"
   xmlns:inkscape="http://www.inkscape.org/namespaces/inkscape"
   width="491.33859"
   height="491.33859"
   viewBox="0 0 130 130"
   version="1.1"
   id="svg9978"
   inkscape:version="0.92.1 r15371"
   sodipodi:docname="cafe.svg"
   inkscape:export-filename="C:\Users\PM\Documents\SitePm2\img\cafe.png"
   inkscape:export-xdpi="25.32"
   inkscape:export-ydpi="25.32">
  <defs
     id="defs9972" />
  <sodipodi:namedview
     id="base"
     pagecolor="#ffffff"
     bordercolor="#666666"
     borderopacity="1.0"
     inkscape:pageopacity="0.0"
     inkscape:pageshadow="2"
     inkscape:zoom="0.56376601"
     inkscape:cx="457.98598"
     inkscape:cy="272.5718"
     inkscape:document-units="mm"
     inkscape:current-layer="g6227"
     showgrid="false"
     fit-margin-top="0"
     fit-margin-left="0"
     fit-margin-right="0"
     fit-margin-bottom="0"
     inkscape:window-width="1366"
     inkscape:window-height="706"
     inkscape:window-x="-8"
     inkscape:window-y="-8"
     inkscape:window-maximized="1"
     units="px" />
  <metadata
     id="metadata9975">
    <rdf:RDF>
      <cc:Work
         rdf:about="">
        <dc:format>image/svg+xml</dc:format>
        <dc:type
           rdf:resource="http://purl.org/dc/dcmitype/StillImage" />
        <dc:title></dc:title>
      </cc:Work>
    </rdf:RDF>
  </metadata>
  <g
     inkscape:label="Layer 1"
     inkscape:groupmode="layer"
     id="layer1"
     transform="translate(-82.068282,45.707335)">
    <g
       style="display:inline;fill:#ffffff;fill-opacity:1;stroke:#000000;stroke-opacity:1"
       id="g6227"
       transform="translate(31.40469,40.616446)">
      <path
         inkscape:connector-curvature="0"
         id="path5212"
         d="m 50.921186,-57.492134 c 0.491894,1.439572 0.45512,0.874268 0.45512,1.664873 0,0.110946 -0.107197,0.254477 0,0.332969 0.107198,0.07843 0.347835,-0.07843 0.455121,0 0.107198,0.07843 0,0.221958 0,0.332969 0,0.332969 0,0.665945 0,0.998914 0,0.110947 -0.06783,0.233712 0,0.33297 0.09586,0.140266 0.35917,0.192572 0.455121,0.332969 0.06784,0.09932 0,0.221957 0,0.332969 0,0.221958 0,0.443981 0,0.665945 0,0.110946 -0.06784,0.233712 0,0.332969 0.09586,0.140462 0.35917,0.192573 0.455121,0.332969 0.06784,0.09932 0,0.221958 0,0.33297 0,0.110946 0,0.221957 0,0.332969 0,0.110946 -0.06784,0.233712 0,0.332969 0.09586,0.140462 0.35917,0.192572 0.455121,0.332969 0.06784,0.09932 0,0.221958 0,0.33297 0,0.332969 0,0.665945 0,0.99892 0,0.110947 -0.107197,0.254478 0,0.33297 0.107198,0.07843 0.347834,-0.07843 0.455121,0 0.107198,0.07843 0,0.221957 0,0.332969 0,0.44398 0,0.887922 0,1.33189 0,0.110946 0,0.221957 0,0.332969 0,0.110946 -0.06783,0.233712 0,0.332969 0.09586,0.140462 0.35917,0.192573 0.455121,0.332969 0.06784,0.09932 0,0.221958 0,0.33297 0,0.332969 0,0.665945 0,0.998914 0,0.221958 0,0.443981 0,0.665945 0,0.110946 -0.107197,0.254477 0,0.332969 0.107198,0.07843 0.347834,-0.07843 0.455121,0 0.107198,0.07843 0,0.221958 0,0.332969 0,0.110947 0,0.221958 0,0.33297 0,0.110946 -0.107197,0.254477 0,0.332969 0.107198,0.07843 0.347834,-0.07843 0.455121,0 0.107198,0.07843 0,0.221957 0,0.332969 0,0.554927 0,1.109906 0,1.664859 0,0.110946 -0.107198,0.254478 0,0.332969 0.107198,0.07843 0.347834,-0.07843 0.455121,0 0.107197,0.07843 0,0.221958 0,0.33297 0,0.332969 0,0.665945 0,0.99892 0,0.110947 0,0.221958 0,0.33297 0,0.110946 -0.06784,0.233711 0,0.332969 0.09586,0.140462 0.35917,0.192572 0.455121,0.332969 0.06784,0.09932 0,0.221958 0,0.332969 0,0.443981 0,0.887923 0,1.33189 0,0.110946 0,0.221958 0,0.332969 0,0.110947 -0.06783,0.233712 0,0.33297 0.09586,0.140462 0.35917,0.192572 0.455121,0.332969 0.06783,0.09932 0,0.221958 0,0.332969 0,0.221958 0,0.443981 0,0.665945 0,0.887922 0,1.775851 0,2.66378 0,0.444046 0,0.221827 0,0.665945 0,0.110946 -0.06784,0.233712 0,0.332969 0.09586,0.140463 0.35917,0.192573 0.455121,0.33297 0.06784,0.09932 0,0.221957 0,0.332969 0,0.332969 0,0.665945 0,0.998921 0,0.110946 -0.107198,0.254477 0,0.332969 0.107197,0.07843 0.347834,-0.07843 0.455121,0 0.107197,0.07843 0,0.221957 0,0.332969 0,0.332969 0,0.665945 0,0.998914 0,0.110946 -0.06784,0.233712 0,0.332969 0.09586,0.140463 0.359169,0.192573 0.455121,0.33297 0.06784,0.09932 0,0.221957 0,0.332969 0,0.110946 0,0.221958 0,0.332969 0,0.110946 -0.06784,0.233712 0,0.332969 0.09586,0.140463 0.359169,0.192573 0.455121,0.33297 0.06783,0.09932 0,0.221957 0,0.332969 0,0.221958 0,0.443981 0,0.665945 0,0.110946 -0.107198,0.254477 0,0.332969 0.107197,0.07843 0.347834,-0.07843 0.45512,0 0.107198,0.07843 0,0.222023 0,0.332969 0,0.665945 0,1.33189 0,1.997835 0,0.110946 -0.107197,0.254478 0,0.332969 0.107198,0.07843 0.347835,-0.07843 0.455121,0 0.107198,0.07843 0,0.221958 0,0.33297 0,0.110946 0,0.221957 0,0.332969 0,1.664859 0,3.329725 0,4.994584 0,0.554927 0,1.109913 0,1.664866 0,0.110946 -0.107197,0.254477 0,0.332969 0.107198,0.07843 0.347835,-0.07843 0.455121,0 0.107198,0.07843 0,0.221958 0,0.332969 0,0.665945 0,1.33189 0,1.997835 0,2.2198124 0,4.4396312 0,6.65945 0,0.665945 0,1.33189 0,1.997835 0,0.2219577 0,0.4439807 0,0.6659449 0,0.1109463 -0.06784,0.2337119 0,0.3329693 0.09586,0.1404622 0.387286,0.1840832 0.455121,0.3329692 0.09586,0.2105954 0,0.4439807 0,0.66594498 0,0.44398074 0,0.88792229921 0,1.33188998 0,0.11094621 0,0.22195771 0,0.33296922 0,0.11094621 -0.06784,0.23371192 0,0.33296922 0.09586,0.1404622 0.35917,0.1925723 0.455121,0.3329692 0.06784,0.099323 0,0.2219578 0,0.3329693 0,0.1109462 0,0.2219577 0,0.3329692 0,0.4439807 0,0.8879288 0,1.33189 0,0.7808941 -0.107197,-0.1570487 0.455121,0.665945 0.06783,0.099323 0,0.2219577 0,0.3329692 0,0.1109462 0,0.2219577 0,0.3329692 0,0.554927 0,1.1099127 0,1.6648657 0,0.1109462 0,0.2219578 0,0.3329693 0,0.1109462 -0.06784,0.2337118 0,0.3329692 0.09586,0.1404622 0.35917,0.1925723 0.455121,0.3329692 0.06784,0.099323 0,0.2219577 0,0.3329693 0,0.2219577 0,0.4439807 0,0.6659449 0,0.8879223 0,1.7758515 0,2.6637795 0,0.780888 -0.107197,-0.156918 0.455121,0.665945 0.06784,0.09932 0,0.221958 0,0.33297 0,0.110946 0,0.221957 0,0.332969 0,0.443981 0,0.887942 0,1.331903 0,0.110946 -0.06784,0.233712 0,0.332969 0.09586,0.140462 0.35917,0.192573 0.455121,0.332969 0.06784,0.09919 0,0.221958 0,0.33297 0,0.221957 -0.09586,0.455343 0,0.665945 0.06784,0.148951 0.387286,0.184083 0.455121,0.332969 0.09586,0.210595 -0.07408,0.450576 0,0.665945 0.08212,0.240764 0.372826,0.425174 0.455121,0.665945 0.07408,0.215362 -0.07408,0.450576 0,0.665945 0.0098,0.02677 0.891944,1.291828 0.910251,1.33189 0.0482,0.1052 0,0.221957 0,0.332969 0.151647,0.221958 0.303384,0.443981 0.455121,0.665945 0.151647,0.221958 0.372826,0.425174 0.455121,0.665945 0.07408,0.215362 -0.09586,0.455343 0,0.665945 0.06784,0.148951 0.387285,0.184083 0.45512,0.332969 0.09586,0.210596 -0.07408,0.450576 0,0.665945 0.08212,0.240765 0.347835,0.430464 0.455121,0.665945 0.0482,0.1052 -0.0482,0.227639 0,0.332969 0.107198,0.235475 0.372826,0.425174 0.455121,0.665945 0.07408,0.215363 -0.09586,0.455343 0,0.665945 0.06784,0.148952 0.387286,0.184084 0.455121,0.33297 0.191992,0.42119 -0.191991,0.910699 0,1.33189 0.06784,0.148951 0.35917,0.192572 0.455121,0.332969 0.06784,0.09932 0,0.221958 0,0.332969 0,0.110946 0,0.221958 0,0.332969 0,0.665945 0,1.33189 0,1.997835 0,0.110946 0,0.221958 0,0.332969 0,0.110947 -0.107197,0.254478 0,0.33297 0.107198,0.07843 0.347834,-0.07843 0.455121,0 0.107198,0.07843 0,0.221957 0,0.332969 0,0.332969 0,0.665945 0,0.998921 0,0.110946 -0.06783,0.233712 0,0.332969 0.09586,0.140462 0.35917,0.192572 0.455121,0.332969 0.06784,0.09932 0,0.221958 0,0.332969 0,0.110947 0,0.221958 0,0.33297 0,0.110946 -0.06784,0.233711 0,0.332969 0.09586,0.140462 0.35917,0.192572 0.455121,0.332969 0.06784,0.09932 0,0.221958 0,0.332969 0,0.221958 0,0.443981 0,0.665945 0,0.665945 0,1.33189 0,1.997835 0,0.110946 0,0.221958 0,0.332969 0,0.110947 -0.107197,0.254478 0,0.33297 0.107198,0.07843 0.347834,-0.07843 0.455121,0 0.106037,0.07758 -0.09497,0.527043 0,0.665945 0.09586,0.140462 0.35917,0.192572 0.455121,0.332969 0.06784,0.09932 -0.107198,0.254477 0,0.332969 0.107197,0.07843 0.347834,-0.07843 0.455121,0 0.214395,0.157049 -0.214663,0.508955 0,0.665945 0.107197,0.07843 0.347834,-0.07843 0.455121,0 0.107197,0.07843 -0.107198,0.254478 0,0.332969 0.107197,0.07843 0.347834,-0.07843 0.455121,0 0.107197,0.07843 -0.107198,0.254478 0,0.33297 0.107197,0.07843 0.347834,-0.07843 0.455121,0 0.107197,0.07843 -0.107198,0.254477 0,0.332969 0.107197,0.07843 0.347834,-0.07843 0.455121,0 0.107197,0.07843 -0.107198,0.254477 0,0.332969 0.107197,0.07843 0.347834,-0.07843 0.455121,0 0.107197,0.07843 -0.107198,0.254478 0,0.332969 0.107197,0.07843 0.347834,-0.07843 0.45512,0 0.107198,0.07843 -0.107197,0.254478 0,0.332969 0.30392,0.22235 0.606323,-0.222349 0.910251,0 0.107198,0.07843 -0.107197,0.254478 0,0.33297 0.107198,0.07843 0.347834,-0.07843 0.455121,0 0.107198,0.07843 -0.107197,0.254477 0,0.332969 0.214395,0.157049 0.695758,-0.156853 0.910251,0 0.107198,0.07843 -0.107198,0.254477 0,0.332969 0.107198,0.07843 0.303384,0 0.455121,0 0.151647,0 0.303384,0 0.455121,0 0.151647,0 0.303384,0 0.455121,0 0.151647,0 0.347834,-0.07843 0.455121,0 0.107197,0.07843 -0.107198,0.254478 0,0.332969 0.107197,0.07843 0.303384,0 0.455121,0 0.151647,0 0.303473,0 0.455121,0 0.151647,0 0.347834,-0.07843 0.455121,0 0.107197,0.07843 -0.107198,0.254478 0,0.33297 0.107197,0.07843 0.303384,0 0.455121,0 0.151647,0 0.303384,0 0.45512,0 1.517082,0 3.034164,0 4.551254,0 0.455121,0 0.910251,0 1.365372,0 0.151648,0 0.303384,0 0.455121,0 0.151648,0 0.319451,-0.04963 0.455121,0 0.191992,0.07013 0.263219,0.26277 0.455121,0.332969 0.135581,0.04963 0.303384,0 0.455121,0 0.151647,0 0.303384,0 0.455121,0 0.455121,0 0.910251,0 1.365372,0 0.151647,0 0.347834,-0.07843 0.455121,0 0.107197,0.07843 -0.107198,0.254477 0,0.332969 0.107197,0.07843 0.303384,0 0.455121,0 0.151647,0 0.303384,0 0.45512,0 1.517082,0 3.034164,0 4.551254,0 2.579043,0 5.158085,0 7.737131,0 0.60703,0 0.3032,0 0.91025,0 0.15165,0 0.34783,0.07843 0.45512,0 0.1072,-0.07843 -0.1072,-0.254478 0,-0.332969 0.1072,-0.07843 0.30338,0 0.45512,0 0.15165,0 0.30338,0 0.45512,0 2.12391,0 4.24783,0 6.37176,0 2.12391,0 4.24783,0 6.37175,0 0.91025,0 1.8205,0 2.73075,0 0.30339,0 0.60686,0 0.91025,0 0.15165,0 0.31946,0.04963 0.45513,0 0.19199,-0.07013 0.26321,-0.262771 0.45512,-0.332969 0.13576,-0.04963 0.30338,0 0.45512,0 0.60703,0 0.30329,0 0.91025,0 0.91025,0 1.8205,0 2.73075,0 0.91025,0 1.82053,0 2.73078,0 0.15165,0 0.30338,0 0.45512,0 0.15165,0 0.31945,0.04963 0.45512,0 0.19199,-0.07013 0.26322,-0.262771 0.45512,-0.33297 0.13576,-0.04963 0.30339,0 0.45512,0 0.30339,0 0.60686,0 0.91025,0 0.15165,0 0.31946,0.04963 0.45513,0 0.19199,-0.07013 0.26321,-0.26277 0.45512,-0.332969 0.13558,-0.04963 0.30338,0 0.45512,0 0.15164,0 0.30338,0 0.45512,0 0.15165,0 0.31945,0.04963 0.45512,0 0.19172,-0.07013 0.26322,-0.262771 0.45512,-0.332969 0.13576,-0.04963 0.30338,0 0.45512,0 0.60695,0 0.30321,0 0.91025,0 1.06196,0 2.12392,0 3.18588,0 0.15165,0 0.30339,0 0.45513,0 0.15164,0 0.34783,0.07843 0.45512,0 0.10719,-0.07843 -0.1072,-0.254478 0,-0.332969 0.21439,-0.157049 0.69566,0.156852 0.91025,0 0.10719,-0.07843 -0.1072,-0.254478 0,-0.33297 0.10719,-0.07843 0.34783,0.07843 0.45512,0 0.1072,-0.07843 -0.0678,-0.233711 0,-0.332969 0.0959,-0.140462 0.35917,-0.192572 0.45512,-0.332969 0.095,-0.138895 -0.10604,-0.588426 0,-0.665945 0.1072,-0.07843 0.34783,0.07843 0.45512,0 0.21466,-0.156853 -0.2144,-0.508955 0,-0.665945 0.1072,-0.07843 0.34783,0.07843 0.45512,0 0.1072,-0.07843 0,-0.221958 0,-0.332969 0,-0.110946 0,-0.221958 0,-0.332969 0,-0.110947 -0.1072,-0.254478 0,-0.33297 0.1072,-0.07843 0.34783,0.07843 0.45512,0 0.1072,-0.07843 0,-0.221957 0,-0.332969 0,-0.110946 0,-0.221958 0,-0.332969 0,-0.110946 -0.1072,-0.254478 0,-0.332969 0.1072,-0.07843 0.34784,0.07843 0.45512,0 0.1072,-0.07843 0,-0.221958 0,-0.33297 0,-0.110946 0,-0.221957 0,-0.332969 0,-0.110946 -0.10719,-0.254477 0,-0.332969 0.1072,-0.07843 0.34784,0.07843 0.45512,0 0.1072,-0.07843 0,-0.221958 0,-0.332969 0,-0.110946 0,-0.221958 0,-0.33297 0,-0.110946 -0.0678,-0.233711 0,-0.332969 0.0959,-0.140462 0.35917,-0.192572 0.45512,-0.332969 0.0678,-0.09932 0,-0.221958 0,-0.332969 0,-0.110946 0,-0.221958 0,-0.332969 0,-0.110947 -0.10719,-0.254478 0,-0.33297 0.1072,-0.07843 0.34784,0.07843 0.45513,0 0.10719,-0.07843 0,-0.221957 0,-0.332969 0,-0.221958 0,-0.443981 0,-0.665945 0,-0.110946 -0.0678,-0.233712 0,-0.332969 0.0959,-0.140462 0.35917,-0.192572 0.45512,-0.332969 0.57642,-0.843472 -0.57651,0.177553 0,-0.665945 0.0959,-0.140463 0.35917,-0.192573 0.45512,-0.33297 0.095,-0.138895 -0.10604,-0.588426 0,-0.665945 0.10719,-0.07843 0.34783,0.07843 0.45512,0 0.1072,-0.07843 0,-0.221957 0,-0.332969 0,-0.444111 0,-0.221827 0,-0.665945 0,-0.110946 -0.0678,-0.233712 0,-0.332969 0.0959,-0.140462 0.35917,-0.192572 0.45512,-0.332969 0.0678,-0.09932 0,-0.221958 0,-0.332969 0,-0.221958 0,-0.443981 0,-0.665945 0,-0.110947 -0.1072,-0.254478 0,-0.33297 0.1072,-0.07843 0.34783,0.07843 0.45512,0 0.1072,-0.07843 0,-0.221957 0,-0.332969 0,-0.221958 0,-0.443981 0,-0.665945 0,-0.110946 -0.0678,-0.233712 0,-0.332969 0.0959,-0.140462 0.35917,-0.192572 0.45512,-0.332969 0.095,-0.138895 -0.10604,-0.588427 0,-0.665945 0.1072,-0.07843 0.34784,0.07843 0.45512,0 0.1072,-0.07843 0,-0.221958 0,-0.33297 0,-0.110946 0,-0.221957 0,-0.332969 0,-0.110946 -0.1072,-0.254477 0,-0.332969 0.1072,-0.07843 0.34784,0.07843 0.45512,0 0.1072,-0.07843 0,-0.221958 0,-0.332969 0,-0.221958 0,-0.443981 0,-0.665945 0,-0.110946 -0.10719,-0.254478 0,-0.332969 0.1072,-0.07843 0.34784,0.07843 0.45512,0 0.1072,-0.07843 0,-0.221958 0,-0.33297 0,-0.110946 0,-0.221957 0,-0.332969 0,-0.110946 -0.10719,-0.254477 0,-0.332969 0.1072,-0.07843 0.34784,0.07843 0.45512,0 0.1072,-0.07843 0,-0.221958 0,-0.332969 0,-0.110947 0,-0.221958 0,-0.33297 0,-0.110946 -0.0678,-0.233711 0,-0.332969 0.0959,-0.140462 0.35917,-0.192572 0.45513,-0.332969 0.13576,-0.19858 -0.13576,-0.467424 0,-0.665945 0.0959,-0.140462 0.35917,-0.192572 0.45512,-0.332969 0.13576,-0.19858 -0.13576,-0.467424 0,-0.665945 0.0959,-0.140462 0.35917,-0.192573 0.45512,-0.332969 0.0678,-0.09932 0,-0.221958 0,-0.33297 0,-0.110946 0,-0.221957 0,-0.332969 0,-0.110946 -0.0678,-0.233712 0,-0.332969 0.0959,-0.140462 0.35917,-0.192572 0.45512,-0.332969 0.0678,-0.09932 0,-0.221958 0,-0.33297 0,-0.110946 0,-0.221957 0,-0.332969 0,-0.443981 0,-0.887922 0,-1.33189 0,-0.110946 0,-0.221957 0,-0.332969 0,-0.110946 -0.1072,-0.254478 0,-0.332969 0.1072,-0.07843 0.34783,0.07843 0.45512,0 0.1072,-0.07843 0,-0.221958 0,-0.332969 0,-0.443981 0,-0.887929 0,-1.33189 0,-0.110947 -0.1072,-0.254478 0,-0.33297 0.1072,-0.07843 0.34783,0.07843 0.45512,0 0.1072,-0.07843 0,-0.221957 0,-0.332969 0,-0.221958 0,-0.443981 0,-0.665945 0,-0.110946 -0.0678,-0.233712 0,-0.332969 0.0959,-0.140462 0.35917,-0.192572 0.45512,-0.332969 0.0678,-0.09919 0,-0.221958 0,-0.33297 0,-0.110946 0,-0.221957 0,-0.332969 0,-0.110946 -0.0678,-0.2337117 0,-0.332969 0.0959,-0.1404622 0.35917,-0.1925723 0.45512,-0.3329692 0.0678,-0.099192 0,-0.2219578 0,-0.3329693 0,-0.2219577 0,-0.4439807 0,-0.665945 0,-0.1109462 -0.1072,-0.2544775 0,-0.3329692 0.1072,-0.078426 0.34784,0.078426 0.45512,0 0.1072,-0.078426 0,-0.2219577 0,-0.3329692 0,-0.3329692 0,-0.665945 0,-0.9989208 0,-0.1109462 -0.10719,-0.2544775 0,-0.3329692 0.1072,-0.078426 0.34784,0.078426 0.45512,0 0.1072,-0.078426 0,-0.2219577 0,-0.3329692 0,-0.3329692 0,-0.665945 0,-0.9989142 0,-0.1109462 -0.10719,-0.2544776 0,-0.3329692 0.1072,-0.078426 0.34784,0.078426 0.45513,0 0.10719,-0.078426 0,-0.2219578 0,-0.3329693 0,-0.2219577 0,-0.4439807 0,-0.665945 0,-0.1109462 -0.1072,-0.2544775 0,-0.3329692 0.10719,-0.078426 0.34783,0.078426 0.45512,0 0.10719,-0.078426 0,-0.2219577 0,-0.3329692 0,-0.4441114 0,-0.2218271 0,-0.665945 0,-0.1109462 -0.0678,-0.2337119 0,-0.3329692 0.0959,-0.1404622 0.35917,-0.1925724 0.45512,-0.3329693 0.0678,-0.099323 0,-0.2219577 0,-0.3329692 0,-0.1109462 0,-0.2219577 0,-0.3329692 0,-0.1109462 -0.0678,-0.23371189 0,-0.33296924 0.0959,-0.14046221 0.35917,-0.19257232 0.45512,-0.33296923 0.57651,-0.84347198 -0.57642,0.17755311 0,-0.66594499 0.0959,-0.14046221 0.35917,-0.19257232 0.45512,-0.33296923 0.0678,-0.0993227 0,-0.22195771 0,-0.33296922 0,-0.33296919 0,-0.66594499 0,-0.99892079 0,-0.1109462 -0.1072,-0.2544775 0,-0.3329692 0.1072,-0.078426 0.34783,0.078426 0.45512,0 0.1072,-0.078426 0,-0.2219577 0,-0.3329692 0,-0.2219577 0,-0.4439808 0,-0.665945 0,-0.1109462 -0.0678,-0.2337119 0,-0.3329692 0.0959,-0.1404622 0.35917,-0.1925723 0.45512,-0.3329693 0.0678,-0.099323 0,-0.2219577 0,-0.3329692 0,-0.1109462 0,-0.2219577 0,-0.3329692 0,-0.3329692 0,-0.665945 0,-0.9989142 0,-1.2208981 0,-2.4418027 0,-3.6627007 0,-0.3329692 0,-0.665945 0,-0.998914 0,-0.110946 0,-0.221958 0,-0.332969 0,-0.110947 -0.0678,-0.233712 0,-0.33297 0.0959,-0.140462 0.35917,-0.192572 0.45512,-0.332969 0.0678,-0.09932 0,-0.221958 0,-0.332969 0,-0.110946 0,-0.221958 0,-0.332969 0,-0.443981 0,-0.887923 0,-1.33189 0,-0.110947 -0.1072,-0.254478 0,-0.33297 0.1072,-0.07843 0.34784,0.07843 0.45512,0 0.1072,-0.07843 0,-0.221957 0,-0.332969 0,-0.332969 0,-0.665945 0,-0.998914 0,-0.110946 -0.0678,-0.233712 0,-0.332969 0.0959,-0.140462 0.35917,-0.192573 0.45512,-0.332969 0.13576,-0.19858 -0.13576,-0.467424 0,-0.665945 0.0959,-0.140463 0.35917,-0.192573 0.45512,-0.33297 0.0678,-0.09932 0,-0.221957 0,-0.332969 0,-0.110946 0,-0.221958 0,-0.332969 0,-0.110946 -0.0678,-0.233712 0,-0.332969 0.0959,-0.140463 0.35917,-0.192573 0.45513,-0.33297 0.0678,-0.09932 0,-0.221957 0,-0.332969 0,-0.332969 0,-0.665945 0,-0.998921 0,-0.110946 -0.0678,-0.233711 0,-0.332969 0.0959,-0.140462 0.35917,-0.192572 0.45512,-0.332969 0.0678,-0.09932 0,-0.221958 0,-0.332969 0,-0.110946 0,-0.221958 0,-0.332969 0,-0.110947 -0.1072,-0.254478 0,-0.33297 0.10719,-0.07843 0.34783,0.07843 0.45512,0 0.10719,-0.07843 0,-0.221957 0,-0.332969 0,-0.110946 0,-0.221958 0,-0.332969 0,-0.110946 -0.0678,-0.233712 0,-0.332969 0.0959,-0.140463 0.35917,-0.192573 0.45512,-0.33297 0.0678,-0.09932 0,-0.221957 0,-0.332969 0,-0.110946 0,-0.221958 0,-0.332969 0,-0.110946 -0.1072,-0.254478 0,-0.332969 0.1072,-0.07843 0.34783,0.07843 0.45512,0 0.1072,-0.07843 0,-0.221958 0,-0.33297 0,-0.110946 0,-0.221957 0,-0.332969 0,-0.110946 -0.1072,-0.254477 0,-0.332969 0.1072,-0.07843 0.34783,0.07843 0.45512,0 0.10604,-0.07758 -0.095,-0.527043 0,-0.665945 0.0959,-0.140266 0.35917,-0.192572 0.45512,-0.332969 0.095,-0.138895 -0.10604,-0.588426 0,-0.665945 0.1072,-0.07843 0.34784,0.07843 0.45512,0 0.1072,-0.07843 0,-0.221958 0,-0.332969 0,-0.110947 0,-0.221958 0,-0.33297 0,-0.110946 -0.0678,-0.233712 0,-0.332969 0.0959,-0.140266 0.35917,-0.192572 0.45512,-0.332969 0.0678,-0.09932 0,-0.221958 0,-0.332969 0,-0.33297 0,-0.665945 0,-0.998915 0,-0.110946 -0.0678,-0.233711 0,-0.332969 0.56241,-0.822908 0.45512,0.11493 0.45512,-0.665945 0,-0.221957 0,-0.44398 0,-0.665945 0,-0.110946 -0.10719,-0.254477 0,-0.332969 0.1072,-0.07843 0.34784,0.07843 0.45512,0 0.1072,-0.07843 0,-0.221958 0,-0.332969 0,-0.110946 0,-0.221958 0,-0.332969 0,-0.776937 0,-1.553874 0,-2.330811 0,-0.110946 -0.10719,-0.254478 0,-0.332969 0.1072,-0.07843 0.34784,0.07843 0.45513,0 0.10719,-0.07843 0,-0.221958 0,-0.33297 0,-0.332969 0,-0.665945 0,-0.998914 0,-0.110946 -0.1072,-0.254477 0,-0.332969 0.10719,-0.07843 0.34783,0.07843 0.45512,0 0.10719,-0.07843 0,-0.221958 0,-0.332969 0,-0.110946 0,-0.221958 0,-0.332969 0,-0.110947 -0.0678,-0.233712 0,-0.33297 0.0959,-0.140462 0.35917,-0.192572 0.45512,-0.332969 0.095,-0.138895 -0.10604,-0.588426 0,-0.665945 0.1072,-0.07843 0.34783,0.07843 0.45512,0 0.1072,-0.07843 0,-0.221958 0,-0.332969 0,-0.443981 0,-0.887929 0,-1.33189 0,-1.33189 0,-2.66378 0,-3.99567 0,-0.332969 0,-0.665945 0,-0.998921 0,-0.110946 0,-0.221958 0,-0.332969 0,-0.110946 -0.0678,-0.233712 0,-0.332969 0.0959,-0.140462 0.35917,-0.192573 0.45512,-0.332969 0.13576,-0.19858 -0.13576,-0.467424 0,-0.665945 0.0959,-0.140463 0.35917,-0.192573 0.45512,-0.33297 0.13576,-0.19858 -0.13576,-0.467423 0,-0.665945 0.0959,-0.140462 0.35917,-0.192572 0.45512,-0.332969 0.13576,-0.19858 -0.13576,-0.467424 0,-0.665945 0.0959,-0.140462 0.35917,-0.192572 0.45512,-0.332969 0.095,-0.138895 -0.10603,-0.588426 0,-0.665945 0.1072,-0.07843 0.34784,0.07843 0.45512,0 0.1072,-0.07843 0,-0.221958 0,-0.332969 0,-0.776937 0,-1.553874 0,-2.330811 0,-0.443981 0,-0.887929 0,-1.33189 0,-0.110946 0.1072,-0.254478 0,-0.332969 -0.10719,-0.07843 -0.34783,0.07843 -0.45512,0 -0.1072,-0.07843 0.1072,-0.254478 0,-0.332969 -0.1072,-0.07843 -0.34783,0.07843 -0.45512,0 -0.1072,-0.07843 0.1072,-0.254478 0,-0.33297 -0.1072,-0.07843 -0.34783,0.07843 -0.45512,0 -0.1072,-0.07843 0.1072,-0.254477 0,-0.332969 -0.1072,-0.07843 -0.31945,0.04963 -0.45512,0 -0.19199,-0.07013 -0.26322,-0.262771 -0.45512,-0.332969 -0.13576,-0.04963 -0.31945,0.04963 -0.45512,0 -0.19199,-0.07013 -0.26322,-0.262771 -0.45512,-0.332969 -0.18985,-0.06948 -0.8043,0.07758 -0.91025,0 -0.1072,-0.07843 0.10719,-0.254478 0,-0.33297 -0.1072,-0.07843 -0.30339,0 -0.45513,0 -0.60703,0 -0.3032,0 -0.91025,0 -0.15164,0 -0.34783,0.07843 -0.45512,0 -0.10719,-0.07843 0.1072,-0.254477 0,-0.332969 -0.10719,-0.07843 -0.30338,0 -0.45512,0 -0.60686,0 -1.21367,0 -1.8205,0 -0.15165,0 -0.34783,0.07843 -0.45512,0 -0.1072,-0.07843 0.1072,-0.254477 0,-0.332969 -0.1072,-0.07843 -0.30338,0 -0.45512,0 -0.30339,0 -0.60686,0 -0.91025,0 -2.73075,0 -5.46151,0 -8.19226,0 -3.94442,0 -7.88884,0 -11.83326,0 -0.45512,0 -0.91025,0 -1.36538,0 -0.15165,0 -0.34783,0.07843 -0.45512,0 -0.1072,-0.07843 0.1072,-0.254478 0,-0.332969 -0.1072,-0.07843 -0.30339,0 -0.45512,0 -0.45512,0 -0.91025,0 -1.36537,0 -1.97222,0 -3.94443,0 -5.91664,0 -0.45512,0 -0.91027,0 -1.3654,0 -0.15164,0 -0.30338,0 -0.45512,0 -0.15165,0 -0.31945,0.04963 -0.45512,0 -0.19199,-0.07013 -0.26322,-0.262771 -0.45512,-0.33297 -0.13558,-0.04963 -0.30338,0 -0.45512,0 -0.15165,0 -0.30339,0 -0.45512,0 -0.91025,0 -1.8205,0 -2.73075,0 -0.15165,0 -0.30339,0 -0.45513,0 -0.15164,0 -0.31945,0.04963 -0.45512,0 -0.19172,-0.07013 -0.26321,-0.26277 -0.45512,-0.332969 -0.13558,-0.04963 -0.30338,0 -0.45512,0 -0.15165,0 -0.30338,0 -0.45512,0 -0.60686,0 -1.21366,0 -1.8205,0 -0.15165,0 -0.30338,0 -0.45512,0 -0.15165,0 -0.31945,0.04963 -0.45512,0 -0.19199,-0.07013 -0.26322,-0.262771 -0.45512,-0.332969 -0.13576,-0.04963 -0.30339,0 -0.45512,0 -0.15165,0 -0.30339,0 -0.45513,0 -0.45512,0 -0.91025,0 -1.36538,0 -1.51708,0 -3.03416,0 -4.55125,0 -0.15165,0 -0.30338,0 -0.45512,0 -0.15165,0 -0.34783,0.07843 -0.45512,0 -0.1072,-0.07849 0.1072,-0.254478 0,-0.332969 -0.1072,-0.07849 -0.30339,0 -0.45512,0 -0.15165,0 -0.30339,0 -0.45512,0 -1.06196,0 -2.12392,0 -3.18588,0 -0.15164,0 -0.34783,0.07849 -0.45512,0 -0.1072,-0.07849 0.1072,-0.254478 0,-0.332969 -0.1072,-0.07849 -0.30338,0 -0.45512,0 -0.45512,0 -0.91025,0 -1.36538,0 -0.15165,0 -0.31945,0.04963 -0.45512,0 -0.19199,-0.0702 -0.26322,-0.262771 -0.45512,-0.33297 -0.13576,-0.04963 -0.30339,0 -0.45512,0 -0.60704,0 -0.30321,0 -0.91025,0 -1.213674,0 -2.427345,0 -3.641006,0 -3.185883,0 -6.371756,0 -9.557638,0 -1.820502,0 -3.641003,0 -5.461505,0 -0.151648,0 -0.303384,0 -0.455121,0 -0.151647,0 -0.347834,0.07849 -0.455121,0 -0.107197,-0.07849 0.107198,-0.254477 0,-0.332969 -0.107197,-0.07849 -0.303384,0 -0.455121,0 -0.151647,0 -0.303384,0 -0.455121,0 -0.606857,0 -1.213662,0 -1.820501,0 -0.151648,0 -0.303474,0 -0.455121,0 -0.151648,0 -0.319451,0.04963 -0.455121,0 -0.191992,-0.0702 -0.263219,-0.262771 -0.455121,-0.332969 -0.135581,-0.04963 -0.303384,0 -0.455121,0 -0.151648,0 -0.303384,0 -0.455121,0 -0.455121,0 -0.910251,0 -1.365372,0 -1.972211,0 -3.944423,0 -5.916635,0 -0.45512,0 -0.91025,0 -1.365371,0 -0.151648,0 -0.347834,-0.07849 -0.455121,0 -0.107198,0.07849 0.107197,0.254477 0,0.332969 -0.107198,0.07849 -0.303384,0 -0.455121,0 -0.151648,0 -0.303384,0 -0.455121,0 -1.972212,0 -3.944423,0 -5.916626,0 -0.607036,0 -0.303206,0 -0.910251,0 -0.151647,0 -0.347834,-0.07849 -0.455121,0 -0.107197,0.07849 0.107198,0.254478 0,0.332969 -0.107197,0.07849 -0.303384,0 -0.45512,0 -0.910251,0 -1.820502,0 -2.730753,0 -0.151647,0 -0.347834,-0.07849 -0.455121,0 -0.107197,0.07849 0.107198,0.254478 0,0.33297 -0.107197,0.07849 -0.303384,0 -0.455121,0 -0.607036,0 -0.303295,0 -0.910251,0 -1.080642,0 -0.307936,-0.02677 -2.275631,0.332969 z"
         style="opacity:1;fill:none;fill-opacity:1;stroke:#000036;stroke-width:5.4;stroke-linecap:round;stroke-linejoin:round;stroke-miterlimit:4;stroke-dasharray:none;stroke-opacity:1" />
      <path
         sodipodi:nodetypes="cc"
         inkscape:connector-curvature="0"
         id="path5214"
         d="m 174.41115,-84.195893 -21.85201,33.617817"
         style="opacity:1;fill:none;fill-opacity:1;stroke:#000036;stroke-width:5.4;stroke-linecap:round;stroke-linejoin:round;stroke-miterlimit:4;stroke-dasharray:none;stroke-opacity:1" />
      <path
         inkscape:connector-curvature="0"
         id="path5216"
         d="m 77.318468,-88.125616 c -0.606858,0.221958 -1.213671,0.443981 -1.820502,0.665945 0,0.111011 0.107198,0.254477 0,0.332969 -0.107197,0.07849 -0.347834,-0.07849 -0.455121,0 -0.107197,0.07849 0.107198,0.254478 0,0.332969 -0.107197,0.07849 -0.347834,-0.07849 -0.455121,0 -0.107197,0.07849 0.107198,0.254478 0,0.33297 -0.107197,0.07849 -0.347834,-0.07849 -0.455121,0 -0.107197,0.07849 0.107198,0.254477 0,0.332969 -0.107197,0.07849 -0.347834,-0.07849 -0.455121,0 -0.303473,0.222023 0.303474,0.443915 0,0.665945 -0.107197,0.07849 -0.347834,-0.07849 -0.455121,0 -0.106037,0.07751 0.09497,0.527043 0,0.665945 -0.09586,0.140397 -0.359169,0.192572 -0.455121,0.332969 -0.06784,0.09926 0,0.221958 0,0.332969 0,0.221958 0,0.443981 0,0.665952 0,0.111011 0.06784,0.233712 0,0.332969 -0.09586,0.140397 -0.359169,0.192572 -0.45512,0.332969 -0.06784,0.09926 0,0.221958 0,0.332969 0,0.111012 0,0.221958 0,0.33297 0,0.44398 0,0.887922 0,1.33189 0,0.111011 0.06784,0.233712 0,0.332969 -0.09586,0.140397 -0.35917,0.192572 -0.455121,0.332969 -0.06784,0.09926 0,0.221958 0,0.332969 0,0.111012 0,0.221958 0,0.33297 0,0.44398 0,0.887922 0,1.33189 0,0.111011 -0.107198,0.254477 0,0.332969 0.107197,0.07849 0.347834,-0.07849 0.455121,0 0.214395,0.156983 -0.214663,0.508955 0,0.665945 0.107197,0.07849 0.347834,-0.07849 0.45512,0 0.106038,0.07751 -0.09497,0.527043 0,0.665951 0.09586,0.140397 0.35917,0.192573 0.455121,0.33297 0.09497,0.138895 -0.106037,0.588426 0,0.665945 0.107198,0.07849 0.347835,-0.07849 0.455121,0 0.214395,0.156983 -0.214662,0.508955 0,0.665944 0.107198,0.07849 0.347835,-0.07849 0.455121,0 0.107198,0.07849 0,0.221958 0,0.33297 0,0.221957 0,0.44398 0,0.665945 0,0.111011 -0.06784,0.233712 0,0.332969 0.09586,0.140397 0.35917,0.192572 0.455121,0.332969 0.06784,0.09926 0,0.221958 0,0.332969 0,0.221958 0,0.443981 0,0.665945 0,0.111012 -0.06783,0.233712 0,0.33297 0.09586,0.140397 0.35917,0.192572 0.455121,0.332969 0.06784,0.09926 0,0.221958 0,0.332969 0,0.111012 0,0.221958 0,0.332969 0,0.111012 -0.107197,0.254478 0,0.33297 0.107198,0.07849 0.347834,-0.07849 0.455121,0 0.107198,0.07849 0,0.221957 0,0.332969 0,0.332969 0,0.665945 0,0.99892 0,0.554927 0,1.109907 0,1.664873 0,0.110946 0,0.221957 0,0.332969 0,0.110946 0.06783,0.233712 0,0.332969 -0.09586,0.140267 -0.35917,0.192573 -0.455121,0.332969 -0.13576,0.198515 0.13576,0.467359 0,0.665945 -0.09586,0.140463 -0.35917,0.192573 -0.455121,0.33297 -0.06783,0.09932 0.107198,0.254477 0,0.332969 -0.107197,0.07843 -0.347834,-0.07843 -0.455121,0 -0.107197,0.07843 0.06784,0.233712 0,0.332969 -0.09586,0.140266 -0.359169,0.192572 -0.455121,0.332969 -0.06784,0.09932 0.107198,0.254478 0,0.33297 -0.606857,0.44398 -0.455121,-0.554927 -0.455121,0.332969"
         style="opacity:1;fill:none;fill-opacity:1;stroke:#000036;stroke-width:5.4;stroke-linecap:round;stroke-linejoin:round;stroke-miterlimit:4;stroke-dasharray:none;stroke-opacity:1" />
      <path
         inkscape:connector-curvature="0"
         id="path5220"
         d="m 109.63238,-84.795891 c -0.45512,0.443981 -0.91025,0.887929 -1.36537,1.33189 -0.15164,0 -0.34783,-0.07849 -0.45512,0 -0.1072,0.07849 0.1072,0.254477 0,0.332969 -0.1072,0.07849 -0.31945,-0.04963 -0.45512,0 -0.19199,0.0702 -0.26322,0.262771 -0.45512,0.332969 -0.13576,0.04963 -0.34783,-0.07849 -0.45512,0 -0.1072,0.07849 0.1072,0.254478 0,0.33297 -0.1072,0.07849 -0.31945,-0.04963 -0.45512,0 -0.19199,0.0702 -0.30339,0.221957 -0.45512,0.332969 -0.15165,0.111011 -0.30339,0.221957 -0.45512,0.332969 -0.15165,0.111012 -0.26322,0.262771 -0.45512,0.332969 -0.13576,0.04963 -0.34784,-0.07849 -0.45513,0 -0.10719,0.07849 0.0678,0.233712 0,0.332969 -0.0959,0.140397 -0.35917,0.192573 -0.45512,0.33297 -0.0678,0.09926 0.1072,0.254477 0,0.332969 -0.10719,0.07849 -0.34783,-0.07849 -0.45512,0 -0.10603,0.07751 0.095,0.527043 0,0.665945 -0.0959,0.140397 -0.35917,0.192572 -0.45512,0.332969 -0.095,0.138895 0.10604,0.588426 0,0.665945 -0.1072,0.07849 -0.34783,-0.07849 -0.45512,0 -0.21439,0.156983 0.2144,0.508955 0,0.665945 -0.1072,0.07849 -0.34783,-0.07849 -0.45512,0 -0.1072,0.07849 0,0.221958 0,0.332969 0,0.887929 0,1.775858 0,2.663787 0,0.111011 0,0.221958 0,0.332969 0,0.111012 0.1072,0.254478 0,0.332969 -0.1072,0.07849 -0.34783,-0.07849 -0.45512,0 -0.1072,0.07849 0,0.221958 0,0.332969 0,0.554927 0,1.109907 0,1.664866 0,0.111012 -0.1072,0.254478 0,0.332969 0.1072,0.07849 0.34783,-0.07849 0.45512,0 0.1072,0.07849 0,0.221958 0,0.33297 0,0.665945 0,1.33189 0,1.997835 0,0.111011 -0.1072,0.254477 0,0.332969 0.1072,0.07849 0.34783,-0.07849 0.45512,0 0.1072,0.07849 -0.0678,0.233712 0,0.332969 0.0959,0.140397 0.35917,0.192572 0.45512,0.332969 0.095,0.138895 -0.10604,0.588427 0,0.665945 0.1072,0.07849 0.34784,-0.07849 0.45512,0 0.1072,0.07849 0,0.221958 0,0.33297 0,0.44398 0,0.887928 0,1.331889 0,0.111012 0.1072,0.254478 0,0.33297 -0.1072,0.07843 -0.34783,-0.07849 -0.45512,0 -0.1072,0.07843 0,0.221957 0,0.332969 0,0.110946 0,0.221958 0,0.332969 0,0.110946 0.1072,0.254478 0,0.332969 -0.1072,0.07843 -0.34783,-0.07843 -0.45512,0 -0.1072,0.07843 0,0.221958 0,0.33297 0,0.110946 0,0.221957 0,0.332969"
         style="opacity:1;fill:none;fill-opacity:1;stroke:#000036;stroke-width:5.4;stroke-linecap:round;stroke-linejoin:round;stroke-miterlimit:4;stroke-dasharray:none;stroke-opacity:1" />
      <path
         inkscape:connector-curvature="0"
         id="path5224"
         d="m 143.7334,-81.832844 c -1.96767,0.359873 -1.19499,0.332969 -2.27563,0.332969 -0.15165,0 -0.31945,-0.04963 -0.45512,0 -0.19199,0.0702 -0.26322,0.262771 -0.45512,0.33297 -0.13576,0.04963 -0.34783,-0.07849 -0.45512,0 -0.1072,0.07849 0.0678,0.233712 0,0.332969 -0.0959,0.140397 -0.35917,0.192572 -0.45512,0.332969 -0.0678,0.09926 0.1072,0.254478 0,0.332969 -0.1072,0.07849 -0.34784,-0.07849 -0.45512,0 -0.1072,0.07849 0.0678,0.233712 0,0.33297 -0.0959,0.140397 -0.35917,0.192572 -0.45512,0.332969 -0.0678,0.09926 0.0678,0.233712 0,0.332969 -0.192,0.280794 -0.71834,0.385145 -0.91025,0.665945 -0.0678,0.09926 0.0678,0.233712 0,0.332969 -0.0959,0.140397 -0.35917,0.192573 -0.45513,0.33297 -0.0678,0.09926 0,0.221957 0,0.332969 -0.15164,0.111011 -0.35917,0.192572 -0.45512,0.332969 -0.0678,0.09926 0.1072,0.254478 0,0.332969 -0.10719,0.07849 -0.34783,-0.07849 -0.45512,0 -0.1072,0.07849 0.0678,0.233712 0,0.332969 -0.0959,0.140397 -0.38728,0.184084 -0.45512,0.33297 -0.0959,0.210595 0,0.44398 0,0.665945 0,0.111011 0.0678,0.233712 0,0.332969 -0.0959,0.140397 -0.35917,0.192572 -0.45512,0.332969 -0.13576,0.198515 0.13576,0.467424 0,0.665945 -0.0959,0.140397 -0.35917,0.192572 -0.45512,0.332969 -0.0678,0.09926 0,0.221958 0,0.33297 0,0.111011 0,0.221957 0,0.332969 0,0.111011 0.0678,0.233712 0,0.332969 -0.0959,0.140397 -0.35917,0.192572 -0.45512,0.332969 -0.0678,0.09926 0,0.221958 0,0.332969 0,0.111012 0,0.221958 0,0.33297 0,0.44398 0,0.887922 0,1.33189 0,0.221957 0,0.44398 0,0.665945 0,0.111011 -0.0678,0.233712 0,0.332969 0.0959,0.140397 0.35917,0.192572 0.45512,0.332969 0.0678,0.09926 0,0.221958 0,0.332969 0,0.111012 0,0.221958 0,0.33297 0,0.444046 0,0.221892 0,0.665945 0,0.111011 0.0482,0.227704 0,0.332969 -0.1072,0.235475 -0.34783,0.430529 -0.45512,0.665951 -0.0482,0.1052 0.0678,0.233712 0,0.33297 -1.04149,1.523881 0.18869,-1.412948 -0.91025,0.99892 -0.0482,0.1052 0.1072,0.254478 0,0.332969 -0.1072,0.07843 -0.34784,-0.07843 -0.45512,0 -0.1072,0.07843 0.0678,0.233712 0,0.33297 -0.19199,0.280794 -0.71834,0.385144 -0.91025,0.665945 -0.0678,0.09919 0.10719,0.254477 0,0.332969 -0.1072,0.07843 -0.31945,-0.04963 -0.45512,0 -0.192,0.07013 -0.26322,0.262771 -0.45513,0.332969 -0.60685,0.221958 -0.45512,-0.332969 -0.45512,0.332969"
         style="opacity:1;fill:none;fill-opacity:1;stroke:#000036;stroke-width:5.4;stroke-linecap:round;stroke-linejoin:round;stroke-miterlimit:4;stroke-dasharray:none;stroke-opacity:1" />
      <g
         aria-label="café"
         transform="matrix(1.2936989,-1.4454441,1.9757137,0.94647792,-462.69063,190.72436)"
         style="font-style:normal;font-weight:normal;font-size:40px;line-height:1.25;font-family:sans-serif;letter-spacing:0px;word-spacing:0px;fill:none;fill-opacity:1;stroke:#000036;stroke-width:1.53468334;stroke-miterlimit:4;stroke-dasharray:none;stroke-opacity:1"
         id="flowRoot5228">
        <path
           d="m 212.85547,148.80962 q -1.10156,0.52734 -2.09766,0.82031 -0.98437,0.29297 -2.09765,0.29297 -1.41797,0 -2.60157,-0.41016 -1.18359,-0.42187 -2.02734,-1.26562 -0.85547,-0.84375 -1.32422,-2.13281 -0.46875,-1.28907 -0.46875,-3.01172 0,-3.21094 1.75781,-5.03906 1.76953,-1.82813 4.66407,-1.82813 1.125,0 2.20312,0.31641 1.08984,0.3164 1.99219,0.77343 v 2.44922 h -0.11719 q -1.00781,-0.78515 -2.08594,-1.20703 -1.0664,-0.42187 -2.08593,-0.42187 -1.875,0 -2.96485,1.26562 -1.07812,1.25391 -1.07812,3.69141 0,2.36719 1.05468,3.64453 1.06641,1.26562 2.98829,1.26562 0.66796,0 1.35937,-0.17578 0.69141,-0.17578 1.24219,-0.45703 0.48047,-0.24609 0.90234,-0.51562 0.42188,-0.28125 0.66797,-0.48047 h 0.11719 z"
           style="font-size:24px;fill:none;fill-opacity:1;stroke:#000036;stroke-width:1.53468334;stroke-miterlimit:4;stroke-dasharray:none;stroke-opacity:1"
           id="path6697"
           inkscape:connector-curvature="0" />
        <path
           d="m 225.86328,149.62993 h -2.19141 v -1.39453 q -0.29296,0.19922 -0.79687,0.5625 -0.49219,0.35156 -0.96094,0.5625 -0.55078,0.26953 -1.26562,0.44531 -0.71485,0.1875 -1.67578,0.1875 -1.76954,0 -3,-1.17187 -1.23047,-1.17188 -1.23047,-2.98828 0,-1.48828 0.63281,-2.40235 0.64453,-0.92578 1.82812,-1.45312 1.19532,-0.52735 2.8711,-0.71485 1.67578,-0.1875 3.59765,-0.28125 v -0.33984 q 0,-0.75 -0.26953,-1.24219 -0.25781,-0.49218 -0.75,-0.77343 -0.46875,-0.26954 -1.125,-0.36329 -0.65625,-0.0937 -1.37109,-0.0937 -0.86719,0 -1.93359,0.23438 -1.06641,0.22266 -2.20313,0.65625 h -0.11719 v -2.23828 q 0.64453,-0.17578 1.86328,-0.38672 1.21875,-0.21094 2.40235,-0.21094 1.38281,0 2.40234,0.23438 1.03125,0.22265 1.78125,0.77343 0.73828,0.53907 1.125,1.39454 0.38672,0.85546 0.38672,2.12109 z m -2.19141,-3.22265 v -3.64454 q -1.00781,0.0586 -2.3789,0.17579 -1.35938,0.11718 -2.15625,0.33984 -0.94922,0.26953 -1.53516,0.84375 -0.58594,0.5625 -0.58594,1.55859 0,1.125 0.67969,1.69922 0.67969,0.5625 2.07422,0.5625 1.16016,0 2.12109,-0.44531 0.96094,-0.45703 1.78125,-1.08984 z"
           style="font-size:24px;fill:none;fill-opacity:1;stroke:#000036;stroke-width:1.53468334;stroke-miterlimit:4;stroke-dasharray:none;stroke-opacity:1"
           id="path6699"
           inkscape:connector-curvature="0" />
        <path
           d="m 237.17187,133.52837 h -0.11718 q -0.36328,-0.10547 -0.94922,-0.21094 -0.58594,-0.11719 -1.03125,-0.11719 -1.41797,0 -2.0625,0.63282 -0.63281,0.62109 -0.63281,2.26172 v 0.44531 h 3.97265 v 1.85156 h -3.90234 v 11.23828 h -2.20313 v -11.23828 h -1.48828 v -1.85156 h 1.48828 v -0.4336 q 0,-2.33203 1.16016,-3.57421 1.16016,-1.25391 3.35156,-1.25391 0.73828,0 1.32422,0.0703 0.59766,0.0703 1.08984,0.16406 z"
           style="font-size:24px;fill:none;fill-opacity:1;stroke:#000036;stroke-width:1.53468334;stroke-miterlimit:4;stroke-dasharray:none;stroke-opacity:1"
           id="path6701"
           inkscape:connector-curvature="0" />
        <path
           d="m 249.52344,143.31353 h -9.64453 q 0,1.20703 0.36328,2.10937 0.36328,0.89063 0.99609,1.46484 0.60938,0.5625 1.44141,0.84375 0.84375,0.28125 1.85156,0.28125 1.33594,0 2.68359,-0.52734 1.35938,-0.53906 1.9336,-1.05469 h 0.11718 v 2.40235 q -1.11328,0.46875 -2.27343,0.78515 -1.16016,0.31641 -2.4375,0.31641 -3.25782,0 -5.08594,-1.75781 -1.82813,-1.76953 -1.82813,-5.01563 0,-3.21094 1.7461,-5.09765 1.75781,-1.88672 4.61719,-1.88672 2.64843,0 4.07812,1.54687 1.44141,1.54688 1.44141,4.39453 z m -2.14453,-1.6875 q -0.0117,-1.73438 -0.87891,-2.6836 -0.85547,-0.94922 -2.61328,-0.94922 -1.76953,0 -2.82422,1.04297 -1.04297,1.04297 -1.18359,2.58985 z m 0.26953,-11.63672 -3.19922,4.38281 h -1.7461 l 2.09766,-4.38281 z"
           style="font-size:24px;fill:none;fill-opacity:1;stroke:#000036;stroke-width:1.53468334;stroke-miterlimit:4;stroke-dasharray:none;stroke-opacity:1"
           id="path6703"
           inkscape:connector-curvature="0" />
      </g>
      <path
         style="opacity:1;fill:none;fill-opacity:1;stroke:#000036;stroke-width:5.4;stroke-linecap:round;stroke-linejoin:round;stroke-miterlimit:4;stroke-dasharray:none;stroke-opacity:1"
         d="m 50.921186,-57.492136 c -1.27756,5.064528 1.492674,0.707232 2.065392,1.279949 0.07822,0.07822 -0.07822,0.253637 0,0.331856 0.07822,0.07822 0.253636,-0.07822 0.331855,0 0.07822,0.07822 -0.07822,0.253635 0,0.331854 0.07822,0.07822 0.253636,-0.07822 0.331856,0 0.07822,0.07822 -0.07822,0.253637 0,0.331856 0.07822,0.07822 0.253636,-0.07822 0.331855,0 0.07822,0.07822 -0.07822,0.253638 0,0.331856 0.264583,0.264584 0.399127,-0.264583 0.66371,0 0.07822,0.07822 0,0.221237 0,0.331854 0.110619,0 0.253636,-0.07822 0.331855,0 0.07822,0.07822 -0.07822,0.253637 0,0.331856 0.07822,0.07822 0.221237,0 0.331855,0 0.110619,0 0.221237,0 0.331856,0 0.110618,0 0.253636,-0.07822 0.331855,0 0.07822,0.07822 -0.07822,0.253635 0,0.331854 0.156438,0.15644 0.507272,-0.156438 0.66371,0 0.07822,0.07822 -0.07822,0.253637 0,0.331856 0.07822,0.07822 0.221237,0 0.331855,0 0.221237,0 0.442474,0 0.66371,0 0.110619,0 0.253637,-0.07822 0.331856,0 0.07822,0.07822 -0.07822,0.253635 0,0.331856 0.07822,0.07822 0.221237,0 0.331855,0 0.221237,0 0.442473,0 0.66371,0 0.110619,0 0.232915,-0.04947 0.331855,0 0.139923,0.06996 0.191933,0.261893 0.331856,0.331854 0.09894,0.04947 0.221237,0 0.331855,0 0.110618,0 0.221236,0 0.331855,0 0.110618,0 0.442474,0 0.331855,0 -0.221237,0 -0.884947,0 -0.66371,0 0.331855,0 0.68074,-0.104942 0.995565,0 0.104942,0.03498 0,0.221237 0,0.331856 0.110619,0 0.221237,0 0.331855,0 0.331856,0 0.663711,0 0.995566,0 0.110618,0 0.331855,-0.110619 0.331855,0 0,0.09916 -1.100625,-0.218458 0,0.331854 0.09894,0.04947 0.221237,0 0.331855,0 0.331856,0 0.663711,0 0.995566,0 0.110618,0 0.221237,0 0.331855,0 0.110618,0 0.253636,-0.07822 0.331855,0 0.07822,0.07822 -0.07822,0.253638 0,0.331856 0.07822,0.07822 0.221237,0 0.331855,0 0.442474,0 0.884948,0 1.327421,0 0.110618,0 0.253636,-0.07822 0.331855,0 0.07822,0.07822 -0.07822,0.253635 0,0.331854 0.07822,0.07822 0.221237,0 0.331855,0 0.331856,0 0.663711,0 0.995566,0 0.331855,0 0.66371,0 0.995565,0 0.110619,0 0.253637,-0.07822 0.331856,0 0.07822,0.07822 -0.07822,0.253637 0,0.331856 0.07822,0.07822 0.221236,0 0.331855,0 0.553092,0 1.106184,0 1.659276,0 0.110618,0 0.253636,-0.07822 0.331855,0 0.07822,0.07822 -0.07822,0.253635 0,0.331857 0.07822,0.07822 0.221237,0 0.331855,0 0.442474,0 0.884947,0 1.327421,0 0.442473,0 0.884947,0 1.32742,0 0.110619,0 0.253636,-0.07822 0.331855,0 0.07822,0.07822 -0.07822,0.253634 0,0.331853 0.07822,0.07822 0.221237,0 0.331856,0 0.110618,0 0.221236,0 0.331855,0 0.884947,0 1.769895,0 2.654841,0 0.110617,0 0.221237,0 0.331857,0 0.110617,0 0.253634,-0.07822 0.331853,0 0.07822,0.07822 -0.07822,0.253638 0,0.331856 0.07822,0.07822 0.221237,0 0.331856,0 0.553091,0 1.106184,0 1.659277,0 1.880512,0 3.761023,0 5.641535,0 0.553093,0 1.106186,0 1.659276,0 0.11062,0 0.221237,0 0.331857,0 0.110617,0 0.232915,-0.04947 0.331853,0 0.139925,0.06996 0.191934,0.261893 0.331857,0.331854 0.09894,0.04947 0.221236,0 0.331856,0 0.110617,0 0.221237,0 0.331854,0 0.442473,0 0.884946,0 1.327419,0 0.331857,0 0.663713,0 0.995567,0 0.110619,0 0.232915,-0.04947 0.331856,0 0.139922,0.06996 0.191931,0.261895 0.331854,0.331856 0.09894,0.04947 0.221236,0 0.331856,0 0.110617,0 0.221237,0 0.331856,0 0.442473,0 0.884947,0 1.32742,0 0.110617,0 0.221237,0 0.331854,0 0.110619,0 0.232915,-0.04947 0.331856,0 0.139922,0.06996 0.191934,0.261893 0.331856,0.331854 0.09894,0.04947 0.221237,0 0.331854,0 0.11062,0 0.221237,0 0.331856,0 0.331854,0 0.66371,0 0.995564,0 0.110619,0 0.253637,-0.07822 0.331856,0 0.07822,0.07822 -0.07822,0.253638 0,0.331856 0.07822,0.07822 0.221237,0 0.331856,0 0.110617,0 0.221237,0 0.331854,0 0.66371,0 1.327423,0 1.991134,0 0.11062,0 0.25363,-0.07822 0.33185,0 0.0782,0.07822 -0.0782,0.253638 0,0.331857 0.0782,0.07822 0.22124,0 0.33186,0 0.44247,0 0.88494,0 1.32742,0 0.11062,0 0.25364,-0.07822 0.33185,0 0.0782,0.07822 -0.0782,0.253634 0,0.331853 0.0782,0.07822 0.22124,0 0.33186,0 0.11062,0 0.22123,0 0.33185,0 0.99557,0 1.99113,0 2.9867,0 2.54422,0 5.08845,0 7.63267,0 0.44247,0 0.88495,0 1.32742,0 0.11062,0 0.25364,-0.07822 0.33185,0 0.0782,0.07822 -0.0782,0.253638 0,0.331857 0.0782,0.07822 0.22124,0 0.33186,0 0.44247,0 0.88495,0 1.32742,0 2.32299,0 4.64597,0 6.96896,0 0.33186,0 0.66371,0 0.99557,0 0.11061,0 0.25363,0.07822 0.33185,0 0.0782,-0.07822 -0.0782,-0.253638 0,-0.331857 0.0782,-0.07822 0.22124,0 0.33186,0 0.22123,0 0.44247,0 0.66371,0 1.65927,0 3.31855,0 4.97782,0 3.78718,0 3.69161,0 7.30082,0 1.10618,0 2.21236,0 3.31855,0 0.33185,0 0.66371,0 0.99556,0 0.11062,0 0.44248,0 0.33186,0 -0.22124,0 -0.88495,0 -0.66371,0 0.44247,0 0.88495,0 1.32742,0 0.11062,0 0.44247,0 0.33186,0 -0.22124,0 -0.88495,0 -0.66372,0 0.33186,0 0.66372,0 0.99557,0 0.11062,0 0.33186,-0.110617 0.33186,0 0,0.11062 -0.44248,0 -0.33186,0 1.88051,0 3.76103,0 5.64154,0 0.44247,0 0.88495,0 1.32742,0 0.11062,0 0.33185,-0.110617 0.33185,0 0,0.11062 -0.44247,0 -0.33185,0 0.44247,0 0.88494,0 1.32742,0 0.11062,0 0.33185,-0.110617 0.33185,0 0,0.11062 -0.44247,0 -0.33185,0 0.22124,0 0.44247,0 0.66371,0 0.11062,0 0.23292,0.04947 0.33185,0 0.13993,-0.06996 0.19194,-0.261892 0.33186,-0.331853 0.19788,-0.09894 0.46583,0.09894 0.66371,0 0.13992,-0.06996 0.19193,-0.261896 0.33186,-0.331857 0.0989,-0.04947 0.33185,-0.110617 0.33185,0 0,0.11062 -0.44247,0 -0.33185,0 0.33185,0 0.66371,0 0.99556,0 0.11062,0 0.25364,0.07822 0.33186,0 0.0782,-0.07822 -0.0782,-0.253635 0,-0.331856 0.0782,-0.07822 0.33185,-0.110617 0.33185,0 0,0.11062 -0.44247,0 -0.33185,0 0.33185,0 0.66371,0 0.99556,0 0.11062,0 0.25364,0.07822 0.33186,0 0.0782,-0.07822 -0.0782,-0.253635 0,-0.331854 0.0782,-0.07822 0.22123,0 0.33185,0 0.11062,0 0.22124,0 0.33186,0 0.11062,0 0.25363,0.07822 0.33185,0 0.0782,-0.07822 -0.0782,-0.253637 0,-0.331856 0.0782,-0.07822 0.22124,0 0.33186,0 0.11062,0 0.22124,0 0.33185,0 0.11062,0 0.25364,0.07822 0.33186,0 0.44247,-0.442473 -0.55309,-0.331854 0.33185,-0.331854 0.77826,0 -0.15643,0.07822 0.66371,-0.331856 0.13844,-0.06922 0.58646,0.07726 0.66372,0 0.0782,-0.07822 -0.0782,-0.253635 0,-0.331853 0.0782,-0.07822 0.22123,0 0.33185,0 0.11062,0 0.44247,0 0.33186,0 -0.22124,0 -0.82015,0.156437 -0.66371,0 0.36683,-0.366837 0.87776,-0.331857 1.32742,-0.331857 0.11061,0 0.25363,0.07822 0.33185,0 0.0782,-0.07822 -0.0782,-0.253635 0,-0.331856 0.15644,-0.156438 0.50727,0.15644 0.66371,0 0.0782,-0.07822 -0.0782,-0.253635 0,-0.331854 0.22087,-0.220869 0.44284,0.220869 0.66371,0 0.0782,-0.07822 -0.0782,-0.253637 0,-0.331856 0.15644,-0.156438 0.50727,0.156438 0.66371,0 0.0782,-0.07822 -0.0782,-0.253635 0,-0.331854 0.15644,-0.156437 0.50727,0.156438 0.66371,0 0.0782,-0.07822 -0.0782,-0.253637 0,-0.331856 0.0782,-0.07822 0.44247,0 0.33186,0 -0.22124,0 -0.44248,0 -0.66371,0 -0.22124,0 -0.44908,0.05366 -0.66372,0 -0.23996,-0.05999 -0.44247,-0.221237 -0.66371,-0.331854"
         id="path7723"
         inkscape:connector-curvature="0" />
    </g>
  </g>
</svg>
