<?xml version="1.0" encoding="UTF-8" standalone="no"?>
<!-- Created with Inkscape (http://www.inkscape.org/) -->

<svg
   xmlns:dc="http://purl.org/dc/elements/1.1/"
   xmlns:cc="http://creativecommons.org/ns#"
   xmlns:rdf="http://www.w3.org/1999/02/22-rdf-syntax-ns#"
   xmlns:svg="http://www.w3.org/2000/svg"
   xmlns="http://www.w3.org/2000/svg"
   xmlns:sodipodi="http://sodipodi.sourceforge.net/DTD/sodipodi-0.dtd"
   xmlns:inkscape="http://www.inkscape.org/namespaces/inkscape"
   width="140mm"
   height="75mm"
   viewBox="0 0 140 74.999998"
   version="1.1"
   id="svg17288"
   inkscape:version="0.92.1 r15371"
   sodipodi:docname="integrales.svg">
  <defs
     id="defs17282" />
  <sodipodi:namedview
     id="base"
     pagecolor="#ffffff"
     bordercolor="#666666"
     borderopacity="1.0"
     inkscape:pageopacity="0.0"
     inkscape:pageshadow="2"
     inkscape:zoom="0.93498794"
     inkscape:cx="153.83978"
     inkscape:cy="47.695399"
     inkscape:document-units="mm"
     inkscape:current-layer="layer1"
     showgrid="false"
     fit-margin-top="0"
     fit-margin-left="0"
     fit-margin-right="0"
     fit-margin-bottom="0"
     inkscape:window-width="1366"
     inkscape:window-height="706"
     inkscape:window-x="-8"
     inkscape:window-y="-8"
     inkscape:window-maximized="1" />
  <metadata
     id="metadata17285">
    <rdf:RDF>
      <cc:Work
         rdf:about="">
        <dc:format>image/svg+xml</dc:format>
        <dc:type
           rdf:resource="http://purl.org/dc/dcmitype/StillImage" />
        <dc:title></dc:title>
      </cc:Work>
    </rdf:RDF>
  </metadata>
  <g
     inkscape:label="Layer 1"
     inkscape:groupmode="layer"
     id="layer1"
     transform="translate(-39.568419,-38.734057)">
    <g
       style="display:inline;fill:#ffffff;fill-opacity:1;stroke:#000036;stroke-width:0.30418421;stroke-opacity:1;stroke-miterlimit:4;stroke-dasharray:none"
       id="g6538"
       transform="matrix(7.1301709,0,0,8.9356079,-1278.5865,-221.14189)">
      <path
         inkscape:connector-curvature="0"
         id="path6511"
         d="m 192.79517,33.605517 c 0.47591,0.04419 -0.051,0.248156 -0.051,0.203962 0,-0.07008 0.11108,-0.167907 0.051,-0.203962 -0.0887,-0.05319 -0.2036,0.03637 -0.30594,0.05099 -0.0168,0.0024 -0.034,0 -0.051,0 -0.034,0 -0.068,0 -0.10198,0 -0.017,0 -0.0358,-0.0076 -0.051,0 -0.0215,0.01074 -0.0295,0.04024 -0.051,0.05099 -0.0152,0.0076 -0.039,-0.01201 -0.051,0 -0.1055,0.105503 0.16122,-0.0041 -0.051,0.101981 -0.0152,0.0076 -0.0358,-0.0076 -0.051,0 -0.0215,0.01074 -0.034,0.03399 -0.051,0.05099 -0.017,0.01699 -0.0402,0.02949 -0.051,0.05099 -0.008,0.01521 0.008,0.03579 0,0.05099 -0.0107,0.02151 -0.0402,0.02949 -0.051,0.05099 -0.008,0.01521 0.008,0.03579 0,0.05099 -0.0107,0.02151 -0.0434,0.02819 -0.051,0.05099 -0.0107,0.03225 0.0107,0.06973 0,0.101981 -0.004,0.01138 -0.0947,0.08734 -0.10198,0.101981 -0.008,0.01521 0.008,0.03579 0,0.05099 -0.0107,0.02151 -0.0402,0.02949 -0.051,0.05099 -0.004,0.0076 0.004,0.091 0,0.101981 -0.012,0.03606 -0.039,0.06593 -0.051,0.101981 -0.005,0.01611 0.005,0.03487 0,0.05099 -0.012,0.03606 -0.0418,0.06511 -0.051,0.101981 -0.0165,0.06596 0.0165,0.138006 0,0.203962 -0.009,0.03687 -0.039,0.06593 -0.051,0.101981 -0.005,0.01614 0,0.03399 0,0.05099 0,0.01699 0,0.03399 0,0.05099 0,0.01699 0.008,0.03579 0,0.05099 -0.0108,0.02151 -0.0402,0.02949 -0.051,0.05099 -0.008,0.01521 0,0.03399 0,0.05099 0,0.03399 0,0.06799 0,0.101981 0,0.01699 -0.012,0.03897 0,0.05099 0.012,0.01201 0.039,-0.01201 0.051,0 0.012,0.01201 -0.008,0.03579 0,0.05099 0.0107,0.02151 0.034,0.03399 0.051,0.05099 0.051,0.05099 0.10198,0.101981 0.15297,0.152971 0.017,0.01699 0.0376,0.03099 0.051,0.05099 0.017,0.03399 0.034,0.06799 0.051,0.101983 0.017,0 0.039,-0.01201 0.051,0 0.012,0.01201 -0.012,0.03897 0,0.05099 0.012,0.01201 0.0358,-0.0076 0.051,0 0.0215,0.01074 0.0295,0.04024 0.051,0.05099 0.0152,0.0076 0.034,0 0.051,0 0.017,0 0.0358,0.0076 0.051,0 0.0215,-0.01074 0.0282,-0.04339 0.051,-0.05099 0.0323,-0.01074 0.0697,0.01074 0.10198,0 0.0228,-0.0076 0.031,-0.03766 0.051,-0.05099 0.0316,-0.02109 0.0704,-0.02991 0.10198,-0.05099 0.02,-0.01334 0.034,-0.03399 0.051,-0.05099 0.017,-0.01699 0.0282,-0.04339 0.051,-0.05099 0.23212,0 0.003,0.02402 0.15297,-0.05099 0.0152,-0.0076 0.039,0.01201 0.051,0 0.012,-0.01201 -0.008,-0.03579 0,-0.05099 0.0215,-0.043 0.0805,-0.05898 0.10198,-0.101981 0.008,-0.01521 -0.008,-0.03579 0,-0.05099 0.0107,-0.02151 0.0402,-0.02949 0.051,-0.05099 0.008,-0.01519 -0.008,-0.03579 0,-0.05099 0.0107,-0.02151 0.0402,-0.02949 0.051,-0.05099 0.0152,-0.0304 -0.0152,-0.07157 0,-0.101981 0.0107,-0.02151 0.0434,-0.02819 0.051,-0.05099 0.0107,-0.03225 -0.0107,-0.06973 0,-0.101981 0.008,-0.02281 0.0434,-0.02819 0.051,-0.05099 0.003,-0.0094 -0.003,-0.191664 0,-0.203962 0.009,-0.03687 0.039,-0.06592 0.051,-0.101981 0.005,-0.01611 0,-0.03399 0,-0.05099 0,-0.01699 0,-0.03399 0,-0.05099 0,-0.01699 -0.008,-0.03579 0,-0.05099 0.0107,-0.02151 0.0402,-0.02949 0.051,-0.05099 0.008,-0.01521 0,-0.03399 0,-0.05099 0,-0.01699 0,-0.03399 0,-0.05099 0,-0.06799 0,-0.135974 0,-0.203962 0,-0.03399 0,-0.06799 0,-0.101981 0,-0.01699 -0.008,-0.03579 0,-0.05099 0.0107,-0.02151 0.0434,-0.02819 0.051,-0.05099 0.0107,-0.03225 0,-0.06799 0,-0.101981 0,-0.05099 0,-0.101981 0,-0.152971 0,-0.03399 -0.0107,-0.06973 0,-0.101981 0.063,-0.189027 0.051,0.06216 0.051,-0.101981 0,-0.05099 0,-0.101981 0,-0.152972 0,-0.01699 0,-0.03399 0,-0.05099 0,-0.01699 -0.008,-0.03579 0,-0.05099 0.0107,-0.02151 0.0402,-0.02949 0.051,-0.05099 0.008,-0.01521 0,-0.03399 0,-0.05099 0,-0.05099 0,-0.101981 0,-0.152971 0,-0.169969 0,-0.339937 0,-0.509905 0,-0.06799 0,-0.135975 0,-0.203962 0,-0.01699 0,-0.03399 0,-0.05099 0,-0.01699 -0.017,-0.05099 0,-0.05099 0.017,0 0,0.03399 0,0.05099 0,0.03399 0,0.06799 0,0.101981 0,0.169969 0,0.339937 0,0.509905 0,0.135975 0,0.27195 0,0.407924 0,0.05099 0.01,0.102971 0,0.152972 -0.007,0.03727 -0.0418,0.06511 -0.051,0.101981 -0.008,0.03298 0,0.06799 0,0.101981 0,0.101981 0,0.203962 0,0.305943 0,0.186965 0,0.37393 0,0.560895 0,0.05099 0,0.101981 0,0.152972 0,0.03399 0.0107,0.06973 0,0.101981 -0.008,0.02281 -0.0402,0.02949 -0.051,0.05099 -0.008,0.01521 0,0.03399 0,0.05099 0,0.03399 0,0.06799 0,0.101981 0,0.05099 0,0.101981 0,0.152971 0,0.01699 -0.008,0.03579 0,0.05099 0.10611,0.212211 -0.004,-0.05451 0.10198,0.05099 0.012,0.01201 -0.012,0.03897 0,0.05099 0.012,0.01201 0.039,-0.01201 0.051,0 0.012,0.01201 -0.012,0.03897 0,0.05099 0.012,0.01201 0.034,0 0.051,0 0.017,0 0.034,0 0.051,0 0.051,0 0.10199,0 0.15298,0 0.017,0 0.0358,0.0076 0.051,0 0.16911,-0.169114 -0.0481,0.02402 0.10198,-0.05099 0.0215,-0.01074 0.0295,-0.04024 0.051,-0.05099 0.0152,-0.0076 0.039,0.01201 0.051,0 0.012,-0.01201 -0.008,-0.03579 0,-0.05099 0.0215,-0.043 0.0805,-0.05898 0.10198,-0.101981 0.008,-0.01519 -0.005,-0.03486 0,-0.05099 0.14445,-0.288896 -0.019,0.07601 0.051,-0.203962 0.009,-0.03687 0.039,-0.06592 0.051,-0.101981 0.005,-0.01611 0,-0.03399 0,-0.05099 0,-0.03399 0,-0.06799 0,-0.101981 0,-0.01699 -0.008,-0.03579 0,-0.05099 0.0107,-0.02151 0.0402,-0.02949 0.051,-0.05099 0.0106,-0.02127 -0.0119,-0.09011 0,-0.101981 0.012,-0.01201 0.039,0.01201 0.051,0 0.0119,-0.01188 -0.0106,-0.08071 0,-0.101981 0.16912,-0.169114 -0.024,0.04807 0.051,-0.101981 0.0107,-0.02151 0.0402,-0.02949 0.051,-0.05099 0.0106,-0.02127 -0.0119,-0.09011 0,-0.101981 0.012,-0.01201 0.039,0.01201 0.051,0 0.10551,-0.1055 -0.16122,0.0041 0.051,-0.101981 0.0152,-0.0076 0.034,0 0.051,0 0.034,0 0.068,0 0.10199,0 0.051,0 0.10198,0 0.15297,0 0.017,0 0.0358,-0.0076 0.051,0 0.10013,0.05007 0.0238,0.122439 0.051,0.203962 0.008,0.02281 0.0402,0.02949 0.051,0.05099 0.008,0.01521 0,0.03399 0,0.05099 0.017,0.01699 0.0402,0.02949 0.051,0.05099 0.0152,0.03041 -0.0152,0.07158 0,0.101981 0.0107,0.02151 0.0402,0.02949 0.051,0.05099 0.0152,0.03041 -0.0152,0.07158 0,0.101981 0.0107,0.02151 0.0434,0.02819 0.051,0.05099 0.0107,0.03225 0,0.06799 0,0.101981 0,0.01699 0,0.03399 0,0.05099 0,0.01699 -0.008,0.03579 0,0.05099 0.0107,0.02151 0.0402,0.02949 0.051,0.05099 0.0152,0.03041 -0.0152,0.07158 0,0.101981 0.0107,0.02151 0.0402,0.02949 0.051,0.05099 0.0152,0.03041 -0.0152,0.07158 0,0.101981 0.0107,0.02151 0.0402,0.02949 0.051,0.05099 0.008,0.01521 -0.012,0.03897 0,0.05099 0.012,0.01201 0.039,-0.01201 0.051,0 0.012,0.01201 -0.012,0.03897 0,0.05099 0.012,0.01201 0.039,-0.01201 0.051,0 0.012,0.01201 -0.012,0.03897 0,0.05099 0.012,0.01201 0.039,-0.01201 0.051,0 0.012,0.01201 -0.012,0.03897 0,0.05099 0.012,0.01201 0.039,-0.01201 0.051,0 0.012,0.01201 0,0.03399 0,0.05099 0,0.01699 0,0.03399 0,0.05099"
         style="opacity:1;fill:#ffffff;fill-opacity:1;stroke:#000036;stroke-width:0.30418421;stroke-linecap:round;stroke-linejoin:round;stroke-miterlimit:4;stroke-dasharray:none;stroke-opacity:1" />
      <path
         inkscape:connector-curvature="0"
         id="path6513"
         d="m 195.90559,33.86047 c -0.0298,0.119385 -0.0361,0.207145 -0.10198,0.305943 -0.005,0.0069 -0.0996,0.09728 -0.10198,0.101981 -0.008,0.01521 0.012,0.03897 0,0.05099 -0.0269,0.02687 -0.0704,0.02991 -0.10198,0.05099 -0.02,0.01333 -0.034,0.03399 -0.051,0.05099 -0.017,0.01699 -0.0377,0.03099 -0.051,0.05099 -0.0211,0.03162 -0.0241,0.07511 -0.051,0.101981 -0.0269,0.02688 -0.068,0.03399 -0.10198,0.05099 -0.034,0.01699 -0.0716,0.02819 -0.10198,0.05099 -0.0769,0.05769 -0.12704,0.146275 -0.20396,0.203962 -0.0304,0.02281 -0.0704,0.02991 -0.10198,0.05099 -0.02,0.01334 -0.0295,0.04024 -0.051,0.05099 -0.0152,0.0076 -0.0358,-0.0076 -0.051,0 -0.0215,0.01074 -0.0295,0.04024 -0.051,0.05099 -0.0152,0.0076 -0.039,-0.01201 -0.051,0 -0.012,0.01201 0,0.03399 0,0.05099 0,0.01699 0,0.03399 0,0.05099 0,0.01699 0.012,0.03897 0,0.05099 -0.0119,0.01188 -0.0807,-0.01064 -0.10198,0 -0.0215,0.01074 -0.034,0.03399 -0.051,0.05099 -0.017,0.01699 -0.034,0.03399 -0.051,0.05099 -0.068,0.06796 -0.034,0.03402 -0.10199,0.101981 -0.017,0.01699 -0.0402,0.02949 -0.051,0.05099 -0.075,0.150056 0.11813,-0.06713 -0.051,0.101981 -0.017,0.01699 -0.0295,0.04024 -0.051,0.05099 -0.0213,0.01064 -0.0901,-0.01188 -0.10198,0 -0.012,0.01201 0.005,0.03487 0,0.05099 -0.0309,0.09261 -0.0436,0.09463 -0.10198,0.152972"
         style="opacity:1;fill:#ffffff;fill-opacity:1;stroke:#000036;stroke-width:0.30418421;stroke-linecap:round;stroke-linejoin:round;stroke-miterlimit:4;stroke-dasharray:none;stroke-opacity:1" />
      <path
         inkscape:connector-curvature="0"
         id="path6515"
         d="m 197.74125,34.064432 c -0.17461,0.05327 -0.15761,-0.15529 -0.25495,-0.203962 -0.0152,-0.0076 -0.034,0 -0.051,0 -0.017,0 -0.034,0 -0.051,0 -0.017,0 -0.034,0 -0.051,0 -0.017,0 -0.0358,-0.0076 -0.051,0 -0.0215,0.01074 -0.0295,0.04024 -0.051,0.05099 -0.0152,0.0076 -0.0358,-0.0076 -0.051,0 -0.0215,0.01074 -0.034,0.03399 -0.051,0.05099 -0.017,0.01699 -0.0402,0.02949 -0.051,0.05099 -0.008,0.01521 0.008,0.03579 0,0.05099 -0.0107,0.02151 -0.034,0.03399 -0.051,0.05099 -0.034,0.03399 -0.068,0.06799 -0.10198,0.101981 -0.017,0.01699 -0.0402,0.02949 -0.051,0.05099 -0.008,0.01521 0.008,0.03579 0,0.05099 -0.0215,0.043 -0.0805,0.05898 -0.10198,0.101981 -0.0106,0.02127 0.0119,0.09011 0,0.101981 -0.012,0.01201 -0.039,-0.01201 -0.051,0 -0.012,0.01201 0.005,0.03487 0,0.05099 -0.012,0.03606 -0.0299,0.07036 -0.051,0.101981 -0.16912,0.169116 0.0241,-0.04808 -0.051,0.101981 -0.0107,0.02151 -0.0402,0.02949 -0.051,0.05099 -0.008,0.01521 0,0.03399 0,0.05099 0,0.01699 0,0.03399 0,0.05099 0,0.01699 0.012,0.03897 0,0.05099 -0.012,0.01201 -0.039,-0.01201 -0.051,0 -0.012,0.01201 0,0.03399 0,0.05099 0,0.101981 0,0.203962 0,0.305943 0,0.01699 -0.008,0.03579 0,0.05099 0.0215,0.043 0.0805,0.05898 0.10198,0.101981 0.008,0.01521 -0.012,0.03897 0,0.05099 0.012,0.01201 0.039,-0.01201 0.051,0 0.0241,0.02402 -0.024,0.07795 0,0.101981 0.012,0.01201 0.0358,-0.0076 0.051,0 0.0215,0.01074 0.0295,0.04024 0.051,0.05099 0.0152,0.0076 0.039,-0.01201 0.051,0 0.012,0.01201 -0.012,0.03897 0,0.05099 0.012,0.01201 0.034,0 0.051,0 0.017,0 0.034,0 0.051,0 0.017,0 0.0358,-0.0076 0.051,0 0.0215,0.01074 0.0295,0.04024 0.051,0.05099 0.0152,0.0076 0.034,0 0.051,0 0.017,0 0.034,0 0.051,0 0.017,0 0.039,0.01201 0.051,0 0.012,-0.01201 -0.008,-0.03579 0,-0.05099 0.0108,-0.02151 0.034,-0.03399 0.051,-0.05099 0.017,-0.01699 0.034,-0.03399 0.051,-0.05099 0.017,-0.01699 0.0402,-0.02949 0.051,-0.05099 0.008,-0.01519 -0.012,-0.03897 0,-0.05099 0.012,-0.01201 0.0358,0.0076 0.051,0 0.2122,-0.106103 -0.0545,0.0035 0.051,-0.101981 0.012,-0.01201 0.039,0.01201 0.051,0 0.012,-0.01201 -0.012,-0.03897 0,-0.05099 0.012,-0.01201 0.0358,0.0076 0.051,0 0.0215,-0.01074 0.0295,-0.04024 0.051,-0.05099 0.0152,-0.0076 0.039,0.01201 0.051,0 0.012,-0.01201 -0.008,-0.03579 0,-0.05099 0.0107,-0.02148 0.0402,-0.02949 0.051,-0.05099 0.008,-0.01521 -0.005,-0.03486 0,-0.05099 0.012,-0.03605 0.039,-0.06592 0.051,-0.101981 0.004,-0.01098 -0.004,-0.09439 0,-0.101981 0.0107,-0.02151 0.0434,-0.02819 0.051,-0.05099 0.0107,-0.03225 -0.0107,-0.06973 0,-0.101981 0.008,-0.02281 0.0402,-0.02949 0.051,-0.05099 0.008,-0.01519 -0.008,-0.03579 0,-0.05099 0.0107,-0.02151 0.0402,-0.02949 0.051,-0.05099 0.0106,-0.02127 -0.0119,-0.09011 0,-0.101981 0.012,-0.01201 0.039,0.01201 0.051,0 0.0119,-0.01188 -0.0106,-0.08071 0,-0.101981 0.0107,-0.02151 0.0402,-0.02949 0.051,-0.05099 0.004,-0.0076 -0.004,-0.091 0,-0.101981 0.012,-0.03605 0.0418,-0.06511 0.051,-0.101981 0.003,-0.0123 -0.003,-0.194598 0,-0.203962 0.008,-0.02281 0.0434,-0.02819 0.051,-0.05099 0.0107,-0.03225 0,-0.06799 0,-0.101981 0,-0.01699 -0.012,-0.03897 0,-0.05099 0.012,-0.01201 0.039,0.01201 0.051,0 0.012,-0.01201 0,-0.03399 0,-0.05099 0,-0.05099 0,-0.101981 0,-0.152972 0,-0.01699 0,-0.03399 0,-0.05099 0,-0.01699 -0.008,-0.03579 0,-0.05099 0.0108,-0.02151 0.0402,-0.02949 0.051,-0.05099 0.008,-0.01521 0,-0.03399 0,-0.05099 0,-0.01699 0,-0.03399 0,-0.05099 0,-0.08498 0,-0.169969 0,-0.254953 0,-0.06799 0,-0.135974 0,-0.203962 0,-0.01699 -0.017,-0.05099 0,-0.05099 0.017,0 0,0.03399 0,0.05099 0,0.1152 0.008,-0.02281 -0.051,0.152972 -0.005,0.01611 0,0.03399 0,0.05099 0,0.03399 0,0.06799 0,0.101981 0,0.06799 0,0.135975 0,0.203962 0,0.03399 0.0108,0.06973 0,0.101981 -0.008,0.02281 -0.0434,0.02819 -0.051,0.05099 -0.0107,0.03225 0,0.06799 0,0.101981 0,0.01699 0,0.03399 0,0.05099 0,0.101981 0,0.203962 0,0.305943 0,0.01699 0,0.03399 0,0.05099 0,0.01699 0.008,0.03579 0,0.05099 -0.0107,0.02151 -0.0402,0.02949 -0.051,0.05099 -0.008,0.01521 0,0.03399 0,0.05099 0,0.01699 0,0.03399 0,0.05099 0,0.01699 0.008,0.03579 0,0.05099 -0.0107,0.02151 -0.0402,0.02949 -0.051,0.05099 -0.0152,0.03041 0.0152,0.07158 0,0.101981 -0.0107,0.02151 -0.0402,0.02949 -0.051,0.05099 -0.008,0.01521 0,0.03399 0,0.05099 0,0.01699 0,0.03399 0,0.05099 0,0.01699 0.008,0.03579 0,0.05099 -0.0107,0.02151 -0.0402,0.02949 -0.051,0.05099 -0.008,0.01521 0,0.03399 0,0.05099 0,0.03399 0,0.06799 0,0.101981 0,0.08498 0,0.169968 0,0.254952 0,0.01699 -0.012,0.03897 0,0.05099 0.012,0.01201 0.039,-0.01201 0.051,0 0.012,0.01201 -0.012,0.03897 0,0.05099 0.012,0.01201 0.034,0 0.051,0 0.068,0 0.034,0 0.10198,0 0.017,0 0.039,-0.01201 0.051,0 0.012,0.01201 -0.012,0.03897 0,0.05099 0.012,0.01201 0.034,0 0.051,0 0.068,0 0.034,0 0.10198,0 0.017,0 0.0358,0.0076 0.051,0 0.0215,-0.01074 0.034,-0.03399 0.051,-0.05099 0.017,-0.01699 0.0295,-0.04024 0.051,-0.05099 0.0152,-0.0076 0.039,0.01201 0.051,0 0.012,-0.01201 -0.012,-0.03897 0,-0.05099 0.012,-0.01201 0.039,0.01201 0.051,0 0.012,-0.01201 -0.012,-0.03897 0,-0.05099 0.1055,-0.1055 -0.004,0.161221 0.10198,-0.05099 0.008,-0.01521 -0.008,-0.03579 0,-0.05099 0.0107,-0.02151 0.0402,-0.02949 0.051,-0.05099 0.008,-0.01519 -0.008,-0.03579 0,-0.05099 0.0215,-0.043 0.0805,-0.05898 0.10198,-0.101981 0.0106,-0.02127 -0.0119,-0.09011 0,-0.101981 0.012,-0.01201 0.039,0.01201 0.051,0 0.012,-0.01201 -0.008,-0.03579 0,-0.05099 0.0107,-0.02151 0.0402,-0.02949 0.051,-0.05099 0,-0.135975 -0.017,0.01699 0.051,-0.05099 0.012,-0.01201 0,-0.03399 0,-0.05099 0,-0.01699 0,-0.03399 0,-0.05099 0,-0.01699 -0.008,-0.03579 0,-0.05099 0.0107,-0.02151 0.0402,-0.02949 0.051,-0.05099 0.0106,-0.02127 -0.0119,-0.09011 0,-0.101981 0.012,-0.01201 0.039,-0.01201 0.051,0 0.012,0.01201 0,0.03399 0,0.05099 0,0.03399 0,0.06799 0,0.101981 0,0.01699 0.008,0.03579 0,0.05099 -0.0107,0.02151 -0.0402,0.02949 -0.051,0.05099 -0.008,0.01521 0,0.03399 0,0.05099 0,0.01699 0,0.03399 0,0.05099 0,0.06799 0,0.135974 0,0.203962 0,0.01699 0.005,0.03487 0,0.05099 -0.012,0.03606 -0.039,0.06593 -0.051,0.101981 -0.005,0.01614 0,0.03399 0,0.05099 0,0.01699 0,0.03399 0,0.05099 0,0.06799 0,0.135975 0,0.203962 0,0.01699 0,0.03399 0,0.05099 0,0.01699 -0.012,0.03897 0,0.05099 0.024,0.02402 0.0779,-0.02402 0.10198,0 0.012,0.01201 -0.012,0.03897 0,0.05099 0.012,0.01201 0.034,0 0.051,0 0.051,0 0.10198,0 0.15297,0 0.13598,0 -0.017,0.01699 0.051,-0.05099 0.0119,-0.01188 0.0807,0.01064 0.10199,0 0.21221,-0.106103 -0.0545,0.0035 0.051,-0.101981 0.012,-0.01201 0.0358,0.0076 0.051,0 0.0215,-0.01074 0.034,-0.03399 0.051,-0.05099 0.017,-0.01699 0.0402,-0.02949 0.051,-0.05099 0.008,-0.01519 -0.008,-0.03579 0,-0.05099 0.11668,-0.233363 -0.0211,0.216376 0.10198,-0.152972 0.005,-0.01611 0,-0.03399 0,-0.05099 0.017,-0.03399 0.034,-0.06799 0.051,-0.101981 0.017,-0.03399 0.0299,-0.07036 0.051,-0.101981 0.0133,-0.02 0.0434,-0.02819 0.051,-0.05099 0,-0.232121 -0.024,-0.0029 0.051,-0.152971 0.0106,-0.02127 -0.0119,-0.09011 0,-0.101981 0.012,-0.01201 0.039,0.01201 0.051,0 0.012,-0.01201 0,-0.03399 0,-0.05099 0,-0.01699 0,-0.03399 0,-0.05099 0,-0.01699 -0.012,-0.03897 0,-0.05099 0.068,-0.06799 0.051,0.08498 0.051,-0.05099 0,-0.01699 0,-0.03399 0,-0.05099 0,-0.01699 -0.012,-0.03897 0,-0.05099 0.012,-0.01201 0.039,-0.01201 0.051,0 0.012,0.01201 -0.012,0.03897 0,0.05099 0.068,0.06799 0.0489,-0.108167 0.10198,0.05099 0.0108,0.03225 -0.0107,0.06973 0,0.101981 0.008,0.02281 0.0434,0.02819 0.051,0.05099 0.0108,0.03225 -0.008,0.069 0,0.101981 0.009,0.03687 0.034,0.06799 0.051,0.101981 0,0.05099 -0.01,0.102973 0,0.152972 0.007,0.03727 0.0418,0.06511 0.051,0.101981 0.008,0.03298 0,0.06799 0,0.101981 0,0.08498 0,0.169968 0,0.254952 0,0.08498 0,0.169969 0,0.254953 0,0.03399 0.0108,0.06973 0,0.101981 -0.008,0.02281 -0.0402,0.02949 -0.051,0.05099 -0.008,0.01521 0,0.03399 0,0.05099 0,0.03399 0,0.06799 0,0.101981 0,0.03399 0.008,0.069 0,0.101981 -0.009,0.03687 -0.0418,0.06511 -0.051,0.101983 -0.003,0.0123 0.003,0.194596 0,0.203962 -0.008,0.02281 -0.0434,0.02819 -0.051,0.05099 -0.0107,0.03225 0.0108,0.06973 0,0.101981 -0.008,0.02281 -0.0402,0.02949 -0.051,0.05099 -0.008,0.01521 0.008,0.03579 0,0.05099 -0.0107,0.02148 -0.0402,0.02949 -0.051,0.05099 -0.008,0.01519 0.008,0.03579 0,0.05099 -0.0107,0.02151 -0.034,0.03399 -0.051,0.05099 -0.017,0.01699 -0.0295,0.04024 -0.051,0.05099 -0.0152,0.0076 -0.039,-0.01201 -0.051,0 -0.012,0.01201 0.008,0.03579 0,0.05099 -0.1061,0.212209 0.004,-0.05451 -0.10198,0.05099 -0.012,0.01201 0.012,0.03897 0,0.05099 -0.012,0.01201 -0.034,0 -0.051,0 -0.017,0 -0.034,0 -0.051,0 -0.017,0 -0.039,0.01201 -0.051,0 -0.012,-0.01201 0,-0.03399 0,-0.05099 0,-0.01699 0.005,-0.03487 0,-0.05099 -0.012,-0.03606 -0.039,-0.06593 -0.051,-0.101981 -0.005,-0.01611 0,-0.03399 0,-0.05099 0,-0.03399 0,-0.06799 0,-0.101981 0,-0.08498 0,-0.169969 0,-0.254953 0,-0.06801 0,-0.03398 0,-0.101981 0,-0.01699 -0.008,-0.03579 0,-0.05099 0.0107,-0.02151 0.0402,-0.02949 0.051,-0.05099 0.008,-0.01521 -0.008,-0.03579 0,-0.05099 0.0107,-0.02151 0.034,-0.03399 0.051,-0.05099 0.017,-0.01699 0.034,-0.03399 0.051,-0.05099 0.017,-0.01699 0.0295,-0.04024 0.051,-0.05099 0.0152,-0.0076 0.0358,0.0076 0.051,0 0.21221,-0.106104 -0.0545,0.0035 0.051,-0.101981 0.012,-0.01201 0.0358,0.0076 0.051,0 0.043,-0.02148 0.059,-0.08048 0.10198,-0.101981 0.0152,-0.0076 0.039,0.01201 0.051,0 0.012,-0.01201 -0.012,-0.03897 0,-0.05099 0.012,-0.01201 0.039,0.01201 0.051,0 0.012,-0.01201 -0.012,-0.03897 0,-0.05099 0.068,-0.06799 0.051,0.08498 0.051,-0.05099"
         style="opacity:1;fill:#ffffff;fill-opacity:1;stroke:#000036;stroke-width:0.30418421;stroke-linecap:round;stroke-linejoin:round;stroke-miterlimit:4;stroke-dasharray:none;stroke-opacity:1" />
      <path
         inkscape:connector-curvature="0"
         id="path6517"
         d="m 201.82049,34.217403 c -0.068,-0.05099 -0.12506,-0.121409 -0.20396,-0.152971 -0.0223,-0.0089 -0.034,0.03399 -0.051,0.05099 -0.017,0.01699 -0.0295,0.04024 -0.051,0.05099 -0.0213,0.01064 -0.0901,-0.01188 -0.10198,0 -0.012,0.01201 0.012,0.03897 0,0.05099 -0.012,0.01201 -0.0358,-0.0076 -0.051,0 -0.0215,0.01074 -0.034,0.03399 -0.051,0.05099 -0.017,0.01699 -0.0402,0.02949 -0.051,0.05099 -0.008,0.01521 0.008,0.03579 0,0.05099 -0.16911,0.169113 0.024,-0.04808 -0.051,0.101981 -0.0107,0.02151 -0.0402,0.02949 -0.051,0.05099 -0.008,0.01521 0.008,0.03579 0,0.05099 -0.0107,0.02151 -0.0402,0.02949 -0.051,0.05099 -0.008,0.01521 0,0.03399 0,0.05099 0,0.01699 0,0.03399 0,0.05099 0,0.06799 0,0.135975 0,0.203962 0,0.05099 0,0.101981 0,0.152972 0,0.01699 -0.008,0.03579 0,0.05099 0.0107,0.02151 0.034,0.03399 0.051,0.05099 0.017,0.01699 0.0295,0.04024 0.051,0.05099 0.0152,0.0076 0.039,-0.01201 0.051,0 0.012,0.01201 -0.012,0.03897 0,0.05099 0.0119,0.01188 0.0807,-0.01064 0.10198,0 0.0215,0.01074 0.0295,0.04024 0.051,0.05099 0.0152,0.0076 0.034,0 0.051,0 0.017,0 0.034,0 0.051,0 0.034,0 0.068,0 0.10198,0 0.017,0 0.0358,0.0076 0.051,0 0.0215,-0.01074 0.031,-0.03766 0.051,-0.05099 0.0316,-0.02109 0.0704,-0.02991 0.10198,-0.05099 0.02,-0.01333 0.034,-0.03399 0.051,-0.05099 0.034,-0.03399 0.068,-0.06799 0.10198,-0.101981 0.017,-0.01699 0.0402,-0.02949 0.051,-0.05099 0.008,-0.01521 -0.008,-0.03579 0,-0.05099 0.11668,-0.233363 -0.0211,0.216376 0.10198,-0.152972 0.004,-0.01098 -0.004,-0.09439 0,-0.101981 0.0108,-0.02151 0.0403,-0.02949 0.051,-0.05099 0.008,-0.01521 0,-0.03399 0,-0.05099 0,-0.03399 0,-0.06799 0,-0.101981 0,-0.01699 -0.005,-0.03486 0,-0.05099 0.012,-0.03605 0.039,-0.06592 0.051,-0.101981 0.005,-0.01611 0,-0.03399 0,-0.05099 0,-0.03399 0,-0.06799 0,-0.101981 0,-0.152971 0,-0.305943 0,-0.458914 0,-0.118978 0,-0.237956 0,-0.356934 0,-0.03399 0,-0.06799 0,-0.101981 0,-0.01699 0.008,-0.03579 0,-0.05099 -0.16912,-0.169114 0.024,0.04807 -0.051,-0.101981 -0.0107,-0.02151 -0.0402,-0.02949 -0.051,-0.05099 -0.0152,-0.03041 0.0152,-0.07158 0,-0.101981 -0.0107,-0.02151 -0.0402,-0.02949 -0.051,-0.05099 -0.008,-0.01521 -0.017,-0.05099 0,-0.05099 0.017,0 0,0.03399 0,0.05099 0,0.01699 0,0.03399 0,0.05099 0,0.338228 -0.024,-0.07211 0.051,0.152972 0.003,0.0094 -0.003,0.191664 0,0.203962 0.009,0.03687 0.0418,0.06511 0.051,0.101981 0.008,0.03298 0,0.06799 0,0.101981 0,0.01699 0,0.03399 0,0.05099 0,0.118978 0,0.237956 0,0.356934 0,0.01699 0,0.03399 0,0.05099 0,0.03399 -0.008,0.069 0,0.101981 0.0586,0.234368 0.051,0.01156 0.051,0.152972 0,0.152971 0,0.305943 0,0.458914 0,0.05099 0,0.101981 0,0.152972 0,0.01699 -0.008,0.03579 0,0.05099 0.0107,0.02151 0.0402,0.02949 0.051,0.05099 0.075,0.150055 -0.11813,-0.06713 0.051,0.101981 0.0276,0.02764 0.052,0.076 0.10198,0.05099 0.0215,-0.01074 0.0295,-0.04024 0.051,-0.05099 0.0703,-0.03517 0.0456,0.06175 0.10198,-0.05099 0.008,-0.01521 -0.008,-0.03579 0,-0.05099 0.0107,-0.02151 0.034,-0.03399 0.051,-0.05099 0.017,-0.01699 0.0295,-0.04024 0.051,-0.05099 0.0152,-0.0076 0.039,0.01201 0.051,0 0.012,-0.01201 -0.008,-0.03579 0,-0.05099 0.0107,-0.02151 0.0402,-0.02949 0.051,-0.05099 0.008,-0.01519 -0.012,-0.03897 0,-0.05099 0.012,-0.01201 0.039,0.01201 0.051,0 0.0119,-0.01188 -0.0106,-0.08071 0,-0.101981 0.0107,-0.02151 0.0402,-0.02949 0.051,-0.05099 0.008,-0.01521 -0.008,-0.03579 0,-0.05099 0.0107,-0.02151 0.0402,-0.02949 0.051,-0.05099 0.008,-0.01521 -0.008,-0.03579 0,-0.05099 0.0107,-0.02151 0.0402,-0.02949 0.051,-0.05099 0.008,-0.01521 -0.012,-0.03897 0,-0.05099 0.012,-0.01201 0.039,0.01201 0.051,0 0.012,-0.01201 -0.012,-0.03897 0,-0.05099 0.012,-0.01201 0.039,0.01201 0.051,0 0.012,-0.01201 -0.012,-0.03897 0,-0.05099 0.012,-0.01201 0.0358,0.0076 0.051,0 0.043,-0.02151 0.059,-0.08048 0.10199,-0.101981 0.0152,-0.0076 0.039,0.01201 0.051,0 0.068,-0.06799 -0.085,-0.05099 0.051,-0.05099 0.051,0 0.10198,0 0.15297,0 0.017,0 0.034,0 0.051,0 0.017,0 0.0358,-0.0076 0.051,0 0.0215,0.01074 0.034,0.03399 0.051,0.05099 0.017,0.01699 0.034,0.03399 0.051,0.05099 0.017,0.01699 0.0402,0.02949 0.051,0.05099 0.008,0.01521 0,0.03399 0,0.05099 0,0.01699 0,0.03399 0,0.05099 0,0.05099 0,0.101981 0,0.152972 0,0.01699 0,0.03399 0,0.05099 0,0.03399 0.0107,0.06973 0,0.101981 -0.008,0.02281 -0.0377,0.03099 -0.051,0.05099 -0.0211,0.03162 -0.0299,0.07036 -0.051,0.101981 -0.0133,0.02 -0.0377,0.03099 -0.051,0.05099 -0.0211,0.03162 -0.034,0.06799 -0.051,0.101981 -0.017,0.03399 -0.0241,0.07511 -0.051,0.101981 -0.012,0.01201 -0.039,-0.01201 -0.051,0 -0.012,0.01201 0.012,0.03897 0,0.05099 -0.012,0.01201 -0.0358,-0.0076 -0.051,0 -0.0215,0.01074 -0.0282,0.04339 -0.051,0.05099 -0.0323,0.01074 -0.0697,-0.01074 -0.10198,0 -0.0228,0.0076 -0.0295,0.04024 -0.051,0.05099 -0.0152,0.0076 -0.0349,-0.0054 -0.051,0 -0.0361,0.01201 -0.0659,0.03897 -0.10198,0.05099 -0.0161,0.0054 -0.051,0.01699 -0.051,0 0,-0.01699 0.0358,0.0076 0.051,0 0.12602,-0.06301 -0.0176,-0.05099 0.10198,-0.05099 0.11959,0 -0.024,0.01201 0.10199,-0.05099 0.0152,-0.0076 0.034,0 0.051,0 0.034,0 0.068,0 0.10198,0 0.085,0 0.16997,0 0.25495,0 0.017,0 0.0349,-0.0054 0.051,0 0.036,0.01201 0.0704,0.02991 0.10198,0.05099 0.02,0.01334 0.034,0.03399 0.051,0.05099 0.017,0.01699 0.034,0.03399 0.051,0.05099 0.017,0.01699 0.034,0.03399 0.051,0.05099 0.017,0.01699 0.0377,0.03099 0.051,0.05099 0.0211,0.03162 0.0299,0.07036 0.051,0.101981 0.0133,0.02 0.034,0.03399 0.051,0.05099 0.017,0.01699 0.0434,0.02819 0.051,0.05099 0.0107,0.03225 -0.008,0.069 0,0.101981 0.009,0.03687 0.0418,0.06511 0.051,0.101981 0.008,0.03298 -0.0108,0.06973 0,0.101983 0.008,0.02281 0.0402,0.02949 0.051,0.05099 0.008,0.01521 0,0.03399 0,0.05099 0,0.01699 0,0.03399 0,0.05099 0,0.08498 0,0.169968 0,0.254952 0,0.05099 0,0.101981 0,0.152972 0,0.03399 0.0107,0.06973 0,0.101981 -0.008,0.02281 -0.0434,0.02819 -0.051,0.05099 -0.0108,0.03225 0.0107,0.06973 0,0.101981 -0.008,0.02281 -0.0403,0.02949 -0.051,0.05099 -0.008,0.01519 0.008,0.03579 0,0.05099 -0.0107,0.02151 -0.0402,0.02949 -0.051,0.05099 -0.008,0.01519 0,0.03399 0,0.05099 0,0.03399 0,0.06799 0,0.101981 0,0.01699 0.008,0.03579 0,0.05099 -0.0107,0.02151 -0.0402,0.02949 -0.051,0.05099 -0.0106,0.02127 0.0119,0.09011 0,0.101981 -0.012,0.01201 -0.034,0 -0.051,0 0,0.01699 0.008,0.03579 0,0.05099 -0.0107,0.02151 -0.034,0.03399 -0.051,0.05099 -0.017,0.01699 -0.0282,0.04339 -0.051,0.05099 -0.0323,0.01074 -0.0697,-0.01074 -0.10198,0 -0.0228,0.0076 -0.0282,0.04339 -0.051,0.05099 -0.0323,0.01074 -0.068,0 -0.10198,0 -0.10198,0 -0.20396,0 -0.30594,0 -0.051,0 -0.10198,0 -0.15297,0 -0.017,0 -0.039,0.01201 -0.051,0 -0.012,-0.01201 0,-0.03399 0,-0.05099 0,-0.06799 0,-0.135975 0,-0.203962 0,-0.06799 0,-0.135975 0,-0.203962 0,-0.01699 -0.008,-0.03579 0,-0.05099 0.0108,-0.02151 0.0402,-0.02949 0.051,-0.05099 0.008,-0.01521 -0.005,-0.03487 0,-0.05099 0.012,-0.03606 0.039,-0.06593 0.051,-0.101981 0.005,-0.01611 -0.008,-0.03579 0,-0.05099 0.0107,-0.02151 0.034,-0.03399 0.051,-0.05099 0.0583,-0.05834 0.0711,-0.06036 0.10198,-0.152971 0.005,-0.01611 -0.008,-0.03579 0,-0.05099 0.1061,-0.212211 -0.004,0.05451 0.10198,-0.05099 0.1055,-0.105503 -0.16122,0.0041 0.051,-0.101981 0.0152,-0.0076 0.0358,0.0076 0.051,0 0.0215,-0.01074 0.034,-0.03399 0.051,-0.05099 0.017,-0.01699 0.034,-0.03399 0.051,-0.05099 0.085,-0.08498 0.16997,-0.169969 0.25495,-0.254953 0.017,-0.01699 0.0402,-0.02949 0.051,-0.05099 0.008,-0.01519 -0.012,-0.03897 0,-0.05099 0.012,-0.01201 0.039,0.01201 0.051,0 0.012,-0.01201 -0.012,-0.03897 0,-0.05099 0.012,-0.01201 0.039,0.01201 0.051,0 0.012,-0.01201 -0.012,-0.03897 0,-0.05099 0.012,-0.01201 0.039,0.01201 0.051,0 0.012,-0.01201 -0.012,-0.03897 0,-0.05099 0.012,-0.01201 0.039,0.01201 0.051,0 0.012,-0.01201 -0.012,-0.03897 0,-0.05099 0.012,-0.01201 0.039,0.01201 0.051,0 0.012,-0.01201 -0.017,-0.05099 0,-0.05099 0.017,0 0,0.03399 0,0.05099"
         style="opacity:1;fill:#ffffff;fill-opacity:1;stroke:#000036;stroke-width:0.30418421;stroke-linecap:round;stroke-linejoin:round;stroke-miterlimit:4;stroke-dasharray:none;stroke-opacity:1" />
      <path
         inkscape:connector-curvature="0"
         id="path6521"
         d="m 186.67631,29.679246 c -0.30779,0.02606 0.0103,-0.19367 -0.051,-0.254952 -0.012,-0.01201 -0.039,0.01201 -0.051,0 -0.012,-0.01201 0.008,-0.03579 0,-0.05099 -0.0107,-0.02151 -0.0402,-0.02949 -0.051,-0.05099 -0.008,-0.01521 0.012,-0.03897 0,-0.05099 -0.012,-0.01201 -0.034,0 -0.051,0 -0.051,0 -0.10198,0 -0.15297,0 -0.017,0 -0.0358,-0.0076 -0.051,0 -0.0215,0.01074 -0.0295,0.04024 -0.051,0.05099 -0.0304,0.01521 -0.0716,-0.01521 -0.10198,0 -0.21221,0.106105 0.0545,-0.0035 -0.051,0.101981 -0.012,0.01201 -0.039,-0.01201 -0.051,0 -0.012,0.01201 0.008,0.03579 0,0.05099 -0.0215,0.043 -0.0805,0.05898 -0.10198,0.101981 -0.008,0.01521 0.008,0.03579 0,0.05099 -0.0107,0.02151 -0.0402,0.02949 -0.051,0.05099 -0.008,0.01521 0.008,0.03579 0,0.05099 -0.0107,0.02151 -0.0402,0.02949 -0.051,0.05099 -0.0106,0.02127 0.0119,0.09011 0,0.101981 -0.012,0.01201 -0.039,-0.01201 -0.051,0 -0.012,0.01201 0,0.03399 0,0.05099 0,0.03399 0,0.06799 0,0.101981 0,0.01699 0.008,0.03579 0,0.05099 -0.0108,0.02151 -0.0402,0.02949 -0.051,0.05099 -0.008,0.01521 0,0.03399 0,0.05099 0,0.06799 0,0.135974 0,0.203962 0,0.08498 0,0.169968 0,0.254952 0,0.01699 0,0.03399 0,0.05099 0,0.01699 0.008,0.03579 0,0.05099 -0.0108,0.02151 -0.0402,0.02949 -0.051,0.05099 -0.0152,0.0304 0.0152,0.07157 0,0.101981 -0.0108,0.02148 -0.0434,0.02819 -0.051,0.05099 -0.0107,0.03225 0,0.06799 0,0.101981 0,0.05099 0,0.101981 0,0.152972 0,0.01699 0.005,0.03486 0,0.05099 -0.012,0.03606 -0.039,0.06592 -0.051,0.101981 -0.005,0.01611 0,0.03399 0,0.05099 0,0.08498 0,0.169968 0,0.254952 0,0.220959 0,0.441918 0,0.662877 0,0.135974 0,0.271949 0,0.407924 0,0.01699 0,0.03399 0,0.05099 0,0.03399 -0.0107,0.06973 0,0.101981 0.008,0.02281 0.0434,0.02819 0.051,0.05099 0.0108,0.03225 0,0.06799 0,0.101981 0,0.01699 0,0.03399 0,0.05099 0,0.01699 -0.008,0.03579 0,0.05099 0.0108,0.02151 0.0402,0.02949 0.051,0.05099 0.008,0.01521 0,0.03399 0,0.05099 0,0.05099 0,0.101981 0,0.152971 0,0.01699 -0.008,0.03579 0,0.05099 0.0107,0.02151 0.0402,0.02949 0.051,0.05099 0.008,0.01521 0,0.03399 0,0.05099 0,0.01699 0,0.03399 0,0.05099 0,0.06799 0,0.135975 0,0.203962 0,0.01699 0,0.03399 0,0.05099 0,0.01699 -0.008,0.03579 0,0.05099 0.0107,0.02151 0.0402,0.02949 0.051,0.05099 0.008,0.01521 0,0.03399 0,0.05099 0,0.01699 0,0.03399 0,0.05099 0,0.05099 0,0.101981 0,0.152971 0,0.152972 0,0.305943 0,0.458915 0,0.441917 0,0.883835 0,1.325755 0,0.101981 0,0.203962 0,0.305943 0,0.03399 0,0.06799 0,0.101981 0,0.01699 0.008,0.03579 0,0.05099 -0.0108,0.02151 -0.0402,0.02949 -0.051,0.05099 -0.0106,0.02127 0.0119,0.09011 0,0.101981 -0.012,0.01201 -0.039,-0.01201 -0.051,0 -0.012,0.01201 0.012,0.03897 0,0.05099 -0.012,0.01201 -0.039,-0.01201 -0.051,0 -0.012,0.01201 0.012,0.03897 0,0.05099 -0.012,0.01201 -0.039,-0.01201 -0.051,0 -0.024,0.02402 0.0241,0.07794 0,0.101981 -0.024,0.02405 -0.0779,-0.02402 -0.10198,0 -0.012,0.01201 0.012,0.03897 0,0.05099 -0.012,0.01201 -0.039,-0.01201 -0.051,0 -0.012,0.01201 0.012,0.03897 0,0.05099 -0.012,0.01201 -0.039,-0.01201 -0.051,0 -0.012,0.01201 0.012,0.03897 0,0.05099 -0.012,0.01201 -0.034,0 -0.051,0 -0.034,0 -0.068,0 -0.10198,0 -0.017,0 -0.0358,0.0076 -0.051,0 -0.11274,-0.05637 -0.0158,-0.03165 -0.051,-0.101981 -0.0107,-0.02151 -0.0402,-0.02949 -0.051,-0.05099 -0.0106,-0.02127 0.0119,-0.09011 0,-0.101981 -0.012,-0.01201 -0.039,0.01201 -0.051,0 -0.0119,-0.01188 0.0106,-0.08071 0,-0.101981 -0.0107,-0.02151 -0.0402,-0.02949 -0.051,-0.05099 -0.008,-0.01521 0,-0.03399 0,-0.05099 0,-0.01699 0,-0.03399 0,-0.05099 0,-0.03399 0,-0.06799 0,-0.101981 0,-0.01699 0.008,-0.03579 0,-0.05099 -0.063,-0.126018 -0.051,0.0176 -0.051,-0.101981 0,-0.01699 -0.017,-0.05099 0,-0.05099 0.0241,0 0.034,0.03399 0.051,0.05099 0.017,0.01699 0.0295,0.04024 0.051,0.05099 0.0152,0.0076 0.034,0 0.051,0"
         style="opacity:1;fill:#ffffff;fill-opacity:1;stroke:#000036;stroke-width:0.30418421;stroke-linecap:round;stroke-linejoin:round;stroke-miterlimit:4;stroke-dasharray:none;stroke-opacity:1" />
      <path
         inkscape:connector-curvature="0"
         id="path6523"
         d="m 188.40998,29.577265 c 0,-0.06799 0.0165,-0.138004 0,-0.203962 -0.004,-0.01648 -0.0358,0.0076 -0.051,0 -0.0215,-0.01074 -0.0295,-0.04024 -0.051,-0.05099 -0.0152,-0.0076 -0.034,0 -0.051,0 -0.017,0 -0.0358,-0.0076 -0.051,0 -0.0215,0.01074 -0.0295,0.04024 -0.051,0.05099 -0.0152,0.0076 -0.039,-0.01201 -0.051,0 -0.024,0.02402 0.024,0.07794 0,0.101981 -0.012,0.01201 -0.039,-0.01201 -0.051,0 -0.0119,0.01188 0.0106,0.08071 0,0.101981 -0.16911,0.169116 0.024,-0.04807 -0.051,0.101981 -0.0107,0.02151 -0.0434,0.02819 -0.051,0.05099 -0.0107,0.03225 0.0107,0.06973 0,0.101981 -0.008,0.02281 -0.0402,0.02949 -0.051,0.05099 -0.008,0.01521 0.008,0.03579 0,0.05099 -0.0107,0.02151 -0.0402,0.02949 -0.051,0.05099 -0.008,0.01521 0,0.03399 0,0.05099 0,0.01699 0,0.03399 0,0.05099 0,0.01699 0.008,0.03579 0,0.05099 -0.0108,0.02151 -0.0402,0.02949 -0.051,0.05099 -0.008,0.01521 0,0.03399 0,0.05099 0,0.03399 0,0.06799 0,0.101981 0,0.03399 0.0107,0.06973 0,0.101981 -0.008,0.02281 -0.0402,0.02949 -0.051,0.05099 -0.008,0.01521 0,0.03399 0,0.05099 0,0.05099 0,0.101981 0,0.152972 0,0.01699 0,0.03399 0,0.05099 0,0.01699 0.005,0.03486 0,0.05099 -0.012,0.03606 -0.039,0.06592 -0.051,0.101981 -0.005,0.01611 0,0.03399 0,0.05099 0,0.01699 0,0.03399 0,0.05099 0,0.06799 0,0.135974 0,0.203962 0,0.186965 0,0.37393 0,0.560895 0,0.237956 0,0.475912 0,0.713867 0,0.06799 0,0.135975 0,0.203962 0,0.03399 -0.0108,0.06973 0,0.101981 0.008,0.02281 0.0434,0.02819 0.051,0.05099 0.0107,0.03225 0,0.06799 0,0.101981 0,0.06799 0,0.135974 0,0.203962 0,0.203962 0,0.407924 0,0.611886 0,0.01699 0,0.03399 0,0.05099 0,0.01699 -0.008,0.03579 0,0.05099 0.0107,0.02151 0.0402,0.02949 0.051,0.05099 0.008,0.01521 0,0.03399 0,0.05099 0,0.01699 0,0.03399 0,0.05099 0,0.101981 0,0.203962 0,0.305943 0,0.305943 0,0.611886 0,0.917829 0,0.254953 0,0.509905 0,0.76486 0,0.03399 0,0.06799 0,0.101981 0,0.01699 0.012,0.03897 0,0.05099 -0.012,0.01201 -0.039,-0.01201 -0.051,0 -0.0119,0.01188 0.0106,0.08071 0,0.101981 -0.0108,0.02151 -0.0402,0.02949 -0.051,0.05099 -0.0106,0.02127 0.0119,0.09011 0,0.101981 -0.012,0.01201 -0.039,-0.01201 -0.051,0 -0.012,0.01201 0.012,0.03897 0,0.05099 -0.012,0.01201 -0.039,-0.01201 -0.051,0 0,0.135974 0.017,-0.01699 -0.051,0.05099 -0.024,0.02402 0.0241,0.07794 0,0.101981 -0.012,0.01201 -0.0358,-0.0076 -0.051,0 -0.0215,0.01074 -0.0295,0.04024 -0.051,0.05099 -0.0152,0.0076 -0.039,-0.01201 -0.051,0 -0.012,0.01201 0.012,0.03897 0,0.05099 -0.012,0.01201 -0.034,0 -0.051,0 -0.017,0 -0.034,0 -0.051,0 -0.017,0 -0.039,-0.01201 -0.051,0 -0.012,0.01201 0.012,0.03897 0,0.05099 -0.012,0.01201 -0.034,0 -0.051,0 -0.034,0 -0.068,0 -0.10198,0 -0.034,0 -0.068,0 -0.10198,0 -0.0528,0 -0.0705,0.01201 -0.10198,-0.05099 -0.008,-0.01521 0,-0.03399 0,-0.05099 0,-0.03399 0,-0.06799 0,-0.101981 0,-0.01699 -0.017,-0.05099 0,-0.05099 0.017,0 -0.012,0.03897 0,0.05099 0.068,0.06799 0.051,-0.08498 0.051,0.05099"
         style="opacity:1;fill:#ffffff;fill-opacity:1;stroke:#000036;stroke-width:0.30418421;stroke-linecap:round;stroke-linejoin:round;stroke-miterlimit:4;stroke-dasharray:none;stroke-opacity:1" />
      <path
         inkscape:connector-curvature="0"
         id="path6525"
         d="m 190.65357,29.730237 c 0,-0.06799 0,-0.135975 0,-0.203962 -0.017,0 -0.039,0.01201 -0.051,0 -0.012,-0.01201 0.008,-0.03579 0,-0.05099 -0.0108,-0.02148 -0.0402,-0.02949 -0.051,-0.05099 -0.008,-0.01521 0.012,-0.03897 0,-0.05099 -0.012,-0.01201 -0.034,0 -0.051,0 -0.034,0 -0.068,0 -0.10199,0 -0.017,0 -0.0358,-0.0076 -0.051,0 -0.0215,0.01074 -0.0295,0.04024 -0.051,0.05099 -0.0152,0.0076 -0.039,-0.01201 -0.051,0 -0.012,0.01201 0.012,0.03897 0,0.05099 -0.012,0.01201 -0.0358,-0.0076 -0.051,0 -0.0215,0.01074 -0.034,0.03399 -0.051,0.05099 -0.017,0.01699 -0.0434,0.02819 -0.051,0.05099 -0.0107,0.03225 0.0107,0.06973 0,0.101981 -0.008,0.02281 -0.0402,0.02949 -0.051,0.05099 -0.008,0.01521 0.008,0.03579 0,0.05099 -0.0107,0.02151 -0.0402,0.02949 -0.051,0.05099 -0.008,0.01521 0.012,0.03897 0,0.05099 -0.012,0.01201 -0.039,-0.01201 -0.051,0 -0.0119,0.01188 0.0106,0.08071 0,0.101981 -0.0107,0.02151 -0.0402,0.02949 -0.051,0.05099 -0.008,0.01521 0,0.03399 0,0.05099 0,0.03399 0.0107,0.06973 0,0.101984 -0.008,0.02281 -0.0434,0.02819 -0.051,0.05099 -0.0108,0.03225 0,0.06799 0,0.101981 0,0.01699 0,0.03399 0,0.05099 0,0.118978 0,0.237955 0,0.356933 0,0.03399 0,0.06799 0,0.101981 0,0.01699 0.005,0.03486 0,0.05099 -0.012,0.03606 -0.039,0.06592 -0.051,0.101981 -0.005,0.01611 0,0.03399 0,0.05099 0,0.01699 0,0.03399 0,0.05099 0,0.08498 0,0.169968 0,0.254952 0,0.237956 0,0.475912 0,0.713867 0,0.390927 0,0.781855 0,1.172782 0,0.118978 0,0.237955 0,0.356933 0,0.03399 0,0.06799 0,0.101981 0,0.03399 -0.008,0.069 0,0.101981 0.009,0.03687 0.0418,0.06511 0.051,0.101981 0.008,0.03298 0,0.06799 0,0.101981 0,0.05099 0,0.101981 0,0.152972 0,0.152971 0,0.305943 0,0.458914 0,0.288946 0,0.577893 0,0.866839 0,0.01699 0,0.03399 0,0.05099 0,0.01699 0.012,0.03897 0,0.05099 -0.012,0.01201 -0.039,-0.01201 -0.051,0 -0.012,0.01201 0,0.03399 0,0.05099 0,0.01699 0,0.03399 0,0.05099 0,0.135974 0,0.271952 0,0.407926 0,0.01699 0,0.03399 0,0.05099 0,0.01699 0.012,0.03897 0,0.05099 -0.068,0.06799 -0.051,-0.08498 -0.051,0.05099 0,0.05099 0,0.101981 0,0.152971 0,0.01699 0.012,0.03897 0,0.05099 -0.012,0.01201 -0.039,-0.01201 -0.051,0 -0.012,0.01201 0,0.03399 0,0.05099 -0.017,0 -0.039,-0.01201 -0.051,0 -0.024,0.02402 0.0241,0.07794 0,0.101981 -0.012,0.01201 -0.039,-0.01201 -0.051,0 -0.012,0.01201 0.008,0.03579 0,0.05099 -0.0107,0.02151 -0.0402,0.02949 -0.051,0.05099 -0.008,0.01519 0.012,0.03897 0,0.05099 -0.024,0.02402 -0.0779,-0.02405 -0.10198,0 -0.012,0.01201 0.012,0.03897 0,0.05099 -0.012,0.01201 -0.034,0 -0.051,0 -0.051,0 -0.10198,0 -0.15297,0 -0.017,0 -0.034,0 -0.051,0 -0.017,0 -0.039,0.01201 -0.051,0 -0.012,-0.01201 0.012,-0.03897 0,-0.05099 -0.012,-0.01201 -0.039,0.01201 -0.051,0 -0.012,-0.01201 0.008,-0.03579 0,-0.05099 -0.0107,-0.02151 -0.0402,-0.02949 -0.051,-0.05099 -0.008,-0.01521 0,-0.03399 0,-0.05099 0,-0.01699 0,-0.06799 0,-0.05099 0,0.03399 0,0.06799 0,0.101981"
         style="opacity:1;fill:#ffffff;fill-opacity:1;stroke:#000036;stroke-width:0.30418421;stroke-linecap:round;stroke-linejoin:round;stroke-miterlimit:4;stroke-dasharray:none;stroke-opacity:1" />
    </g>
  </g>
</svg>
